STARTFONT 2.1
FONT -Misc-Fixed-Medium-R-Normal--14-130-75-75-C-70-ISO10646-1
SIZE 14 75 75
FONTBOUNDINGBOX 14 14 0 -2
COMMENT "Generated by fontforge, http://fontforge.sourceforge.net"
STARTPROPERTIES 24
FONTNAME_REGISTRY ""
FOUNDRY "Misc"
FAMILY_NAME "Fixed"
WEIGHT_NAME "Medium"
SLANT "R"
SETWIDTH_NAME "Normal"
ADD_STYLE_NAME ""
PIXEL_SIZE 14
POINT_SIZE 130
RESOLUTION_X 75
RESOLUTION_Y 75
SPACING "C"
AVERAGE_WIDTH 70
CHARSET_REGISTRY "ISO10646"
CHARSET_ENCODING "1"
COPYRIGHT "Public domain font.  Share and enjoy."
_XMBDFED_INFO "Edited with xmbdfed 4.5."
CAP_HEIGHT 10
X_HEIGHT 7
WEIGHT 10
QUAD_WIDTH 7
DEFAULT_CHAR 0
FONT_DESCENT 2
FONT_ASCENT 12
ENDPROPERTIES
CHARS 21012
STARTCHAR char0
ENCODING 0
SWIDTH 960 0
DWIDTH 7 0
BBX 6 11 0 0
BITMAP
B4
84
00
84
84
00
84
84
00
84
B4
ENDCHAR
STARTCHAR space
ENCODING 32
SWIDTH 960 0
DWIDTH 7 0
BBX 1 1 6 -2
BITMAP
00
ENDCHAR
STARTCHAR exclam
ENCODING 33
SWIDTH 960 0
DWIDTH 7 0
BBX 1 10 3 0
BITMAP
80
80
80
80
80
80
80
00
80
80
ENDCHAR
STARTCHAR quotedbl
ENCODING 34
SWIDTH 960 0
DWIDTH 7 0
BBX 3 4 2 7
BITMAP
A0
A0
A0
A0
ENDCHAR
STARTCHAR numbersign
ENCODING 35
SWIDTH 960 0
DWIDTH 7 0
BBX 5 10 1 0
BITMAP
50
50
50
F8
50
50
F8
50
50
50
ENDCHAR
STARTCHAR dollar
ENCODING 36
SWIDTH 960 0
DWIDTH 7 0
BBX 6 11 0 -1
BITMAP
10
78
94
94
50
38
14
94
94
78
10
ENDCHAR
STARTCHAR percent
ENCODING 37
SWIDTH 960 0
DWIDTH 7 0
BBX 6 10 0 0
BITMAP
64
94
98
70
10
20
38
64
A4
98
ENDCHAR
STARTCHAR ampersand
ENCODING 38
SWIDTH 960 0
DWIDTH 7 0
BBX 6 10 0 0
BITMAP
30
48
48
48
30
64
94
88
98
64
ENDCHAR
STARTCHAR quotesingle
ENCODING 39
SWIDTH 960 0
DWIDTH 7 0
BBX 1 4 3 7
BITMAP
80
80
80
80
ENDCHAR
STARTCHAR parenleft
ENCODING 40
SWIDTH 960 0
DWIDTH 7 0
BBX 4 13 2 -2
BITMAP
10
20
40
40
80
80
80
80
80
40
40
20
10
ENDCHAR
STARTCHAR parenright
ENCODING 41
SWIDTH 960 0
DWIDTH 7 0
BBX 4 13 1 -2
BITMAP
80
40
20
20
10
10
10
10
10
20
20
40
80
ENDCHAR
STARTCHAR asterisk
ENCODING 42
SWIDTH 960 0
DWIDTH 7 0
BBX 5 7 1 1
BITMAP
20
A8
70
20
70
A8
20
ENDCHAR
STARTCHAR plus
ENCODING 43
SWIDTH 960 0
DWIDTH 7 0
BBX 5 7 1 1
BITMAP
20
20
20
F8
20
20
20
ENDCHAR
STARTCHAR comma
ENCODING 44
SWIDTH 960 0
DWIDTH 7 0
BBX 2 4 2 -2
BITMAP
C0
40
40
80
ENDCHAR
STARTCHAR hyphen
ENCODING 45
SWIDTH 960 0
DWIDTH 7 0
BBX 5 1 1 4
BITMAP
F8
ENDCHAR
STARTCHAR period
ENCODING 46
SWIDTH 960 0
DWIDTH 7 0
BBX 3 3 2 -1
BITMAP
40
E0
40
ENDCHAR
STARTCHAR slash
ENCODING 47
SWIDTH 960 0
DWIDTH 7 0
BBX 6 13 0 -2
BITMAP
04
04
08
08
10
10
10
20
20
40
40
80
80
ENDCHAR
STARTCHAR zero
ENCODING 48
SWIDTH 960 0
DWIDTH 7 0
BBX 6 10 0 0
BITMAP
30
48
8C
94
94
A4
A4
C4
48
30
ENDCHAR
STARTCHAR one
ENCODING 49
SWIDTH 960 0
DWIDTH 7 0
BBX 5 10 1 0
BITMAP
20
60
A0
20
20
20
20
20
20
F8
ENDCHAR
STARTCHAR two
ENCODING 50
SWIDTH 960 0
DWIDTH 7 0
BBX 6 10 0 0
BITMAP
78
84
84
04
08
08
10
20
40
FC
ENDCHAR
STARTCHAR three
ENCODING 51
SWIDTH 960 0
DWIDTH 7 0
BBX 6 10 0 0
BITMAP
FC
04
08
10
38
04
04
84
84
78
ENDCHAR
STARTCHAR four
ENCODING 52
SWIDTH 960 0
DWIDTH 7 0
BBX 6 10 0 0
BITMAP
08
18
28
28
48
48
88
FC
08
08
ENDCHAR
STARTCHAR five
ENCODING 53
SWIDTH 960 0
DWIDTH 7 0
BBX 6 10 0 0
BITMAP
FC
80
80
F8
84
04
04
84
84
78
ENDCHAR
STARTCHAR six
ENCODING 54
SWIDTH 960 0
DWIDTH 7 0
BBX 6 10 0 0
BITMAP
38
40
80
80
B8
C4
84
84
84
78
ENDCHAR
STARTCHAR seven
ENCODING 55
SWIDTH 960 0
DWIDTH 7 0
BBX 6 10 0 0
BITMAP
FC
04
08
08
10
10
20
20
40
40
ENDCHAR
STARTCHAR eight
ENCODING 56
SWIDTH 960 0
DWIDTH 7 0
BBX 6 10 0 0
BITMAP
78
84
84
48
30
48
84
84
84
78
ENDCHAR
STARTCHAR nine
ENCODING 57
SWIDTH 960 0
DWIDTH 7 0
BBX 6 10 0 0
BITMAP
78
84
84
84
8C
74
04
84
88
70
ENDCHAR
STARTCHAR colon
ENCODING 58
SWIDTH 960 0
DWIDTH 7 0
BBX 3 8 2 0
BITMAP
40
E0
40
00
00
40
E0
40
ENDCHAR
STARTCHAR semicolon
ENCODING 59
SWIDTH 960 0
DWIDTH 7 0
BBX 2 8 2 -1
BITMAP
C0
C0
00
00
C0
40
40
80
ENDCHAR
STARTCHAR less
ENCODING 60
SWIDTH 960 0
DWIDTH 7 0
BBX 5 9 1 0
BITMAP
08
10
20
40
80
40
20
10
08
ENDCHAR
STARTCHAR equal
ENCODING 61
SWIDTH 960 0
DWIDTH 7 0
BBX 6 4 0 3
BITMAP
FC
00
00
FC
ENDCHAR
STARTCHAR greater
ENCODING 62
SWIDTH 960 0
DWIDTH 7 0
BBX 5 9 1 0
BITMAP
80
40
20
10
08
10
20
40
80
ENDCHAR
STARTCHAR question
ENCODING 63
SWIDTH 960 0
DWIDTH 7 0
BBX 6 10 0 0
BITMAP
78
84
84
08
10
10
10
00
10
10
ENDCHAR
STARTCHAR at
ENCODING 64
SWIDTH 960 0
DWIDTH 7 0
BBX 6 10 0 0
BITMAP
38
44
9C
A4
A4
A4
A4
9C
40
3C
ENDCHAR
STARTCHAR A
ENCODING 65
SWIDTH 960 0
DWIDTH 7 0
BBX 6 10 0 0
BITMAP
30
48
84
84
84
FC
84
84
84
84
ENDCHAR
STARTCHAR B
ENCODING 66
SWIDTH 960 0
DWIDTH 7 0
BBX 6 10 0 0
BITMAP
F0
88
84
88
F0
88
84
84
88
F0
ENDCHAR
STARTCHAR C
ENCODING 67
SWIDTH 960 0
DWIDTH 7 0
BBX 6 10 0 0
BITMAP
78
84
84
80
80
80
80
84
84
78
ENDCHAR
STARTCHAR D
ENCODING 68
SWIDTH 960 0
DWIDTH 7 0
BBX 6 10 0 0
BITMAP
F0
88
84
84
84
84
84
84
88
F0
ENDCHAR
STARTCHAR E
ENCODING 69
SWIDTH 960 0
DWIDTH 7 0
BBX 6 10 0 0
BITMAP
FC
80
80
80
F0
80
80
80
80
FC
ENDCHAR
STARTCHAR F
ENCODING 70
SWIDTH 960 0
DWIDTH 7 0
BBX 6 10 0 0
BITMAP
FC
80
80
80
F0
80
80
80
80
80
ENDCHAR
STARTCHAR G
ENCODING 71
SWIDTH 960 0
DWIDTH 7 0
BBX 6 10 0 0
BITMAP
78
84
84
80
80
9C
84
84
8C
74
ENDCHAR
STARTCHAR H
ENCODING 72
SWIDTH 960 0
DWIDTH 7 0
BBX 6 10 0 0
BITMAP
84
84
84
84
FC
84
84
84
84
84
ENDCHAR
STARTCHAR I
ENCODING 73
SWIDTH 960 0
DWIDTH 7 0
BBX 5 10 1 0
BITMAP
F8
20
20
20
20
20
20
20
20
F8
ENDCHAR
STARTCHAR J
ENCODING 74
SWIDTH 960 0
DWIDTH 7 0
BBX 6 10 0 0
BITMAP
1C
08
08
08
08
08
08
88
88
70
ENDCHAR
STARTCHAR K
ENCODING 75
SWIDTH 960 0
DWIDTH 7 0
BBX 6 10 0 0
BITMAP
84
88
90
A0
C0
A0
90
88
84
84
ENDCHAR
STARTCHAR L
ENCODING 76
SWIDTH 960 0
DWIDTH 7 0
BBX 6 10 0 0
BITMAP
80
80
80
80
80
80
80
80
80
FC
ENDCHAR
STARTCHAR M
ENCODING 77
SWIDTH 960 0
DWIDTH 7 0
BBX 6 10 0 0
BITMAP
84
CC
CC
B4
B4
84
84
84
84
84
ENDCHAR
STARTCHAR N
ENCODING 78
SWIDTH 960 0
DWIDTH 7 0
BBX 6 10 0 0
BITMAP
84
84
C4
C4
A4
94
8C
8C
84
84
ENDCHAR
STARTCHAR O
ENCODING 79
SWIDTH 960 0
DWIDTH 7 0
BBX 6 10 0 0
BITMAP
78
84
84
84
84
84
84
84
84
78
ENDCHAR
STARTCHAR P
ENCODING 80
SWIDTH 960 0
DWIDTH 7 0
BBX 6 10 0 0
BITMAP
F8
84
84
84
84
F8
80
80
80
80
ENDCHAR
STARTCHAR Q
ENCODING 81
SWIDTH 960 0
DWIDTH 7 0
BBX 6 12 0 -2
BITMAP
78
84
84
84
84
84
E4
94
8C
78
08
04
ENDCHAR
STARTCHAR R
ENCODING 82
SWIDTH 960 0
DWIDTH 7 0
BBX 6 10 0 0
BITMAP
F8
84
84
84
84
F8
90
88
84
84
ENDCHAR
STARTCHAR S
ENCODING 83
SWIDTH 960 0
DWIDTH 7 0
BBX 6 10 0 0
BITMAP
78
84
84
80
60
18
04
84
84
78
ENDCHAR
STARTCHAR T
ENCODING 84
SWIDTH 960 0
DWIDTH 7 0
BBX 7 10 0 0
BITMAP
FE
10
10
10
10
10
10
10
10
10
ENDCHAR
STARTCHAR U
ENCODING 85
SWIDTH 960 0
DWIDTH 7 0
BBX 6 10 0 0
BITMAP
84
84
84
84
84
84
84
84
84
78
ENDCHAR
STARTCHAR V
ENCODING 86
SWIDTH 960 0
DWIDTH 7 0
BBX 6 10 0 0
BITMAP
84
84
84
84
48
48
48
30
30
30
ENDCHAR
STARTCHAR W
ENCODING 87
SWIDTH 960 0
DWIDTH 7 0
BBX 5 10 1 0
BITMAP
88
88
88
88
88
88
A8
A8
A8
50
ENDCHAR
STARTCHAR X
ENCODING 88
SWIDTH 960 0
DWIDTH 7 0
BBX 6 10 0 0
BITMAP
84
84
48
48
30
30
48
48
84
84
ENDCHAR
STARTCHAR Y
ENCODING 89
SWIDTH 960 0
DWIDTH 7 0
BBX 5 10 1 0
BITMAP
88
88
88
50
50
20
20
20
20
20
ENDCHAR
STARTCHAR Z
ENCODING 90
SWIDTH 960 0
DWIDTH 7 0
BBX 6 10 0 0
BITMAP
FC
04
08
10
10
20
40
40
80
FC
ENDCHAR
STARTCHAR bracketleft
ENCODING 91
SWIDTH 960 0
DWIDTH 7 0
BBX 4 13 2 -2
BITMAP
F0
80
80
80
80
80
80
80
80
80
80
80
F0
ENDCHAR
STARTCHAR backslash
ENCODING 92
SWIDTH 960 0
DWIDTH 7 0
BBX 6 13 0 -2
BITMAP
80
80
40
40
20
20
20
10
10
08
08
04
04
ENDCHAR
STARTCHAR bracketright
ENCODING 93
SWIDTH 960 0
DWIDTH 7 0
BBX 4 13 1 -2
BITMAP
F0
10
10
10
10
10
10
10
10
10
10
10
F0
ENDCHAR
STARTCHAR asciicircum
ENCODING 94
SWIDTH 960 0
DWIDTH 7 0
BBX 6 3 0 8
BITMAP
30
48
84
ENDCHAR
STARTCHAR underscore
ENCODING 95
SWIDTH 960 0
DWIDTH 7 0
BBX 6 1 0 -2
BITMAP
FC
ENDCHAR
STARTCHAR grave
ENCODING 96
SWIDTH 960 0
DWIDTH 7 0
BBX 3 3 2 8
BITMAP
80
40
20
ENDCHAR
STARTCHAR a
ENCODING 97
SWIDTH 960 0
DWIDTH 7 0
BBX 6 7 0 0
BITMAP
78
84
04
7C
84
84
7C
ENDCHAR
STARTCHAR b
ENCODING 98
SWIDTH 960 0
DWIDTH 7 0
BBX 6 10 0 0
BITMAP
80
80
80
B8
C4
84
84
84
C4
B8
ENDCHAR
STARTCHAR c
ENCODING 99
SWIDTH 960 0
DWIDTH 7 0
BBX 6 7 0 0
BITMAP
78
84
80
80
80
84
78
ENDCHAR
STARTCHAR d
ENCODING 100
SWIDTH 960 0
DWIDTH 7 0
BBX 6 10 0 0
BITMAP
04
04
04
74
8C
84
84
84
8C
74
ENDCHAR
STARTCHAR e
ENCODING 101
SWIDTH 960 0
DWIDTH 7 0
BBX 6 7 0 0
BITMAP
78
84
84
FC
80
84
78
ENDCHAR
STARTCHAR f
ENCODING 102
SWIDTH 960 0
DWIDTH 7 0
BBX 6 10 0 0
BITMAP
18
24
20
20
F8
20
20
20
20
20
ENDCHAR
STARTCHAR g
ENCODING 103
SWIDTH 960 0
DWIDTH 7 0
BBX 6 9 0 -2
BITMAP
74
88
88
88
70
40
B8
84
78
ENDCHAR
STARTCHAR h
ENCODING 104
SWIDTH 960 0
DWIDTH 7 0
BBX 6 10 0 0
BITMAP
80
80
80
B8
C4
84
84
84
84
84
ENDCHAR
STARTCHAR i
ENCODING 105
SWIDTH 960 0
DWIDTH 7 0
BBX 5 10 1 0
BITMAP
20
20
00
60
20
20
20
20
20
F8
ENDCHAR
STARTCHAR j
ENCODING 106
SWIDTH 960 0
DWIDTH 7 0
BBX 5 12 1 -2
BITMAP
08
08
00
18
08
08
08
08
08
88
88
70
ENDCHAR
STARTCHAR k
ENCODING 107
SWIDTH 960 0
DWIDTH 7 0
BBX 6 10 0 0
BITMAP
80
80
80
88
90
A0
E0
90
88
84
ENDCHAR
STARTCHAR l
ENCODING 108
SWIDTH 960 0
DWIDTH 7 0
BBX 5 10 1 0
BITMAP
60
20
20
20
20
20
20
20
20
F8
ENDCHAR
STARTCHAR m
ENCODING 109
SWIDTH 960 0
DWIDTH 7 0
BBX 5 7 1 0
BITMAP
D0
A8
A8
A8
A8
A8
88
ENDCHAR
STARTCHAR n
ENCODING 110
SWIDTH 960 0
DWIDTH 7 0
BBX 6 7 0 0
BITMAP
B8
C4
84
84
84
84
84
ENDCHAR
STARTCHAR o
ENCODING 111
SWIDTH 960 0
DWIDTH 7 0
BBX 6 7 0 0
BITMAP
78
84
84
84
84
84
78
ENDCHAR
STARTCHAR p
ENCODING 112
SWIDTH 960 0
DWIDTH 7 0
BBX 6 9 0 -2
BITMAP
B8
C4
84
84
84
C4
B8
80
80
ENDCHAR
STARTCHAR q
ENCODING 113
SWIDTH 960 0
DWIDTH 7 0
BBX 6 9 0 -2
BITMAP
74
8C
84
84
84
8C
74
04
04
ENDCHAR
STARTCHAR r
ENCODING 114
SWIDTH 960 0
DWIDTH 7 0
BBX 6 7 0 0
BITMAP
B8
C4
84
80
80
80
80
ENDCHAR
STARTCHAR s
ENCODING 115
SWIDTH 960 0
DWIDTH 7 0
BBX 6 7 0 0
BITMAP
78
84
40
30
08
84
78
ENDCHAR
STARTCHAR t
ENCODING 116
SWIDTH 960 0
DWIDTH 7 0
BBX 6 10 0 0
BITMAP
20
20
20
F8
20
20
20
20
24
18
ENDCHAR
STARTCHAR u
ENCODING 117
SWIDTH 960 0
DWIDTH 7 0
BBX 6 7 0 0
BITMAP
84
84
84
84
84
8C
74
ENDCHAR
STARTCHAR v
ENCODING 118
SWIDTH 960 0
DWIDTH 7 0
BBX 5 7 1 0
BITMAP
88
88
88
50
50
20
20
ENDCHAR
STARTCHAR w
ENCODING 119
SWIDTH 960 0
DWIDTH 7 0
BBX 5 7 1 0
BITMAP
88
88
A8
A8
A8
A8
50
ENDCHAR
STARTCHAR x
ENCODING 120
SWIDTH 960 0
DWIDTH 7 0
BBX 6 7 0 0
BITMAP
84
84
48
30
48
84
84
ENDCHAR
STARTCHAR y
ENCODING 121
SWIDTH 960 0
DWIDTH 7 0
BBX 6 9 0 -2
BITMAP
84
84
84
84
8C
74
04
84
78
ENDCHAR
STARTCHAR z
ENCODING 122
SWIDTH 960 0
DWIDTH 7 0
BBX 6 7 0 0
BITMAP
FC
08
10
20
20
40
FC
ENDCHAR
STARTCHAR braceleft
ENCODING 123
SWIDTH 960 0
DWIDTH 7 0
BBX 4 13 2 -2
BITMAP
30
40
40
40
40
40
80
40
40
40
40
40
30
ENDCHAR
STARTCHAR bar
ENCODING 124
SWIDTH 960 0
DWIDTH 7 0
BBX 1 13 3 -2
BITMAP
80
80
80
80
80
80
80
80
80
80
80
80
80
ENDCHAR
STARTCHAR braceright
ENCODING 125
SWIDTH 960 0
DWIDTH 7 0
BBX 4 13 1 -2
BITMAP
C0
20
20
20
20
20
10
20
20
20
20
20
C0
ENDCHAR
STARTCHAR asciitilde
ENCODING 126
SWIDTH 960 0
DWIDTH 7 0
BBX 6 4 0 7
BITMAP
40
A4
94
08
ENDCHAR
STARTCHAR uni0082
ENCODING 130
SWIDTH 960 0
DWIDTH 7 0
BBX 2 4 2 -2
BITMAP
C0
40
40
80
ENDCHAR
STARTCHAR space
ENCODING 160
SWIDTH 960 0
DWIDTH 7 0
BBX 1 1 6 -2
BITMAP
00
ENDCHAR
STARTCHAR exclamdown
ENCODING 161
SWIDTH 960 0
DWIDTH 7 0
BBX 1 10 3 0
BITMAP
80
80
00
80
80
80
80
80
80
80
ENDCHAR
STARTCHAR cent
ENCODING 162
SWIDTH 960 0
DWIDTH 7 0
BBX 6 9 0 -1
BITMAP
20
78
A4
A0
A0
A0
A4
78
20
ENDCHAR
STARTCHAR sterling
ENCODING 163
SWIDTH 960 0
DWIDTH 7 0
BBX 5 9 1 0
BITMAP
30
48
40
40
F0
40
40
F0
48
ENDCHAR
STARTCHAR currency
ENCODING 164
SWIDTH 960 0
DWIDTH 7 0
BBX 6 6 0 2
BITMAP
84
78
48
48
78
84
ENDCHAR
STARTCHAR yen
ENCODING 165
SWIDTH 960 0
DWIDTH 7 0
BBX 5 10 1 0
BITMAP
88
50
50
20
F8
20
F8
20
20
20
ENDCHAR
STARTCHAR brokenbar
ENCODING 166
SWIDTH 960 0
DWIDTH 7 0
BBX 1 10 3 0
BITMAP
80
80
80
80
00
00
80
80
80
80
ENDCHAR
STARTCHAR section
ENCODING 167
SWIDTH 960 0
DWIDTH 7 0
BBX 6 11 0 0
BITMAP
78
84
40
30
48
84
48
30
08
84
78
ENDCHAR
STARTCHAR dieresis
ENCODING 168
SWIDTH 960 0
DWIDTH 7 0
BBX 4 2 1 9
BITMAP
90
90
ENDCHAR
STARTCHAR copyright
ENCODING 169
SWIDTH 960 0
DWIDTH 7 0
BBX 6 11 0 0
BITMAP
78
84
B4
CC
C4
C4
C4
CC
B4
84
78
ENDCHAR
STARTCHAR ordfeminine
ENCODING 170
SWIDTH 960 0
DWIDTH 7 0
BBX 5 8 1 3
BITMAP
70
88
78
88
98
68
00
F8
ENDCHAR
STARTCHAR guillemotleft
ENCODING 171
SWIDTH 960 0
DWIDTH 7 0
BBX 6 7 0 0
BITMAP
14
28
50
A0
50
28
14
ENDCHAR
STARTCHAR logicalnot
ENCODING 172
SWIDTH 960 0
DWIDTH 7 0
BBX 5 4 1 0
BITMAP
F8
08
08
08
ENDCHAR
STARTCHAR hyphen
ENCODING 173
SWIDTH 960 0
DWIDTH 7 0
BBX 4 1 1 4
BITMAP
F0
ENDCHAR
STARTCHAR registered
ENCODING 174
SWIDTH 960 0
DWIDTH 7 0
BBX 6 11 0 0
BITMAP
78
84
F4
CC
CC
F4
CC
CC
CC
84
78
ENDCHAR
STARTCHAR macron
ENCODING 175
SWIDTH 960 0
DWIDTH 7 0
BBX 5 1 1 9
BITMAP
F8
ENDCHAR
STARTCHAR degree
ENCODING 176
SWIDTH 960 0
DWIDTH 7 0
BBX 4 4 1 7
BITMAP
60
90
90
60
ENDCHAR
STARTCHAR plusminus
ENCODING 177
SWIDTH 960 0
DWIDTH 7 0
BBX 5 6 1 0
BITMAP
20
20
F8
20
20
F8
ENDCHAR
STARTCHAR twosuperior
ENCODING 178
SWIDTH 960 0
DWIDTH 7 0
BBX 4 7 1 4
BITMAP
60
90
10
20
40
80
F0
ENDCHAR
STARTCHAR threesuperior
ENCODING 179
SWIDTH 960 0
DWIDTH 7 0
BBX 4 7 1 4
BITMAP
60
90
10
60
10
90
60
ENDCHAR
STARTCHAR acute
ENCODING 180
SWIDTH 960 0
DWIDTH 7 0
BBX 3 3 2 8
BITMAP
20
40
80
ENDCHAR
STARTCHAR mu
ENCODING 181
SWIDTH 960 0
DWIDTH 7 0
BBX 5 8 1 -2
BITMAP
88
88
88
88
D8
A8
80
80
ENDCHAR
STARTCHAR paragraph
ENCODING 182
SWIDTH 960 0
DWIDTH 7 0
BBX 5 12 1 -2
BITMAP
78
A8
A8
A8
A8
68
28
28
28
28
28
38
ENDCHAR
STARTCHAR periodcentered
ENCODING 183
SWIDTH 960 0
DWIDTH 7 0
BBX 1 1 3 5
BITMAP
80
ENDCHAR
STARTCHAR cedilla
ENCODING 184
SWIDTH 960 0
DWIDTH 7 0
BBX 2 3 2 -2
BITMAP
40
40
80
ENDCHAR
STARTCHAR onesuperior
ENCODING 185
SWIDTH 960 0
DWIDTH 7 0
BBX 3 7 2 4
BITMAP
40
C0
40
40
40
40
E0
ENDCHAR
STARTCHAR ordmasculine
ENCODING 186
SWIDTH 960 0
DWIDTH 7 0
BBX 4 6 1 4
BITMAP
60
90
90
60
00
F0
ENDCHAR
STARTCHAR guillemotright
ENCODING 187
SWIDTH 960 0
DWIDTH 7 0
BBX 6 7 0 0
BITMAP
A0
50
28
14
28
50
A0
ENDCHAR
STARTCHAR onequarter
ENCODING 188
SWIDTH 960 0
DWIDTH 7 0
BBX 6 10 0 0
BITMAP
40
C4
48
48
50
24
2C
54
9C
84
ENDCHAR
STARTCHAR onehalf
ENCODING 189
SWIDTH 960 0
DWIDTH 7 0
BBX 6 10 0 0
BITMAP
40
C4
48
48
50
28
34
44
88
9C
ENDCHAR
STARTCHAR threequarters
ENCODING 190
SWIDTH 960 0
DWIDTH 7 0
BBX 6 10 0 0
BITMAP
C4
24
48
30
D0
24
4C
54
9C
04
ENDCHAR
STARTCHAR questiondown
ENCODING 191
SWIDTH 960 0
DWIDTH 7 0
BBX 6 11 0 -2
BITMAP
20
20
00
20
20
20
20
40
84
84
78
ENDCHAR
STARTCHAR Agrave
ENCODING 192
SWIDTH 960 0
DWIDTH 7 0
BBX 6 12 0 0
BITMAP
20
10
00
30
48
84
84
FC
84
84
84
84
ENDCHAR
STARTCHAR Aacute
ENCODING 193
SWIDTH 960 0
DWIDTH 7 0
BBX 6 12 0 0
BITMAP
10
20
00
30
48
84
84
FC
84
84
84
84
ENDCHAR
STARTCHAR Acircumflex
ENCODING 194
SWIDTH 960 0
DWIDTH 7 0
BBX 6 12 0 0
BITMAP
30
48
00
30
48
84
84
FC
84
84
84
84
ENDCHAR
STARTCHAR Atilde
ENCODING 195
SWIDTH 960 0
DWIDTH 7 0
BBX 6 12 0 0
BITMAP
64
98
00
30
48
84
84
FC
84
84
84
84
ENDCHAR
STARTCHAR Adieresis
ENCODING 196
SWIDTH 960 0
DWIDTH 7 0
BBX 6 11 0 0
BITMAP
48
00
30
48
84
84
FC
84
84
84
84
ENDCHAR
STARTCHAR Aring
ENCODING 197
SWIDTH 960 0
DWIDTH 7 0
BBX 6 11 0 0
BITMAP
30
48
30
48
84
84
FC
84
84
84
84
ENDCHAR
STARTCHAR AE
ENCODING 198
SWIDTH 960 0
DWIDTH 7 0
BBX 6 10 0 0
BITMAP
3C
50
90
90
FC
90
90
90
90
9C
ENDCHAR
STARTCHAR Ccedilla
ENCODING 199
SWIDTH 960 0
DWIDTH 7 0
BBX 6 12 0 -2
BITMAP
78
84
84
80
80
80
80
84
84
78
10
20
ENDCHAR
STARTCHAR Egrave
ENCODING 200
SWIDTH 960 0
DWIDTH 7 0
BBX 6 12 0 0
BITMAP
20
10
00
FC
80
80
80
F8
80
80
80
FC
ENDCHAR
STARTCHAR Eacute
ENCODING 201
SWIDTH 960 0
DWIDTH 7 0
BBX 6 12 0 0
BITMAP
10
20
00
FC
80
80
80
F8
80
80
80
FC
ENDCHAR
STARTCHAR Ecircumflex
ENCODING 202
SWIDTH 960 0
DWIDTH 7 0
BBX 6 12 0 0
BITMAP
30
48
00
FC
80
80
80
F8
80
80
80
FC
ENDCHAR
STARTCHAR Edieresis
ENCODING 203
SWIDTH 960 0
DWIDTH 7 0
BBX 6 11 0 0
BITMAP
48
00
FC
80
80
80
F8
80
80
80
FC
ENDCHAR
STARTCHAR Igrave
ENCODING 204
SWIDTH 960 0
DWIDTH 7 0
BBX 5 12 1 0
BITMAP
40
20
00
F8
20
20
20
20
20
20
20
F8
ENDCHAR
STARTCHAR Iacute
ENCODING 205
SWIDTH 960 0
DWIDTH 7 0
BBX 5 12 1 0
BITMAP
10
20
00
F8
20
20
20
20
20
20
20
F8
ENDCHAR
STARTCHAR Icircumflex
ENCODING 206
SWIDTH 960 0
DWIDTH 7 0
BBX 5 12 1 0
BITMAP
20
50
00
F8
20
20
20
20
20
20
20
F8
ENDCHAR
STARTCHAR Idieresis
ENCODING 207
SWIDTH 960 0
DWIDTH 7 0
BBX 5 11 1 0
BITMAP
50
00
F8
20
20
20
20
20
20
20
F8
ENDCHAR
STARTCHAR Eth
ENCODING 208
SWIDTH 960 0
DWIDTH 7 0
BBX 7 10 0 0
BITMAP
78
44
42
42
F2
42
42
42
44
78
ENDCHAR
STARTCHAR Ntilde
ENCODING 209
SWIDTH 960 0
DWIDTH 7 0
BBX 6 12 0 0
BITMAP
64
98
00
C4
C4
A4
A4
94
94
94
8C
8C
ENDCHAR
STARTCHAR Ograve
ENCODING 210
SWIDTH 960 0
DWIDTH 7 0
BBX 6 12 0 0
BITMAP
20
10
00
78
84
84
84
84
84
84
84
78
ENDCHAR
STARTCHAR Oacute
ENCODING 211
SWIDTH 960 0
DWIDTH 7 0
BBX 6 12 0 0
BITMAP
10
20
00
78
84
84
84
84
84
84
84
78
ENDCHAR
STARTCHAR Ocircumflex
ENCODING 212
SWIDTH 960 0
DWIDTH 7 0
BBX 6 12 0 0
BITMAP
30
48
00
78
84
84
84
84
84
84
84
78
ENDCHAR
STARTCHAR Otilde
ENCODING 213
SWIDTH 960 0
DWIDTH 7 0
BBX 6 12 0 0
BITMAP
64
98
00
78
84
84
84
84
84
84
84
78
ENDCHAR
STARTCHAR Odieresis
ENCODING 214
SWIDTH 960 0
DWIDTH 7 0
BBX 6 11 0 0
BITMAP
48
00
78
84
84
84
84
84
84
84
78
ENDCHAR
STARTCHAR multiply
ENCODING 215
SWIDTH 960 0
DWIDTH 7 0
BBX 7 7 0 0
BITMAP
82
44
28
10
28
44
82
ENDCHAR
STARTCHAR Oslash
ENCODING 216
SWIDTH 960 0
DWIDTH 7 0
BBX 6 14 0 -2
BITMAP
04
04
78
8C
94
94
94
A4
A4
A4
C4
78
80
80
ENDCHAR
STARTCHAR Ugrave
ENCODING 217
SWIDTH 960 0
DWIDTH 7 0
BBX 6 12 0 0
BITMAP
20
10
00
84
84
84
84
84
84
84
84
78
ENDCHAR
STARTCHAR Uacute
ENCODING 218
SWIDTH 960 0
DWIDTH 7 0
BBX 6 12 0 0
BITMAP
10
20
00
84
84
84
84
84
84
84
84
78
ENDCHAR
STARTCHAR Ucircumflex
ENCODING 219
SWIDTH 960 0
DWIDTH 7 0
BBX 6 12 0 0
BITMAP
30
48
00
84
84
84
84
84
84
84
84
78
ENDCHAR
STARTCHAR Udieresis
ENCODING 220
SWIDTH 960 0
DWIDTH 7 0
BBX 6 11 0 0
BITMAP
48
00
84
84
84
84
84
84
84
84
78
ENDCHAR
STARTCHAR Yacute
ENCODING 221
SWIDTH 960 0
DWIDTH 7 0
BBX 5 12 1 0
BITMAP
10
20
00
88
88
50
50
20
20
20
20
20
ENDCHAR
STARTCHAR Thorn
ENCODING 222
SWIDTH 960 0
DWIDTH 7 0
BBX 6 10 0 0
BITMAP
80
80
F8
84
84
84
84
F8
80
80
ENDCHAR
STARTCHAR germandbls
ENCODING 223
SWIDTH 960 0
DWIDTH 7 0
BBX 6 10 0 0
BITMAP
30
48
48
48
70
48
44
44
44
F8
ENDCHAR
STARTCHAR agrave
ENCODING 224
SWIDTH 960 0
DWIDTH 7 0
BBX 6 10 0 0
BITMAP
20
10
00
78
84
04
7C
84
84
7C
ENDCHAR
STARTCHAR aacute
ENCODING 225
SWIDTH 960 0
DWIDTH 7 0
BBX 6 10 0 0
BITMAP
08
10
00
78
84
04
7C
84
84
7C
ENDCHAR
STARTCHAR acircumflex
ENCODING 226
SWIDTH 960 0
DWIDTH 7 0
BBX 6 10 0 0
BITMAP
30
48
00
78
84
04
7C
84
84
7C
ENDCHAR
STARTCHAR atilde
ENCODING 227
SWIDTH 960 0
DWIDTH 7 0
BBX 6 10 0 0
BITMAP
64
98
00
78
84
04
7C
84
84
7C
ENDCHAR
STARTCHAR adieresis
ENCODING 228
SWIDTH 960 0
DWIDTH 7 0
BBX 6 9 0 0
BITMAP
48
00
78
84
04
7C
84
84
7C
ENDCHAR
STARTCHAR aring
ENCODING 229
SWIDTH 960 0
DWIDTH 7 0
BBX 6 11 0 0
BITMAP
30
48
30
00
78
84
04
7C
84
84
7C
ENDCHAR
STARTCHAR ae
ENCODING 230
SWIDTH 960 0
DWIDTH 7 0
BBX 7 7 0 0
BITMAP
7C
92
32
5E
90
92
7C
ENDCHAR
STARTCHAR ccedilla
ENCODING 231
SWIDTH 960 0
DWIDTH 7 0
BBX 6 9 0 -2
BITMAP
78
84
80
80
80
84
78
10
20
ENDCHAR
STARTCHAR egrave
ENCODING 232
SWIDTH 960 0
DWIDTH 7 0
BBX 6 10 0 0
BITMAP
20
10
00
78
84
84
FC
80
84
78
ENDCHAR
STARTCHAR eacute
ENCODING 233
SWIDTH 960 0
DWIDTH 7 0
BBX 6 10 0 0
BITMAP
10
20
00
78
84
84
FC
80
84
78
ENDCHAR
STARTCHAR ecircumflex
ENCODING 234
SWIDTH 960 0
DWIDTH 7 0
BBX 6 10 0 0
BITMAP
30
48
00
78
84
84
FC
80
84
78
ENDCHAR
STARTCHAR edieresis
ENCODING 235
SWIDTH 960 0
DWIDTH 7 0
BBX 6 9 0 0
BITMAP
48
00
78
84
84
FC
80
84
78
ENDCHAR
STARTCHAR igrave
ENCODING 236
SWIDTH 960 0
DWIDTH 7 0
BBX 5 10 1 0
BITMAP
40
20
00
60
20
20
20
20
20
F8
ENDCHAR
STARTCHAR iacute
ENCODING 237
SWIDTH 960 0
DWIDTH 7 0
BBX 5 10 1 0
BITMAP
10
20
00
60
20
20
20
20
20
F8
ENDCHAR
STARTCHAR icircumflex
ENCODING 238
SWIDTH 960 0
DWIDTH 7 0
BBX 5 10 1 0
BITMAP
60
90
00
60
20
20
20
20
20
F8
ENDCHAR
STARTCHAR idieresis
ENCODING 239
SWIDTH 960 0
DWIDTH 7 0
BBX 5 9 1 0
BITMAP
50
00
60
20
20
20
20
20
F8
ENDCHAR
STARTCHAR eth
ENCODING 240
SWIDTH 960 0
DWIDTH 7 0
BBX 5 11 1 0
BITMAP
50
20
50
08
78
88
88
88
88
88
70
ENDCHAR
STARTCHAR ntilde
ENCODING 241
SWIDTH 960 0
DWIDTH 7 0
BBX 6 10 0 0
BITMAP
64
98
00
B8
C4
84
84
84
84
84
ENDCHAR
STARTCHAR ograve
ENCODING 242
SWIDTH 960 0
DWIDTH 7 0
BBX 6 10 0 0
BITMAP
20
10
00
78
84
84
84
84
84
78
ENDCHAR
STARTCHAR oacute
ENCODING 243
SWIDTH 960 0
DWIDTH 7 0
BBX 6 10 0 0
BITMAP
10
20
00
78
84
84
84
84
84
78
ENDCHAR
STARTCHAR ocircumflex
ENCODING 244
SWIDTH 960 0
DWIDTH 7 0
BBX 6 10 0 0
BITMAP
30
48
00
78
84
84
84
84
84
78
ENDCHAR
STARTCHAR otilde
ENCODING 245
SWIDTH 960 0
DWIDTH 7 0
BBX 6 10 0 0
BITMAP
64
98
00
78
84
84
84
84
84
78
ENDCHAR
STARTCHAR odieresis
ENCODING 246
SWIDTH 960 0
DWIDTH 7 0
BBX 6 9 0 0
BITMAP
48
00
78
84
84
84
84
84
78
ENDCHAR
STARTCHAR divide
ENCODING 247
SWIDTH 960 0
DWIDTH 7 0
BBX 6 5 0 0
BITMAP
30
00
FC
00
30
ENDCHAR
STARTCHAR oslash
ENCODING 248
SWIDTH 960 0
DWIDTH 7 0
BBX 6 11 0 -2
BITMAP
04
08
78
94
94
A4
A4
C4
78
80
80
ENDCHAR
STARTCHAR ugrave
ENCODING 249
SWIDTH 960 0
DWIDTH 7 0
BBX 6 10 0 0
BITMAP
20
10
00
84
84
84
84
84
8C
74
ENDCHAR
STARTCHAR uacute
ENCODING 250
SWIDTH 960 0
DWIDTH 7 0
BBX 6 10 0 0
BITMAP
10
20
00
84
84
84
84
84
8C
74
ENDCHAR
STARTCHAR ucircumflex
ENCODING 251
SWIDTH 960 0
DWIDTH 7 0
BBX 6 10 0 0
BITMAP
30
48
00
84
84
84
84
84
8C
74
ENDCHAR
STARTCHAR udieresis
ENCODING 252
SWIDTH 960 0
DWIDTH 7 0
BBX 6 9 0 0
BITMAP
48
00
84
84
84
84
84
8C
74
ENDCHAR
STARTCHAR yacute
ENCODING 253
SWIDTH 960 0
DWIDTH 7 0
BBX 6 12 0 -2
BITMAP
10
20
00
84
84
44
48
28
38
10
90
60
ENDCHAR
STARTCHAR thorn
ENCODING 254
SWIDTH 960 0
DWIDTH 7 0
BBX 6 12 0 -2
BITMAP
80
80
80
B8
C4
84
84
84
C4
B8
80
80
ENDCHAR
STARTCHAR ydieresis
ENCODING 255
SWIDTH 960 0
DWIDTH 7 0
BBX 6 11 0 -2
BITMAP
48
00
84
84
44
48
28
38
10
90
60
ENDCHAR
STARTCHAR Amacron
ENCODING 256
SWIDTH 960 0
DWIDTH 7 0
BBX 6 11 0 0
BITMAP
78
00
30
48
84
84
84
FC
84
84
84
ENDCHAR
STARTCHAR amacron
ENCODING 257
SWIDTH 960 0
DWIDTH 7 0
BBX 6 9 0 0
BITMAP
78
00
78
84
04
7C
84
84
7C
ENDCHAR
STARTCHAR Abreve
ENCODING 258
SWIDTH 960 0
DWIDTH 7 0
BBX 6 12 0 0
BITMAP
84
78
00
30
48
84
84
84
FC
84
84
84
ENDCHAR
STARTCHAR abreve
ENCODING 259
SWIDTH 960 0
DWIDTH 7 0
BBX 6 10 0 0
BITMAP
84
78
00
78
84
04
7C
84
84
7C
ENDCHAR
STARTCHAR Aogonek
ENCODING 260
SWIDTH 960 0
DWIDTH 7 0
BBX 7 12 0 -2
BITMAP
30
48
84
84
84
FC
84
84
84
84
08
06
ENDCHAR
STARTCHAR aogonek
ENCODING 261
SWIDTH 960 0
DWIDTH 7 0
BBX 7 9 0 -2
BITMAP
78
84
04
7C
84
84
7C
08
06
ENDCHAR
STARTCHAR Cacute
ENCODING 262
SWIDTH 960 0
DWIDTH 7 0
BBX 6 12 0 0
BITMAP
10
20
00
78
84
84
80
80
80
84
84
78
ENDCHAR
STARTCHAR cacute
ENCODING 263
SWIDTH 960 0
DWIDTH 7 0
BBX 6 10 0 0
BITMAP
10
20
00
78
84
80
80
80
84
78
ENDCHAR
STARTCHAR Ccircumflex
ENCODING 264
SWIDTH 960 0
DWIDTH 7 0
BBX 6 12 0 0
BITMAP
30
48
00
78
84
84
80
80
80
84
84
78
ENDCHAR
STARTCHAR ccircumflex
ENCODING 265
SWIDTH 960 0
DWIDTH 7 0
BBX 6 10 0 0
BITMAP
30
48
00
78
84
80
80
80
84
78
ENDCHAR
STARTCHAR Cdotaccent
ENCODING 266
SWIDTH 960 0
DWIDTH 7 0
BBX 6 11 0 0
BITMAP
30
00
78
84
84
80
80
80
84
84
78
ENDCHAR
STARTCHAR cdotaccent
ENCODING 267
SWIDTH 960 0
DWIDTH 7 0
BBX 6 9 0 0
BITMAP
30
00
78
84
80
80
80
84
78
ENDCHAR
STARTCHAR Ccaron
ENCODING 268
SWIDTH 960 0
DWIDTH 7 0
BBX 6 12 0 0
BITMAP
48
30
00
78
84
84
80
80
80
84
84
78
ENDCHAR
STARTCHAR ccaron
ENCODING 269
SWIDTH 960 0
DWIDTH 7 0
BBX 6 10 0 0
BITMAP
48
30
00
78
84
80
80
80
84
78
ENDCHAR
STARTCHAR Dcaron
ENCODING 270
SWIDTH 960 0
DWIDTH 7 0
BBX 6 12 0 0
BITMAP
48
30
00
F0
88
84
84
84
84
84
88
F0
ENDCHAR
STARTCHAR dcaron
ENCODING 271
SWIDTH 960 0
DWIDTH 7 0
BBX 6 11 0 0
BITMAP
48
30
04
04
74
8C
84
84
84
8C
74
ENDCHAR
STARTCHAR Dcroat
ENCODING 272
SWIDTH 960 0
DWIDTH 7 0
BBX 7 10 0 0
BITMAP
78
44
42
42
E2
42
42
42
44
78
ENDCHAR
STARTCHAR dcroat
ENCODING 273
SWIDTH 960 0
DWIDTH 7 0
BBX 7 10 0 0
BITMAP
04
3E
04
74
8C
84
84
84
8C
74
ENDCHAR
STARTCHAR Emacron
ENCODING 274
SWIDTH 960 0
DWIDTH 7 0
BBX 6 11 0 0
BITMAP
78
00
FC
80
80
80
F0
80
80
80
FC
ENDCHAR
STARTCHAR emacron
ENCODING 275
SWIDTH 960 0
DWIDTH 7 0
BBX 6 9 0 0
BITMAP
78
00
78
84
84
FC
80
84
78
ENDCHAR
STARTCHAR Ebreve
ENCODING 276
SWIDTH 960 0
DWIDTH 7 0
BBX 6 12 0 0
BITMAP
84
78
00
FC
80
80
80
F0
80
80
80
FC
ENDCHAR
STARTCHAR ebreve
ENCODING 277
SWIDTH 960 0
DWIDTH 7 0
BBX 6 10 0 0
BITMAP
84
78
00
78
84
84
FC
80
84
78
ENDCHAR
STARTCHAR Edotaccent
ENCODING 278
SWIDTH 960 0
DWIDTH 7 0
BBX 6 11 0 0
BITMAP
30
00
FC
80
80
80
F0
80
80
80
FC
ENDCHAR
STARTCHAR edotaccent
ENCODING 279
SWIDTH 960 0
DWIDTH 7 0
BBX 6 9 0 0
BITMAP
30
00
78
84
84
FC
80
84
78
ENDCHAR
STARTCHAR Eogonek
ENCODING 280
SWIDTH 960 0
DWIDTH 7 0
BBX 6 12 0 -2
BITMAP
FC
80
80
80
F0
80
80
80
80
FC
20
10
ENDCHAR
STARTCHAR eogonek
ENCODING 281
SWIDTH 960 0
DWIDTH 7 0
BBX 6 9 0 -2
BITMAP
78
84
84
FC
80
84
78
20
10
ENDCHAR
STARTCHAR Ecaron
ENCODING 282
SWIDTH 960 0
DWIDTH 7 0
BBX 6 12 0 0
BITMAP
48
30
00
FC
80
80
80
F0
80
80
80
FC
ENDCHAR
STARTCHAR ecaron
ENCODING 283
SWIDTH 960 0
DWIDTH 7 0
BBX 6 10 0 0
BITMAP
48
30
00
78
84
84
FC
80
84
78
ENDCHAR
STARTCHAR Gcircumflex
ENCODING 284
SWIDTH 960 0
DWIDTH 7 0
BBX 6 12 0 0
BITMAP
30
48
00
78
84
80
80
9C
84
84
8C
74
ENDCHAR
STARTCHAR gcircumflex
ENCODING 285
SWIDTH 960 0
DWIDTH 7 0
BBX 6 12 0 -2
BITMAP
30
48
00
74
88
88
88
70
40
B8
84
78
ENDCHAR
STARTCHAR Gbreve
ENCODING 286
SWIDTH 960 0
DWIDTH 7 0
BBX 6 12 0 0
BITMAP
44
38
00
78
84
80
80
9C
84
84
8C
74
ENDCHAR
STARTCHAR gbreve
ENCODING 287
SWIDTH 960 0
DWIDTH 7 0
BBX 6 12 0 -2
BITMAP
44
38
00
74
88
88
88
70
40
B8
84
78
ENDCHAR
STARTCHAR Gdotaccent
ENCODING 288
SWIDTH 960 0
DWIDTH 7 0
BBX 6 11 0 0
BITMAP
30
00
78
84
80
80
9C
84
84
8C
74
ENDCHAR
STARTCHAR gdotaccent
ENCODING 289
SWIDTH 960 0
DWIDTH 7 0
BBX 6 12 0 -2
BITMAP
20
20
00
74
88
88
88
70
40
B8
84
78
ENDCHAR
STARTCHAR Gcommaaccent
ENCODING 290
SWIDTH 960 0
DWIDTH 7 0
BBX 6 11 0 -2
BITMAP
78
84
80
80
9C
84
84
8C
74
10
60
ENDCHAR
STARTCHAR gcommaaccent
ENCODING 291
SWIDTH 960 0
DWIDTH 7 0
BBX 6 13 0 -2
BITMAP
10
20
30
00
74
88
88
88
70
40
B8
84
78
ENDCHAR
STARTCHAR Hcircumflex
ENCODING 292
SWIDTH 960 0
DWIDTH 7 0
BBX 6 12 0 0
BITMAP
30
48
00
84
84
84
84
FC
84
84
84
84
ENDCHAR
STARTCHAR hcircumflex
ENCODING 293
SWIDTH 960 0
DWIDTH 7 0
BBX 6 12 0 0
BITMAP
30
48
00
80
80
80
B8
C4
84
84
84
84
ENDCHAR
STARTCHAR Hbar
ENCODING 294
SWIDTH 960 0
DWIDTH 7 0
BBX 7 10 0 0
BITMAP
44
44
FE
44
7C
44
44
44
44
44
ENDCHAR
STARTCHAR hbar
ENCODING 295
SWIDTH 960 0
DWIDTH 7 0
BBX 7 10 0 0
BITMAP
40
F8
40
5C
62
42
42
42
42
42
ENDCHAR
STARTCHAR Itilde
ENCODING 296
SWIDTH 960 0
DWIDTH 7 0
BBX 6 12 0 0
BITMAP
64
98
00
F8
20
20
20
20
20
20
20
F8
ENDCHAR
STARTCHAR itilde
ENCODING 297
SWIDTH 960 0
DWIDTH 7 0
BBX 5 10 1 0
BITMAP
68
B0
00
60
20
20
20
20
20
F8
ENDCHAR
STARTCHAR Imacron
ENCODING 298
SWIDTH 960 0
DWIDTH 7 0
BBX 5 11 1 0
BITMAP
F8
00
F8
20
20
20
20
20
20
20
F8
ENDCHAR
STARTCHAR imacron
ENCODING 299
SWIDTH 960 0
DWIDTH 7 0
BBX 5 9 1 0
BITMAP
F8
00
60
20
20
20
20
20
F8
ENDCHAR
STARTCHAR Ibreve
ENCODING 300
SWIDTH 960 0
DWIDTH 7 0
BBX 5 12 1 0
BITMAP
88
70
00
F8
20
20
20
20
20
20
20
F8
ENDCHAR
STARTCHAR ibreve
ENCODING 301
SWIDTH 960 0
DWIDTH 7 0
BBX 5 10 1 0
BITMAP
88
70
00
60
20
20
20
20
20
F8
ENDCHAR
STARTCHAR Iogonek
ENCODING 302
SWIDTH 960 0
DWIDTH 7 0
BBX 5 12 1 -2
BITMAP
F8
20
20
20
20
20
20
20
20
F8
40
20
ENDCHAR
STARTCHAR iogonek
ENCODING 303
SWIDTH 960 0
DWIDTH 7 0
BBX 5 12 1 -2
BITMAP
20
20
00
60
20
20
20
20
20
F8
40
20
ENDCHAR
STARTCHAR Idotaccent
ENCODING 304
SWIDTH 960 0
DWIDTH 7 0
BBX 5 12 1 0
BITMAP
20
20
00
F8
20
20
20
20
20
20
20
F8
ENDCHAR
STARTCHAR dotlessi
ENCODING 305
SWIDTH 960 0
DWIDTH 7 0
BBX 5 7 1 0
BITMAP
60
20
20
20
20
20
F8
ENDCHAR
STARTCHAR IJ
ENCODING 306
SWIDTH 960 0
DWIDTH 7 0
BBX 7 10 0 0
BITMAP
8E
84
84
84
84
84
84
A4
A4
98
ENDCHAR
STARTCHAR ij
ENCODING 307
SWIDTH 960 0
DWIDTH 7 0
BBX 6 12 0 -2
BITMAP
84
84
00
8C
84
84
84
84
84
A4
24
18
ENDCHAR
STARTCHAR Jcircumflex
ENCODING 308
SWIDTH 960 0
DWIDTH 7 0
BBX 6 12 0 0
BITMAP
18
24
00
1C
08
08
08
08
08
88
88
70
ENDCHAR
STARTCHAR jcircumflex
ENCODING 309
SWIDTH 960 0
DWIDTH 7 0
BBX 6 13 0 -2
BITMAP
18
24
00
18
08
08
08
08
08
08
88
88
70
ENDCHAR
STARTCHAR Kcommaaccent
ENCODING 310
SWIDTH 960 0
DWIDTH 7 0
BBX 6 12 0 -2
BITMAP
84
88
90
A0
C0
A0
90
88
84
84
40
80
ENDCHAR
STARTCHAR kcommaaccent
ENCODING 311
SWIDTH 960 0
DWIDTH 7 0
BBX 6 11 0 -2
BITMAP
80
80
88
90
A0
E0
90
88
84
40
80
ENDCHAR
STARTCHAR kgreenlandic
ENCODING 312
SWIDTH 960 0
DWIDTH 7 0
BBX 6 7 0 0
BITMAP
84
88
90
E0
90
88
84
ENDCHAR
STARTCHAR Lacute
ENCODING 313
SWIDTH 960 0
DWIDTH 7 0
BBX 6 12 0 0
BITMAP
40
80
00
80
80
80
80
80
80
80
80
FC
ENDCHAR
STARTCHAR lacute
ENCODING 314
SWIDTH 960 0
DWIDTH 7 0
BBX 5 12 1 0
BITMAP
20
40
00
60
20
20
20
20
20
20
20
F8
ENDCHAR
STARTCHAR Lcommaaccent
ENCODING 315
SWIDTH 960 0
DWIDTH 7 0
BBX 6 12 0 -2
BITMAP
80
80
80
80
80
80
80
80
80
FC
10
20
ENDCHAR
STARTCHAR lcommaaccent
ENCODING 316
SWIDTH 960 0
DWIDTH 7 0
BBX 5 12 1 -2
BITMAP
60
20
20
20
20
20
20
20
20
F8
20
40
ENDCHAR
STARTCHAR Lcaron
ENCODING 317
SWIDTH 960 0
DWIDTH 7 0
BBX 6 11 0 0
BITMAP
A0
40
00
80
80
80
80
80
80
80
FC
ENDCHAR
STARTCHAR lcaron
ENCODING 318
SWIDTH 960 0
DWIDTH 7 0
BBX 5 12 1 0
BITMAP
90
60
00
60
20
20
20
20
20
20
20
F8
ENDCHAR
STARTCHAR Ldot
ENCODING 319
SWIDTH 960 0
DWIDTH 7 0
BBX 6 10 0 0
BITMAP
80
80
80
80
90
90
80
80
80
FC
ENDCHAR
STARTCHAR ldot
ENCODING 320
SWIDTH 960 0
DWIDTH 7 0
BBX 5 10 1 0
BITMAP
60
20
20
20
20
28
20
20
20
F8
ENDCHAR
STARTCHAR Lslash
ENCODING 321
SWIDTH 960 0
DWIDTH 7 0
BBX 7 10 0 0
BITMAP
20
20
20
28
30
60
A0
20
20
3E
ENDCHAR
STARTCHAR lslash
ENCODING 322
SWIDTH 960 0
DWIDTH 7 0
BBX 5 10 1 0
BITMAP
60
20
20
28
30
60
A0
20
20
F8
ENDCHAR
STARTCHAR Nacute
ENCODING 323
SWIDTH 960 0
DWIDTH 7 0
BBX 6 12 0 0
BITMAP
10
20
00
84
C4
C4
A4
94
8C
8C
84
84
ENDCHAR
STARTCHAR nacute
ENCODING 324
SWIDTH 960 0
DWIDTH 7 0
BBX 6 10 0 0
BITMAP
10
20
00
B8
C4
84
84
84
84
84
ENDCHAR
STARTCHAR Ncommaaccent
ENCODING 325
SWIDTH 960 0
DWIDTH 7 0
BBX 6 12 0 -2
BITMAP
84
84
C4
C4
A4
94
8C
8C
84
84
40
80
ENDCHAR
STARTCHAR ncommaaccent
ENCODING 326
SWIDTH 960 0
DWIDTH 7 0
BBX 6 9 0 -2
BITMAP
B8
C4
84
84
84
84
84
40
80
ENDCHAR
STARTCHAR Ncaron
ENCODING 327
SWIDTH 960 0
DWIDTH 7 0
BBX 6 12 0 0
BITMAP
48
30
84
84
C4
C4
A4
94
8C
8C
84
84
ENDCHAR
STARTCHAR ncaron
ENCODING 328
SWIDTH 960 0
DWIDTH 7 0
BBX 6 10 0 0
BITMAP
48
30
00
B8
C4
84
84
84
84
84
ENDCHAR
STARTCHAR napostrophe
ENCODING 329
SWIDTH 960 0
DWIDTH 7 0
BBX 6 11 0 0
BITMAP
C0
40
80
00
B8
C4
84
84
84
84
84
ENDCHAR
STARTCHAR Eng
ENCODING 330
SWIDTH 960 0
DWIDTH 7 0
BBX 6 12 0 -2
BITMAP
84
84
C4
C4
A4
94
8C
8C
84
84
04
18
ENDCHAR
STARTCHAR eng
ENCODING 331
SWIDTH 960 0
DWIDTH 7 0
BBX 6 9 0 -2
BITMAP
B8
C4
84
84
84
84
84
04
18
ENDCHAR
STARTCHAR Omacron
ENCODING 332
SWIDTH 960 0
DWIDTH 7 0
BBX 6 11 0 0
BITMAP
78
00
78
84
84
84
84
84
84
84
78
ENDCHAR
STARTCHAR omacron
ENCODING 333
SWIDTH 960 0
DWIDTH 7 0
BBX 6 9 0 0
BITMAP
78
00
78
84
84
84
84
84
78
ENDCHAR
STARTCHAR Obreve
ENCODING 334
SWIDTH 960 0
DWIDTH 7 0
BBX 6 12 0 0
BITMAP
84
78
00
78
84
84
84
84
84
84
84
78
ENDCHAR
STARTCHAR obreve
ENCODING 335
SWIDTH 960 0
DWIDTH 7 0
BBX 6 10 0 0
BITMAP
84
78
00
78
84
84
84
84
84
78
ENDCHAR
STARTCHAR Ohungarumlaut
ENCODING 336
SWIDTH 960 0
DWIDTH 7 0
BBX 6 12 0 0
BITMAP
24
48
00
78
84
84
84
84
84
84
84
78
ENDCHAR
STARTCHAR ohungarumlaut
ENCODING 337
SWIDTH 960 0
DWIDTH 7 0
BBX 6 10 0 0
BITMAP
24
48
00
78
84
84
84
84
84
78
ENDCHAR
STARTCHAR OE
ENCODING 338
SWIDTH 960 0
DWIDTH 7 0
BBX 6 10 0 0
BITMAP
7C
90
90
90
9C
90
90
90
90
7C
ENDCHAR
STARTCHAR oe
ENCODING 339
SWIDTH 960 0
DWIDTH 7 0
BBX 6 7 0 0
BITMAP
78
94
94
9C
90
90
7C
ENDCHAR
STARTCHAR Racute
ENCODING 340
SWIDTH 960 0
DWIDTH 7 0
BBX 6 12 0 0
BITMAP
10
20
00
F8
84
84
84
F8
90
88
84
84
ENDCHAR
STARTCHAR racute
ENCODING 341
SWIDTH 960 0
DWIDTH 7 0
BBX 6 10 0 0
BITMAP
10
20
00
B8
C4
84
80
80
80
80
ENDCHAR
STARTCHAR Rcommaaccent
ENCODING 342
SWIDTH 960 0
DWIDTH 7 0
BBX 6 12 0 -2
BITMAP
F8
84
84
84
84
F8
90
88
84
84
40
80
ENDCHAR
STARTCHAR rcommaaccent
ENCODING 343
SWIDTH 960 0
DWIDTH 7 0
BBX 6 9 0 -2
BITMAP
B8
C4
84
80
80
80
80
40
80
ENDCHAR
STARTCHAR Rcaron
ENCODING 344
SWIDTH 960 0
DWIDTH 7 0
BBX 6 12 0 0
BITMAP
48
30
00
F8
84
84
84
F8
90
88
84
84
ENDCHAR
STARTCHAR rcaron
ENCODING 345
SWIDTH 960 0
DWIDTH 7 0
BBX 6 10 0 0
BITMAP
48
30
00
B8
C4
84
80
80
80
80
ENDCHAR
STARTCHAR Sacute
ENCODING 346
SWIDTH 960 0
DWIDTH 7 0
BBX 6 12 0 0
BITMAP
10
20
00
78
84
80
80
78
04
84
84
78
ENDCHAR
STARTCHAR sacute
ENCODING 347
SWIDTH 960 0
DWIDTH 7 0
BBX 6 10 0 0
BITMAP
10
20
00
78
84
40
30
08
84
78
ENDCHAR
STARTCHAR Scircumflex
ENCODING 348
SWIDTH 960 0
DWIDTH 7 0
BBX 6 12 0 0
BITMAP
30
48
00
78
84
80
80
78
04
84
84
78
ENDCHAR
STARTCHAR scircumflex
ENCODING 349
SWIDTH 960 0
DWIDTH 7 0
BBX 6 10 0 0
BITMAP
30
48
00
78
84
40
30
08
84
78
ENDCHAR
STARTCHAR Scedilla
ENCODING 350
SWIDTH 960 0
DWIDTH 7 0
BBX 6 12 0 -2
BITMAP
78
84
84
80
60
18
04
84
84
78
10
20
ENDCHAR
STARTCHAR scedilla
ENCODING 351
SWIDTH 960 0
DWIDTH 7 0
BBX 6 9 0 -2
BITMAP
78
84
40
30
08
84
78
10
20
ENDCHAR
STARTCHAR Scaron
ENCODING 352
SWIDTH 960 0
DWIDTH 7 0
BBX 6 12 0 0
BITMAP
48
30
00
78
84
84
60
18
04
84
84
78
ENDCHAR
STARTCHAR scaron
ENCODING 353
SWIDTH 960 0
DWIDTH 7 0
BBX 6 10 0 0
BITMAP
48
30
00
78
84
40
30
08
84
78
ENDCHAR
STARTCHAR Tcommaaccent
ENCODING 354
SWIDTH 960 0
DWIDTH 7 0
BBX 7 12 0 -2
BITMAP
FE
10
10
10
10
10
10
10
10
10
08
10
ENDCHAR
STARTCHAR tcommaaccent
ENCODING 355
SWIDTH 960 0
DWIDTH 7 0
BBX 6 12 0 -2
BITMAP
20
20
20
F8
20
20
20
20
24
18
08
10
ENDCHAR
STARTCHAR Tcaron
ENCODING 356
SWIDTH 960 0
DWIDTH 7 0
BBX 7 12 0 0
BITMAP
24
18
00
FE
10
10
10
10
10
10
10
10
ENDCHAR
STARTCHAR tcaron
ENCODING 357
SWIDTH 960 0
DWIDTH 7 0
BBX 6 12 0 0
BITMAP
48
30
00
20
20
F8
20
20
20
20
24
18
ENDCHAR
STARTCHAR Tbar
ENCODING 358
SWIDTH 960 0
DWIDTH 7 0
BBX 7 10 0 0
BITMAP
FE
10
10
10
10
38
10
10
10
10
ENDCHAR
STARTCHAR tbar
ENCODING 359
SWIDTH 960 0
DWIDTH 7 0
BBX 6 10 0 0
BITMAP
20
20
F8
20
20
70
20
20
24
18
ENDCHAR
STARTCHAR Utilde
ENCODING 360
SWIDTH 960 0
DWIDTH 7 0
BBX 6 12 0 0
BITMAP
64
98
00
84
84
84
84
84
84
84
84
78
ENDCHAR
STARTCHAR utilde
ENCODING 361
SWIDTH 960 0
DWIDTH 7 0
BBX 6 10 0 0
BITMAP
64
98
00
84
84
84
84
84
8C
74
ENDCHAR
STARTCHAR Umacron
ENCODING 362
SWIDTH 960 0
DWIDTH 7 0
BBX 6 11 0 0
BITMAP
78
00
84
84
84
84
84
84
84
84
78
ENDCHAR
STARTCHAR umacron
ENCODING 363
SWIDTH 960 0
DWIDTH 7 0
BBX 6 9 0 0
BITMAP
78
00
84
84
84
84
84
8C
74
ENDCHAR
STARTCHAR Ubreve
ENCODING 364
SWIDTH 960 0
DWIDTH 7 0
BBX 6 12 0 0
BITMAP
84
78
00
84
84
84
84
84
84
84
84
78
ENDCHAR
STARTCHAR ubreve
ENCODING 365
SWIDTH 960 0
DWIDTH 7 0
BBX 6 10 0 0
BITMAP
84
78
00
84
84
84
84
84
8C
74
ENDCHAR
STARTCHAR Uring
ENCODING 366
SWIDTH 960 0
DWIDTH 7 0
BBX 6 12 0 0
BITMAP
30
48
30
84
84
84
84
84
84
84
84
78
ENDCHAR
STARTCHAR uring
ENCODING 367
SWIDTH 960 0
DWIDTH 7 0
BBX 6 11 0 0
BITMAP
30
48
30
00
84
84
84
84
84
8C
74
ENDCHAR
STARTCHAR Uhungarumlaut
ENCODING 368
SWIDTH 960 0
DWIDTH 7 0
BBX 6 12 0 0
BITMAP
24
48
00
84
84
84
84
84
84
84
84
78
ENDCHAR
STARTCHAR uhungarumlaut
ENCODING 369
SWIDTH 960 0
DWIDTH 7 0
BBX 6 10 0 0
BITMAP
24
48
00
84
84
84
84
84
8C
74
ENDCHAR
STARTCHAR Uogonek
ENCODING 370
SWIDTH 960 0
DWIDTH 7 0
BBX 6 12 0 -2
BITMAP
84
84
84
84
84
84
84
84
84
78
20
10
ENDCHAR
STARTCHAR uogonek
ENCODING 371
SWIDTH 960 0
DWIDTH 7 0
BBX 6 9 0 -2
BITMAP
84
84
84
84
84
8C
74
20
10
ENDCHAR
STARTCHAR Wcircumflex
ENCODING 372
SWIDTH 960 0
DWIDTH 7 0
BBX 6 12 0 0
BITMAP
30
48
00
84
84
84
84
B4
B4
CC
CC
84
ENDCHAR
STARTCHAR wcircumflex
ENCODING 373
SWIDTH 960 0
DWIDTH 7 0
BBX 5 10 1 0
BITMAP
20
50
00
88
88
A8
A8
A8
A8
50
ENDCHAR
STARTCHAR Ycircumflex
ENCODING 374
SWIDTH 960 0
DWIDTH 7 0
BBX 5 12 1 0
BITMAP
20
50
00
88
88
50
50
20
20
20
20
20
ENDCHAR
STARTCHAR ycircumflex
ENCODING 375
SWIDTH 960 0
DWIDTH 7 0
BBX 6 12 0 -2
BITMAP
30
48
00
84
84
84
84
8C
74
04
84
78
ENDCHAR
STARTCHAR Ydieresis
ENCODING 376
SWIDTH 960 0
DWIDTH 7 0
BBX 5 12 1 0
BITMAP
50
50
00
88
88
50
50
20
20
20
20
20
ENDCHAR
STARTCHAR Zacute
ENCODING 377
SWIDTH 960 0
DWIDTH 7 0
BBX 6 12 0 0
BITMAP
10
20
00
FC
08
10
10
20
40
40
80
FC
ENDCHAR
STARTCHAR zacute
ENCODING 378
SWIDTH 960 0
DWIDTH 7 0
BBX 6 10 0 0
BITMAP
10
20
00
FC
08
10
20
20
40
FC
ENDCHAR
STARTCHAR Zdotaccent
ENCODING 379
SWIDTH 960 0
DWIDTH 7 0
BBX 6 11 0 0
BITMAP
30
00
FC
08
10
10
20
40
40
80
FC
ENDCHAR
STARTCHAR zdotaccent
ENCODING 380
SWIDTH 960 0
DWIDTH 7 0
BBX 6 9 0 0
BITMAP
30
00
FC
08
10
20
20
40
FC
ENDCHAR
STARTCHAR Zcaron
ENCODING 381
SWIDTH 960 0
DWIDTH 7 0
BBX 6 12 0 0
BITMAP
48
30
00
FC
08
10
10
20
40
40
80
FC
ENDCHAR
STARTCHAR zcaron
ENCODING 382
SWIDTH 960 0
DWIDTH 7 0
BBX 6 10 0 0
BITMAP
48
30
00
FC
08
10
20
20
40
FC
ENDCHAR
STARTCHAR longs
ENCODING 383
SWIDTH 960 0
DWIDTH 7 0
BBX 6 10 0 0
BITMAP
18
24
20
20
E0
20
20
20
20
20
ENDCHAR
STARTCHAR uni0180
ENCODING 384
SWIDTH 960 0
DWIDTH 7 0
BBX 7 10 0 0
BITMAP
40
F0
40
5C
62
42
42
42
62
5C
ENDCHAR
STARTCHAR uni0181
ENCODING 385
SWIDTH 960 0
DWIDTH 7 0
BBX 6 10 0 0
BITMAP
78
A4
A4
24
38
24
24
24
24
38
ENDCHAR
STARTCHAR uni0182
ENCODING 386
SWIDTH 960 0
DWIDTH 7 0
BBX 6 10 0 0
BITMAP
F8
40
40
40
78
44
44
44
44
F8
ENDCHAR
STARTCHAR uni0183
ENCODING 387
SWIDTH 960 0
DWIDTH 7 0
BBX 6 10 0 0
BITMAP
F8
88
80
B8
C4
84
84
84
C4
B8
ENDCHAR
STARTCHAR uni0184
ENCODING 388
SWIDTH 960 0
DWIDTH 7 0
BBX 7 10 0 0
BITMAP
20
60
E0
6C
32
22
22
22
32
2C
ENDCHAR
STARTCHAR uni0185
ENCODING 389
SWIDTH 960 0
DWIDTH 7 0
BBX 5 10 1 0
BITMAP
40
C0
C0
50
68
48
48
48
68
50
ENDCHAR
STARTCHAR uni0186
ENCODING 390
SWIDTH 960 0
DWIDTH 7 0
BBX 6 10 0 0
BITMAP
78
84
84
04
04
04
04
84
84
78
ENDCHAR
STARTCHAR uni0187
ENCODING 391
SWIDTH 960 0
DWIDTH 7 0
BBX 6 12 0 0
BITMAP
04
08
78
88
88
80
80
80
80
88
88
70
ENDCHAR
STARTCHAR uni0188
ENCODING 392
SWIDTH 960 0
DWIDTH 7 0
BBX 6 9 0 0
BITMAP
04
08
78
88
80
80
80
88
70
ENDCHAR
STARTCHAR uni0189
ENCODING 393
SWIDTH 960 0
DWIDTH 7 0
BBX 7 10 0 0
BITMAP
78
44
42
42
E2
42
42
42
44
78
ENDCHAR
STARTCHAR uni018A
ENCODING 394
SWIDTH 960 0
DWIDTH 7 0
BBX 7 10 0 0
BITMAP
78
A4
A2
22
22
22
22
22
24
78
ENDCHAR
STARTCHAR uni018B
ENCODING 395
SWIDTH 960 0
DWIDTH 7 0
BBX 6 10 0 0
BITMAP
FC
88
08
08
78
88
88
88
88
7C
ENDCHAR
STARTCHAR uni018C
ENCODING 396
SWIDTH 960 0
DWIDTH 7 0
BBX 6 10 0 0
BITMAP
78
04
04
74
8C
84
84
84
8C
74
ENDCHAR
STARTCHAR uni018D
ENCODING 397
SWIDTH 960 0
DWIDTH 7 0
BBX 6 9 0 -2
BITMAP
78
84
84
84
84
84
78
08
70
ENDCHAR
STARTCHAR uni018E
ENCODING 398
SWIDTH 960 0
DWIDTH 7 0
BBX 6 10 0 0
BITMAP
FC
80
80
80
F0
80
80
80
80
FC
ENDCHAR
STARTCHAR uni018F
ENCODING 399
SWIDTH 960 0
DWIDTH 7 0
BBX 6 10 0 0
BITMAP
78
84
04
04
FC
84
84
84
84
78
ENDCHAR
STARTCHAR uni0190
ENCODING 400
SWIDTH 960 0
DWIDTH 7 0
BBX 6 10 0 0
BITMAP
38
44
80
80
70
80
80
80
44
38
ENDCHAR
STARTCHAR uni0191
ENCODING 401
SWIDTH 960 0
DWIDTH 7 0
BBX 7 11 0 -1
BITMAP
3E
20
20
20
3C
20
20
20
A0
A0
40
ENDCHAR
STARTCHAR florin
ENCODING 402
SWIDTH 960 0
DWIDTH 7 0
BBX 7 11 0 -1
BITMAP
0C
12
10
10
7C
10
10
10
10
90
60
ENDCHAR
STARTCHAR uni0193
ENCODING 403
SWIDTH 960 0
DWIDTH 7 0
BBX 6 11 0 0
BITMAP
04
74
88
88
80
80
B8
88
88
98
68
ENDCHAR
STARTCHAR uni0194
ENCODING 404
SWIDTH 960 0
DWIDTH 7 0
BBX 5 9 1 -2
BITMAP
88
88
88
50
50
20
20
50
20
ENDCHAR
STARTCHAR uni0195
ENCODING 405
SWIDTH 960 0
DWIDTH 7 0
BBX 6 10 0 0
BITMAP
80
80
80
C4
A4
94
94
94
94
88
ENDCHAR
STARTCHAR uni0196
ENCODING 406
SWIDTH 960 0
DWIDTH 7 0
BBX 5 10 1 0
BITMAP
E0
20
20
20
20
20
20
20
20
18
ENDCHAR
STARTCHAR uni0197
ENCODING 407
SWIDTH 960 0
DWIDTH 7 0
BBX 5 10 1 0
BITMAP
F8
20
20
20
70
20
20
20
20
F8
ENDCHAR
STARTCHAR uni0198
ENCODING 408
SWIDTH 960 0
DWIDTH 7 0
BBX 6 10 0 0
BITMAP
88
94
A4
C0
C0
A0
90
88
84
84
ENDCHAR
STARTCHAR uni0199
ENCODING 409
SWIDTH 960 0
DWIDTH 7 0
BBX 6 11 0 0
BITMAP
60
90
80
80
88
90
A0
E0
90
88
84
ENDCHAR
STARTCHAR uni019A
ENCODING 410
SWIDTH 960 0
DWIDTH 7 0
BBX 5 10 1 0
BITMAP
60
20
20
20
20
20
20
20
20
F8
ENDCHAR
STARTCHAR uni019B
ENCODING 411
SWIDTH 960 0
DWIDTH 7 0
BBX 5 10 1 0
BITMAP
40
20
38
E0
20
20
50
50
88
88
ENDCHAR
STARTCHAR uni019C
ENCODING 412
SWIDTH 960 0
DWIDTH 7 0
BBX 5 7 1 0
BITMAP
88
A8
A8
A8
A8
A8
58
ENDCHAR
STARTCHAR uni019D
ENCODING 413
SWIDTH 960 0
DWIDTH 7 0
BBX 7 12 0 -2
BITMAP
22
22
32
32
2A
2A
26
26
22
A2
A0
40
ENDCHAR
STARTCHAR uni019E
ENCODING 414
SWIDTH 960 0
DWIDTH 7 0
BBX 6 9 0 -2
BITMAP
B8
C4
84
84
84
84
84
04
04
ENDCHAR
STARTCHAR uni019F
ENCODING 415
SWIDTH 960 0
DWIDTH 7 0
BBX 6 10 0 0
BITMAP
78
84
84
84
FC
84
84
84
84
78
ENDCHAR
STARTCHAR Ohorn
ENCODING 416
SWIDTH 960 0
DWIDTH 7 0
BBX 6 11 0 0
BITMAP
04
74
88
88
88
88
88
88
88
88
70
ENDCHAR
STARTCHAR ohorn
ENCODING 417
SWIDTH 960 0
DWIDTH 7 0
BBX 6 8 0 0
BITMAP
04
74
88
88
88
88
88
70
ENDCHAR
STARTCHAR uni01A2
ENCODING 418
SWIDTH 960 0
DWIDTH 7 0
BBX 6 10 0 0
BITMAP
60
98
94
94
94
94
90
90
90
60
ENDCHAR
STARTCHAR uni01A3
ENCODING 419
SWIDTH 960 0
DWIDTH 7 0
BBX 6 7 0 0
BITMAP
78
94
94
94
94
90
60
ENDCHAR
STARTCHAR uni01A4
ENCODING 420
SWIDTH 960 0
DWIDTH 7 0
BBX 6 10 0 0
BITMAP
78
A4
A4
24
24
38
20
20
20
20
ENDCHAR
STARTCHAR uni01A5
ENCODING 421
SWIDTH 960 0
DWIDTH 7 0
BBX 6 12 0 -2
BITMAP
60
90
80
B8
C4
84
84
84
C4
B8
80
80
ENDCHAR
STARTCHAR uni01A6
ENCODING 422
SWIDTH 960 0
DWIDTH 7 0
BBX 7 13 0 -1
BITMAP
E0
40
7C
42
42
42
42
7C
48
48
4A
4A
04
ENDCHAR
STARTCHAR uni01A7
ENCODING 423
SWIDTH 960 0
DWIDTH 7 0
BBX 6 10 0 0
BITMAP
78
84
84
04
18
60
80
84
84
78
ENDCHAR
STARTCHAR uni01A8
ENCODING 424
SWIDTH 960 0
DWIDTH 7 0
BBX 6 7 0 0
BITMAP
78
84
08
30
40
84
78
ENDCHAR
STARTCHAR uni01A9
ENCODING 425
SWIDTH 960 0
DWIDTH 7 0
BBX 6 10 0 0
BITMAP
FC
80
40
20
10
20
40
80
80
FC
ENDCHAR
STARTCHAR uni01AA
ENCODING 426
SWIDTH 960 0
DWIDTH 7 0
BBX 5 13 1 -2
BITMAP
40
A0
A0
70
20
20
20
20
20
20
28
28
10
ENDCHAR
STARTCHAR uni01AB
ENCODING 427
SWIDTH 960 0
DWIDTH 7 0
BBX 6 12 0 -2
BITMAP
20
20
20
F8
20
20
20
20
24
1C
04
18
ENDCHAR
STARTCHAR uni01AC
ENCODING 428
SWIDTH 960 0
DWIDTH 7 0
BBX 7 10 0 0
BITMAP
7E
90
90
50
10
10
10
10
10
10
ENDCHAR
STARTCHAR uni01AD
ENCODING 429
SWIDTH 960 0
DWIDTH 7 0
BBX 6 11 0 0
BITMAP
18
24
20
20
F8
20
20
20
20
24
18
ENDCHAR
STARTCHAR uni01AE
ENCODING 430
SWIDTH 960 0
DWIDTH 7 0
BBX 7 11 0 -1
BITMAP
FE
10
10
10
10
10
10
10
12
12
0C
ENDCHAR
STARTCHAR Uhorn
ENCODING 431
SWIDTH 960 0
DWIDTH 7 0
BBX 6 11 0 0
BITMAP
04
94
98
90
90
90
90
90
90
90
60
ENDCHAR
STARTCHAR uhorn
ENCODING 432
SWIDTH 960 0
DWIDTH 7 0
BBX 6 9 0 0
BITMAP
04
04
8C
88
88
88
88
98
68
ENDCHAR
STARTCHAR uni01B1
ENCODING 433
SWIDTH 960 0
DWIDTH 7 0
BBX 6 10 0 0
BITMAP
48
48
84
84
84
84
84
84
84
78
ENDCHAR
STARTCHAR uni01B2
ENCODING 434
SWIDTH 960 0
DWIDTH 7 0
BBX 6 10 0 0
BITMAP
90
88
88
84
84
84
84
84
88
70
ENDCHAR
STARTCHAR uni01B3
ENCODING 435
SWIDTH 960 0
DWIDTH 7 0
BBX 7 10 0 0
BITMAP
42
A2
A2
14
14
08
08
08
08
08
ENDCHAR
STARTCHAR uni01B4
ENCODING 436
SWIDTH 960 0
DWIDTH 7 0
BBX 7 11 0 -2
BITMAP
04
0A
8A
88
88
88
98
68
08
88
70
ENDCHAR
STARTCHAR uni01B5
ENCODING 437
SWIDTH 960 0
DWIDTH 7 0
BBX 6 10 0 0
BITMAP
FC
04
08
10
78
20
40
40
80
FC
ENDCHAR
STARTCHAR uni01B6
ENCODING 438
SWIDTH 960 0
DWIDTH 7 0
BBX 6 7 0 0
BITMAP
FC
08
10
78
20
40
FC
ENDCHAR
STARTCHAR uni01B7
ENCODING 439
SWIDTH 960 0
DWIDTH 7 0
BBX 6 10 0 0
BITMAP
FC
04
08
10
38
04
84
84
88
70
ENDCHAR
STARTCHAR uni01B8
ENCODING 440
SWIDTH 960 0
DWIDTH 7 0
BBX 6 10 0 0
BITMAP
FC
80
40
20
70
80
84
84
44
38
ENDCHAR
STARTCHAR uni01B9
ENCODING 441
SWIDTH 960 0
DWIDTH 7 0
BBX 6 9 0 -2
BITMAP
FC
40
20
10
78
80
84
84
78
ENDCHAR
STARTCHAR uni01BA
ENCODING 442
SWIDTH 960 0
DWIDTH 7 0
BBX 6 9 0 -2
BITMAP
FC
08
10
20
78
04
78
80
78
ENDCHAR
STARTCHAR uni01BB
ENCODING 443
SWIDTH 960 0
DWIDTH 7 0
BBX 6 10 0 0
BITMAP
78
84
84
04
08
7C
10
20
40
FC
ENDCHAR
STARTCHAR uni01BC
ENCODING 444
SWIDTH 960 0
DWIDTH 7 0
BBX 6 10 0 0
BITMAP
FC
84
80
78
04
04
44
84
84
78
ENDCHAR
STARTCHAR uni01BD
ENCODING 445
SWIDTH 960 0
DWIDTH 7 0
BBX 4 10 1 0
BITMAP
F0
90
80
E0
10
10
90
90
90
60
ENDCHAR
STARTCHAR uni01BE
ENCODING 446
SWIDTH 960 0
DWIDTH 7 0
BBX 5 10 1 0
BITMAP
20
20
20
20
F8
20
10
88
88
70
ENDCHAR
STARTCHAR uni01BF
ENCODING 447
SWIDTH 960 0
DWIDTH 7 0
BBX 6 9 0 -2
BITMAP
B8
C4
84
88
90
A0
C0
80
80
ENDCHAR
STARTCHAR uni01C0
ENCODING 448
SWIDTH 960 0
DWIDTH 7 0
BBX 1 10 3 0
BITMAP
80
80
80
80
80
80
80
80
80
80
ENDCHAR
STARTCHAR uni01C1
ENCODING 449
SWIDTH 960 0
DWIDTH 7 0
BBX 3 10 2 0
BITMAP
A0
A0
A0
A0
A0
A0
A0
A0
A0
A0
ENDCHAR
STARTCHAR uni01C2
ENCODING 450
SWIDTH 960 0
DWIDTH 7 0
BBX 5 10 1 0
BITMAP
20
20
20
F8
20
F8
20
20
20
20
ENDCHAR
STARTCHAR uni01C3
ENCODING 451
SWIDTH 960 0
DWIDTH 7 0
BBX 3 10 2 0
BITMAP
E0
E0
E0
40
40
40
00
40
E0
40
ENDCHAR
STARTCHAR uni01C4
ENCODING 452
SWIDTH 960 0
DWIDTH 7 0
BBX 7 12 0 0
BITMAP
0A
04
00
CE
A2
A2
A4
A4
A4
A8
A8
CE
ENDCHAR
STARTCHAR uni01C5
ENCODING 453
SWIDTH 960 0
DWIDTH 7 0
BBX 7 10 0 0
BITMAP
CA
A4
A0
AE
A2
A4
A4
A8
A8
CE
ENDCHAR
STARTCHAR uni01C6
ENCODING 454
SWIDTH 960 0
DWIDTH 7 0
BBX 7 10 0 0
BITMAP
2A
24
20
6E
A2
A4
A4
A4
A8
6E
ENDCHAR
STARTCHAR uni01C7
ENCODING 455
SWIDTH 960 0
DWIDTH 7 0
BBX 7 10 0 0
BITMAP
82
82
82
82
82
82
82
82
8A
E4
ENDCHAR
STARTCHAR uni01C8
ENCODING 456
SWIDTH 960 0
DWIDTH 7 0
BBX 7 12 0 -2
BITMAP
82
82
80
86
82
82
82
82
82
EA
0A
04
ENDCHAR
STARTCHAR uni01C9
ENCODING 457
SWIDTH 960 0
DWIDTH 7 0
BBX 7 12 0 -2
BITMAP
82
82
80
86
82
82
82
82
82
6A
0A
04
ENDCHAR
STARTCHAR uni01CA
ENCODING 458
SWIDTH 960 0
DWIDTH 7 0
BBX 7 10 0 0
BITMAP
96
92
92
D2
B2
92
92
9A
9A
94
ENDCHAR
STARTCHAR uni01CB
ENCODING 459
SWIDTH 960 0
DWIDTH 7 0
BBX 7 12 0 -2
BITMAP
92
92
90
D6
B2
92
92
92
92
92
0A
04
ENDCHAR
STARTCHAR uni01CC
ENCODING 460
SWIDTH 960 0
DWIDTH 7 0
BBX 7 12 0 -2
BITMAP
02
02
00
A6
D2
92
92
92
92
92
0A
04
ENDCHAR
STARTCHAR uni01CD
ENCODING 461
SWIDTH 960 0
DWIDTH 7 0
BBX 6 12 0 0
BITMAP
48
30
00
30
48
84
84
84
FC
84
84
84
ENDCHAR
STARTCHAR uni01CE
ENCODING 462
SWIDTH 960 0
DWIDTH 7 0
BBX 6 11 0 0
BITMAP
48
30
00
00
78
84
04
7C
84
84
7C
ENDCHAR
STARTCHAR uni01CF
ENCODING 463
SWIDTH 960 0
DWIDTH 7 0
BBX 5 12 1 0
BITMAP
50
20
00
F8
20
20
20
20
20
20
20
F8
ENDCHAR
STARTCHAR uni01D0
ENCODING 464
SWIDTH 960 0
DWIDTH 7 0
BBX 5 10 1 0
BITMAP
50
20
00
60
20
20
20
20
20
F8
ENDCHAR
STARTCHAR uni01D1
ENCODING 465
SWIDTH 960 0
DWIDTH 7 0
BBX 6 12 0 0
BITMAP
48
30
00
78
84
84
84
84
84
84
84
78
ENDCHAR
STARTCHAR uni01D2
ENCODING 466
SWIDTH 960 0
DWIDTH 7 0
BBX 6 10 0 0
BITMAP
48
30
00
78
84
84
84
84
84
78
ENDCHAR
STARTCHAR uni01D3
ENCODING 467
SWIDTH 960 0
DWIDTH 7 0
BBX 6 12 0 0
BITMAP
48
30
00
84
84
84
84
84
84
84
84
78
ENDCHAR
STARTCHAR uni01D4
ENCODING 468
SWIDTH 960 0
DWIDTH 7 0
BBX 6 10 0 0
BITMAP
48
30
00
84
84
84
84
84
8C
74
ENDCHAR
STARTCHAR uni01D5
ENCODING 469
SWIDTH 960 0
DWIDTH 7 0
BBX 6 12 0 0
BITMAP
78
00
48
00
84
84
84
84
84
84
84
78
ENDCHAR
STARTCHAR uni01D6
ENCODING 470
SWIDTH 960 0
DWIDTH 7 0
BBX 6 11 0 0
BITMAP
78
00
48
00
84
84
84
84
84
8C
74
ENDCHAR
STARTCHAR uni01D7
ENCODING 471
SWIDTH 960 0
DWIDTH 7 0
BBX 6 12 0 0
BITMAP
10
20
88
00
84
84
84
84
84
84
84
78
ENDCHAR
STARTCHAR uni01D8
ENCODING 472
SWIDTH 960 0
DWIDTH 7 0
BBX 6 11 0 0
BITMAP
10
20
88
00
84
84
84
84
84
8C
74
ENDCHAR
STARTCHAR uni01D9
ENCODING 473
SWIDTH 960 0
DWIDTH 7 0
BBX 6 12 0 0
BITMAP
50
20
88
00
84
84
84
84
84
84
84
78
ENDCHAR
STARTCHAR uni01DA
ENCODING 474
SWIDTH 960 0
DWIDTH 7 0
BBX 6 11 0 0
BITMAP
50
20
88
00
84
84
84
84
84
8C
74
ENDCHAR
STARTCHAR uni01DB
ENCODING 475
SWIDTH 960 0
DWIDTH 7 0
BBX 6 12 0 0
BITMAP
20
10
44
00
84
84
84
84
84
84
84
78
ENDCHAR
STARTCHAR uni01DC
ENCODING 476
SWIDTH 960 0
DWIDTH 7 0
BBX 6 11 0 0
BITMAP
20
10
44
00
84
84
84
84
84
8C
74
ENDCHAR
STARTCHAR uni01DD
ENCODING 477
SWIDTH 960 0
DWIDTH 7 0
BBX 6 7 0 0
BITMAP
78
84
04
FC
84
84
78
ENDCHAR
STARTCHAR uni01DE
ENCODING 478
SWIDTH 960 0
DWIDTH 7 0
BBX 6 12 0 0
BITMAP
78
00
48
00
30
48
84
FC
84
84
84
84
ENDCHAR
STARTCHAR uni01DF
ENCODING 479
SWIDTH 960 0
DWIDTH 7 0
BBX 6 11 0 0
BITMAP
78
00
48
00
78
84
04
7C
84
84
7C
ENDCHAR
STARTCHAR uni01E0
ENCODING 480
SWIDTH 960 0
DWIDTH 7 0
BBX 6 12 0 0
BITMAP
78
00
30
00
30
48
84
FC
84
84
84
84
ENDCHAR
STARTCHAR uni01E1
ENCODING 481
SWIDTH 960 0
DWIDTH 7 0
BBX 6 11 0 0
BITMAP
78
00
30
00
78
84
04
7C
84
84
7C
ENDCHAR
STARTCHAR uni01E2
ENCODING 482
SWIDTH 960 0
DWIDTH 7 0
BBX 6 12 0 0
BITMAP
78
00
3C
50
90
90
FC
90
90
90
90
9C
ENDCHAR
STARTCHAR uni01E3
ENCODING 483
SWIDTH 960 0
DWIDTH 7 0
BBX 7 9 0 0
BITMAP
7C
00
7C
92
32
5E
90
92
7C
ENDCHAR
STARTCHAR uni01E4
ENCODING 484
SWIDTH 960 0
DWIDTH 7 0
BBX 6 10 0 0
BITMAP
70
88
88
80
80
98
88
9C
88
70
ENDCHAR
STARTCHAR uni01E5
ENCODING 485
SWIDTH 960 0
DWIDTH 7 0
BBX 6 9 0 -2
BITMAP
74
88
88
88
70
48
9C
88
70
ENDCHAR
STARTCHAR Gcaron
ENCODING 486
SWIDTH 960 0
DWIDTH 7 0
BBX 6 12 0 0
BITMAP
48
30
00
78
84
80
80
9C
84
84
8C
74
ENDCHAR
STARTCHAR gcaron
ENCODING 487
SWIDTH 960 0
DWIDTH 7 0
BBX 6 12 0 -2
BITMAP
48
30
00
74
88
88
88
70
40
B8
84
78
ENDCHAR
STARTCHAR uni01E8
ENCODING 488
SWIDTH 960 0
DWIDTH 7 0
BBX 6 12 0 0
BITMAP
48
30
00
84
88
90
A0
C0
A0
90
88
84
ENDCHAR
STARTCHAR uni01E9
ENCODING 489
SWIDTH 960 0
DWIDTH 7 0
BBX 6 11 0 0
BITMAP
48
30
80
80
88
90
A0
E0
90
88
84
ENDCHAR
STARTCHAR uni01EA
ENCODING 490
SWIDTH 960 0
DWIDTH 7 0
BBX 6 12 0 -2
BITMAP
78
84
84
84
84
84
84
84
84
78
20
18
ENDCHAR
STARTCHAR uni01EB
ENCODING 491
SWIDTH 960 0
DWIDTH 7 0
BBX 6 9 0 -2
BITMAP
78
84
84
84
84
84
78
20
18
ENDCHAR
STARTCHAR uni01EC
ENCODING 492
SWIDTH 960 0
DWIDTH 7 0
BBX 6 14 0 -2
BITMAP
78
00
78
84
84
84
84
84
84
84
84
78
20
18
ENDCHAR
STARTCHAR uni01ED
ENCODING 493
SWIDTH 960 0
DWIDTH 7 0
BBX 6 11 0 -2
BITMAP
78
00
78
84
84
84
84
84
78
20
18
ENDCHAR
STARTCHAR uni01EE
ENCODING 494
SWIDTH 960 0
DWIDTH 7 0
BBX 6 12 0 0
BITMAP
48
30
00
FC
08
10
38
04
84
84
88
70
ENDCHAR
STARTCHAR uni01EF
ENCODING 495
SWIDTH 960 0
DWIDTH 7 0
BBX 6 12 0 -2
BITMAP
48
30
00
FC
08
10
20
78
04
84
84
78
ENDCHAR
STARTCHAR uni01F0
ENCODING 496
SWIDTH 960 0
DWIDTH 7 0
BBX 6 12 0 -2
BITMAP
24
18
00
18
08
08
08
08
08
88
88
70
ENDCHAR
STARTCHAR uni01F1
ENCODING 497
SWIDTH 960 0
DWIDTH 7 0
BBX 7 10 0 0
BITMAP
CE
A2
A2
A2
A4
A4
A8
A8
A8
CE
ENDCHAR
STARTCHAR uni01F2
ENCODING 498
SWIDTH 960 0
DWIDTH 7 0
BBX 7 10 0 0
BITMAP
C0
A0
A0
AE
A2
A4
A4
A8
A8
CE
ENDCHAR
STARTCHAR uni01F3
ENCODING 499
SWIDTH 960 0
DWIDTH 7 0
BBX 7 10 0 0
BITMAP
20
20
20
6E
A2
A4
A4
A4
A8
6E
ENDCHAR
STARTCHAR uni01F4
ENCODING 500
SWIDTH 960 0
DWIDTH 7 0
BBX 6 12 0 0
BITMAP
10
20
00
78
84
80
80
9C
84
84
8C
74
ENDCHAR
STARTCHAR uni01F5
ENCODING 501
SWIDTH 960 0
DWIDTH 7 0
BBX 6 12 0 -2
BITMAP
10
20
00
74
88
88
88
70
40
B8
84
78
ENDCHAR
STARTCHAR uni01F6
ENCODING 502
SWIDTH 960 0
DWIDTH 7 0
BBX 6 10 0 0
BITMAP
90
90
90
94
F4
94
94
94
94
88
ENDCHAR
STARTCHAR uni01F7
ENCODING 503
SWIDTH 960 0
DWIDTH 7 0
BBX 6 10 0 0
BITMAP
B8
C4
84
88
90
A0
C0
80
80
80
ENDCHAR
STARTCHAR uni01F8
ENCODING 504
SWIDTH 960 0
DWIDTH 7 0
BBX 6 12 0 0
BITMAP
20
10
84
84
C4
C4
A4
94
8C
8C
84
84
ENDCHAR
STARTCHAR uni01F9
ENCODING 505
SWIDTH 960 0
DWIDTH 7 0
BBX 6 10 0 0
BITMAP
20
10
00
B8
C4
84
84
84
84
84
ENDCHAR
STARTCHAR Aringacute
ENCODING 506
SWIDTH 960 0
DWIDTH 7 0
BBX 6 12 0 0
BITMAP
10
20
30
48
30
48
84
FC
84
84
84
84
ENDCHAR
STARTCHAR aringacute
ENCODING 507
SWIDTH 960 0
DWIDTH 7 0
BBX 6 12 0 0
BITMAP
10
20
30
48
30
78
84
04
7C
84
84
7C
ENDCHAR
STARTCHAR AEacute
ENCODING 508
SWIDTH 960 0
DWIDTH 7 0
BBX 6 12 0 0
BITMAP
08
10
00
7C
90
90
90
FC
90
90
90
9C
ENDCHAR
STARTCHAR aeacute
ENCODING 509
SWIDTH 960 0
DWIDTH 7 0
BBX 7 10 0 0
BITMAP
08
10
00
7C
92
32
5E
90
92
7C
ENDCHAR
STARTCHAR Oslashacute
ENCODING 510
SWIDTH 960 0
DWIDTH 7 0
BBX 6 14 0 -2
BITMAP
10
24
04
78
8C
94
94
A4
A4
A4
C4
78
80
80
ENDCHAR
STARTCHAR oslashacute
ENCODING 511
SWIDTH 960 0
DWIDTH 7 0
BBX 6 12 0 -2
BITMAP
10
24
08
78
94
94
A4
A4
C4
78
80
80
ENDCHAR
STARTCHAR uni0200
ENCODING 512
SWIDTH 960 0
DWIDTH 7 0
BBX 6 12 0 0
BITMAP
90
48
00
30
48
84
84
84
FC
84
84
84
ENDCHAR
STARTCHAR uni0201
ENCODING 513
SWIDTH 960 0
DWIDTH 7 0
BBX 6 10 0 0
BITMAP
48
24
00
78
84
04
7C
84
84
7C
ENDCHAR
STARTCHAR uni0202
ENCODING 514
SWIDTH 960 0
DWIDTH 7 0
BBX 6 12 0 0
BITMAP
78
84
00
30
48
84
84
84
FC
84
84
84
ENDCHAR
STARTCHAR uni0203
ENCODING 515
SWIDTH 960 0
DWIDTH 7 0
BBX 6 10 0 0
BITMAP
78
84
00
78
84
04
7C
84
84
7C
ENDCHAR
STARTCHAR uni0204
ENCODING 516
SWIDTH 960 0
DWIDTH 7 0
BBX 6 12 0 0
BITMAP
48
24
00
FC
80
80
80
F0
80
80
80
FC
ENDCHAR
STARTCHAR uni0205
ENCODING 517
SWIDTH 960 0
DWIDTH 7 0
BBX 6 10 0 0
BITMAP
48
24
00
78
84
84
FC
80
84
78
ENDCHAR
STARTCHAR uni0206
ENCODING 518
SWIDTH 960 0
DWIDTH 7 0
BBX 6 12 0 0
BITMAP
78
84
00
FC
80
80
80
F0
80
80
80
FC
ENDCHAR
STARTCHAR uni0207
ENCODING 519
SWIDTH 960 0
DWIDTH 7 0
BBX 6 10 0 0
BITMAP
78
84
00
78
84
84
FC
80
84
78
ENDCHAR
STARTCHAR uni0208
ENCODING 520
SWIDTH 960 0
DWIDTH 7 0
BBX 5 12 1 0
BITMAP
90
48
00
F8
20
20
20
20
20
20
20
F8
ENDCHAR
STARTCHAR uni0209
ENCODING 521
SWIDTH 960 0
DWIDTH 7 0
BBX 5 10 1 0
BITMAP
90
48
00
60
20
20
20
20
20
F8
ENDCHAR
STARTCHAR uni020A
ENCODING 522
SWIDTH 960 0
DWIDTH 7 0
BBX 5 12 1 0
BITMAP
70
88
00
F8
20
20
20
20
20
20
20
F8
ENDCHAR
STARTCHAR uni020B
ENCODING 523
SWIDTH 960 0
DWIDTH 7 0
BBX 5 10 1 0
BITMAP
70
88
00
60
20
20
20
20
20
F8
ENDCHAR
STARTCHAR uni020C
ENCODING 524
SWIDTH 960 0
DWIDTH 7 0
BBX 6 12 0 0
BITMAP
48
24
00
78
84
84
84
84
84
84
84
78
ENDCHAR
STARTCHAR uni020D
ENCODING 525
SWIDTH 960 0
DWIDTH 7 0
BBX 6 10 0 0
BITMAP
48
24
00
78
84
84
84
84
84
78
ENDCHAR
STARTCHAR uni020E
ENCODING 526
SWIDTH 960 0
DWIDTH 7 0
BBX 6 12 0 0
BITMAP
78
84
00
78
84
84
84
84
84
84
84
78
ENDCHAR
STARTCHAR uni020F
ENCODING 527
SWIDTH 960 0
DWIDTH 7 0
BBX 6 10 0 0
BITMAP
78
84
00
78
84
84
84
84
84
78
ENDCHAR
STARTCHAR uni0210
ENCODING 528
SWIDTH 960 0
DWIDTH 7 0
BBX 6 12 0 0
BITMAP
48
24
00
F8
84
84
84
F8
90
88
84
84
ENDCHAR
STARTCHAR uni0211
ENCODING 529
SWIDTH 960 0
DWIDTH 7 0
BBX 6 10 0 0
BITMAP
48
24
00
B8
C4
84
80
80
80
80
ENDCHAR
STARTCHAR uni0212
ENCODING 530
SWIDTH 960 0
DWIDTH 7 0
BBX 6 12 0 0
BITMAP
30
48
00
F8
84
84
84
F8
90
88
84
84
ENDCHAR
STARTCHAR uni0213
ENCODING 531
SWIDTH 960 0
DWIDTH 7 0
BBX 6 10 0 0
BITMAP
30
48
00
B8
C4
84
80
80
80
80
ENDCHAR
STARTCHAR uni0214
ENCODING 532
SWIDTH 960 0
DWIDTH 7 0
BBX 6 12 0 0
BITMAP
48
24
00
84
84
84
84
84
84
84
84
78
ENDCHAR
STARTCHAR uni0215
ENCODING 533
SWIDTH 960 0
DWIDTH 7 0
BBX 6 10 0 0
BITMAP
48
24
00
84
84
84
84
84
8C
74
ENDCHAR
STARTCHAR uni0216
ENCODING 534
SWIDTH 960 0
DWIDTH 7 0
BBX 6 12 0 0
BITMAP
78
84
00
84
84
84
84
84
84
84
84
78
ENDCHAR
STARTCHAR uni0217
ENCODING 535
SWIDTH 960 0
DWIDTH 7 0
BBX 6 10 0 0
BITMAP
78
84
00
84
84
84
84
84
8C
74
ENDCHAR
STARTCHAR Scommaaccent
ENCODING 536
SWIDTH 960 0
DWIDTH 7 0
BBX 6 12 0 -2
BITMAP
78
84
84
80
60
18
04
84
84
78
10
20
ENDCHAR
STARTCHAR scommaaccent
ENCODING 537
SWIDTH 960 0
DWIDTH 7 0
BBX 6 9 0 -2
BITMAP
78
84
40
30
08
84
78
10
20
ENDCHAR
STARTCHAR Tcommaaccent
ENCODING 538
SWIDTH 960 0
DWIDTH 7 0
BBX 7 12 0 -2
BITMAP
FE
10
10
10
10
10
10
10
10
10
08
10
ENDCHAR
STARTCHAR tcommaaccent
ENCODING 539
SWIDTH 960 0
DWIDTH 7 0
BBX 6 12 0 -2
BITMAP
20
20
20
F8
20
20
20
20
24
18
08
10
ENDCHAR
STARTCHAR uni021C
ENCODING 540
SWIDTH 960 0
DWIDTH 7 0
BBX 6 10 0 0
BITMAP
FC
04
08
10
38
04
04
04
84
78
ENDCHAR
STARTCHAR uni021D
ENCODING 541
SWIDTH 960 0
DWIDTH 7 0
BBX 6 9 0 -2
BITMAP
FC
04
08
10
38
04
04
84
78
ENDCHAR
STARTCHAR uni021E
ENCODING 542
SWIDTH 960 0
DWIDTH 7 0
BBX 6 12 0 0
BITMAP
48
30
84
84
84
84
FC
84
84
84
84
84
ENDCHAR
STARTCHAR uni021F
ENCODING 543
SWIDTH 960 0
DWIDTH 7 0
BBX 6 11 0 0
BITMAP
24
98
80
80
B8
C4
84
84
84
84
84
ENDCHAR
STARTCHAR uni0220
ENCODING 544
SWIDTH 960 0
DWIDTH 7 0
BBX 6 11 0 -1
BITMAP
DC
64
44
44
44
44
44
44
04
04
04
ENDCHAR
STARTCHAR uni0222
ENCODING 546
SWIDTH 960 0
DWIDTH 7 0
BBX 6 10 0 0
BITMAP
48
84
84
84
78
84
84
84
84
78
ENDCHAR
STARTCHAR uni0223
ENCODING 547
SWIDTH 960 0
DWIDTH 7 0
BBX 5 10 1 0
BITMAP
50
88
88
88
70
88
88
88
88
70
ENDCHAR
STARTCHAR uni0224
ENCODING 548
SWIDTH 960 0
DWIDTH 7 0
BBX 6 12 0 -2
BITMAP
FC
04
08
10
10
20
40
40
80
FC
04
18
ENDCHAR
STARTCHAR uni0225
ENCODING 549
SWIDTH 960 0
DWIDTH 7 0
BBX 6 9 0 -2
BITMAP
FC
08
10
20
20
40
FC
04
18
ENDCHAR
STARTCHAR uni0226
ENCODING 550
SWIDTH 960 0
DWIDTH 7 0
BBX 6 11 0 0
BITMAP
30
00
30
48
84
84
84
FC
84
84
84
ENDCHAR
STARTCHAR uni0227
ENCODING 551
SWIDTH 960 0
DWIDTH 7 0
BBX 6 9 0 0
BITMAP
30
00
78
84
04
7C
84
84
7C
ENDCHAR
STARTCHAR uni0228
ENCODING 552
SWIDTH 960 0
DWIDTH 7 0
BBX 6 12 0 -2
BITMAP
FC
80
80
80
F0
80
80
80
80
FC
04
18
ENDCHAR
STARTCHAR uni0229
ENCODING 553
SWIDTH 960 0
DWIDTH 7 0
BBX 6 9 0 -2
BITMAP
78
84
84
FC
80
84
78
08
30
ENDCHAR
STARTCHAR uni022A
ENCODING 554
SWIDTH 960 0
DWIDTH 7 0
BBX 6 12 0 0
BITMAP
78
00
48
00
78
84
84
84
84
84
84
78
ENDCHAR
STARTCHAR uni022B
ENCODING 555
SWIDTH 960 0
DWIDTH 7 0
BBX 6 11 0 0
BITMAP
78
00
48
00
78
84
84
84
84
84
78
ENDCHAR
STARTCHAR uni022C
ENCODING 556
SWIDTH 960 0
DWIDTH 7 0
BBX 6 12 0 0
BITMAP
78
64
98
00
78
84
84
84
84
84
84
78
ENDCHAR
STARTCHAR uni022D
ENCODING 557
SWIDTH 960 0
DWIDTH 7 0
BBX 6 12 0 0
BITMAP
78
00
64
98
00
78
84
84
84
84
84
78
ENDCHAR
STARTCHAR uni022E
ENCODING 558
SWIDTH 960 0
DWIDTH 7 0
BBX 6 11 0 0
BITMAP
30
00
78
84
84
84
84
84
84
84
78
ENDCHAR
STARTCHAR uni022F
ENCODING 559
SWIDTH 960 0
DWIDTH 7 0
BBX 6 9 0 0
BITMAP
30
00
78
84
84
84
84
84
78
ENDCHAR
STARTCHAR uni0230
ENCODING 560
SWIDTH 960 0
DWIDTH 7 0
BBX 6 12 0 0
BITMAP
78
00
30
00
78
84
84
84
84
84
84
78
ENDCHAR
STARTCHAR uni0231
ENCODING 561
SWIDTH 960 0
DWIDTH 7 0
BBX 6 11 0 0
BITMAP
78
00
30
00
78
84
84
84
84
84
78
ENDCHAR
STARTCHAR uni0232
ENCODING 562
SWIDTH 960 0
DWIDTH 7 0
BBX 5 12 1 0
BITMAP
F8
00
88
88
88
50
50
20
20
20
20
20
ENDCHAR
STARTCHAR uni0233
ENCODING 563
SWIDTH 960 0
DWIDTH 7 0
BBX 6 11 0 -2
BITMAP
78
00
84
84
84
84
8C
74
04
84
78
ENDCHAR
STARTCHAR uni0250
ENCODING 592
SWIDTH 960 0
DWIDTH 7 0
BBX 6 7 0 0
BITMAP
F8
84
84
F8
80
84
78
ENDCHAR
STARTCHAR uni0251
ENCODING 593
SWIDTH 960 0
DWIDTH 7 0
BBX 6 7 0 0
BITMAP
74
8C
84
84
84
8C
74
ENDCHAR
STARTCHAR uni0252
ENCODING 594
SWIDTH 960 0
DWIDTH 7 0
BBX 6 7 0 0
BITMAP
B8
C4
84
84
84
C4
B8
ENDCHAR
STARTCHAR uni0253
ENCODING 595
SWIDTH 960 0
DWIDTH 7 0
BBX 6 10 0 0
BITMAP
70
88
80
80
B8
C4
84
84
C4
B8
ENDCHAR
STARTCHAR uni0254
ENCODING 596
SWIDTH 960 0
DWIDTH 7 0
BBX 6 7 0 0
BITMAP
78
84
04
04
04
84
78
ENDCHAR
STARTCHAR uni0255
ENCODING 597
SWIDTH 960 0
DWIDTH 7 0
BBX 6 8 0 -1
BITMAP
78
84
80
80
98
A4
78
20
ENDCHAR
STARTCHAR uni0256
ENCODING 598
SWIDTH 960 0
DWIDTH 7 0
BBX 7 12 0 -2
BITMAP
08
08
08
68
98
88
88
88
98
6A
0A
04
ENDCHAR
STARTCHAR uni0257
ENCODING 599
SWIDTH 960 0
DWIDTH 7 0
BBX 7 11 0 0
BITMAP
04
0A
0A
08
68
98
88
88
88
98
68
ENDCHAR
STARTCHAR uni0258
ENCODING 600
SWIDTH 960 0
DWIDTH 7 0
BBX 6 7 0 0
BITMAP
78
84
84
FC
04
84
78
ENDCHAR
STARTCHAR uni0259
ENCODING 601
SWIDTH 960 0
DWIDTH 7 0
BBX 6 7 0 0
BITMAP
78
84
04
FC
84
84
78
ENDCHAR
STARTCHAR uni025A
ENCODING 602
SWIDTH 960 0
DWIDTH 7 0
BBX 6 7 0 0
BITMAP
60
90
38
54
90
90
60
ENDCHAR
STARTCHAR uni025B
ENCODING 603
SWIDTH 960 0
DWIDTH 7 0
BBX 6 7 0 0
BITMAP
78
84
80
70
80
84
78
ENDCHAR
STARTCHAR uni025C
ENCODING 604
SWIDTH 960 0
DWIDTH 7 0
BBX 6 7 0 0
BITMAP
78
84
04
38
04
84
78
ENDCHAR
STARTCHAR uni025D
ENCODING 605
SWIDTH 960 0
DWIDTH 7 0
BBX 7 7 0 0
BITMAP
74
8A
08
30
08
88
70
ENDCHAR
STARTCHAR uni025E
ENCODING 606
SWIDTH 960 0
DWIDTH 7 0
BBX 6 7 0 0
BITMAP
78
84
84
B8
84
84
78
ENDCHAR
STARTCHAR uni025F
ENCODING 607
SWIDTH 960 0
DWIDTH 7 0
BBX 6 10 0 -2
BITMAP
10
10
10
10
10
7C
10
10
90
60
ENDCHAR
STARTCHAR uni0260
ENCODING 608
SWIDTH 960 0
DWIDTH 7 0
BBX 6 11 0 -2
BITMAP
04
08
68
98
88
88
98
68
08
88
70
ENDCHAR
STARTCHAR uni0261
ENCODING 609
SWIDTH 960 0
DWIDTH 7 0
BBX 6 9 0 -2
BITMAP
74
8C
84
84
8C
74
04
84
78
ENDCHAR
STARTCHAR uni0262
ENCODING 610
SWIDTH 960 0
DWIDTH 7 0
BBX 6 7 0 0
BITMAP
78
84
80
9C
84
8C
74
ENDCHAR
STARTCHAR uni0263
ENCODING 611
SWIDTH 960 0
DWIDTH 7 0
BBX 5 9 1 -2
BITMAP
88
88
50
50
20
20
50
50
20
ENDCHAR
STARTCHAR uni0264
ENCODING 612
SWIDTH 960 0
DWIDTH 7 0
BBX 7 7 0 0
BITMAP
44
AA
28
10
10
28
10
ENDCHAR
STARTCHAR uni0265
ENCODING 613
SWIDTH 960 0
DWIDTH 7 0
BBX 6 9 0 -2
BITMAP
84
84
84
84
84
8C
74
04
04
ENDCHAR
STARTCHAR uni0266
ENCODING 614
SWIDTH 960 0
DWIDTH 7 0
BBX 6 11 0 0
BITMAP
70
88
80
80
B8
C4
84
84
84
84
84
ENDCHAR
STARTCHAR uni0267
ENCODING 615
SWIDTH 960 0
DWIDTH 7 0
BBX 6 13 0 -2
BITMAP
70
88
80
80
B8
C4
84
84
84
84
84
24
18
ENDCHAR
STARTCHAR uni0268
ENCODING 616
SWIDTH 960 0
DWIDTH 7 0
BBX 5 10 1 0
BITMAP
20
20
00
60
20
20
F8
20
20
F8
ENDCHAR
STARTCHAR uni0269
ENCODING 617
SWIDTH 960 0
DWIDTH 7 0
BBX 4 7 2 0
BITMAP
C0
40
40
40
40
40
30
ENDCHAR
STARTCHAR uni026A
ENCODING 618
SWIDTH 960 0
DWIDTH 7 0
BBX 5 7 1 0
BITMAP
F8
20
20
20
20
20
F8
ENDCHAR
STARTCHAR uni026B
ENCODING 619
SWIDTH 960 0
DWIDTH 7 0
BBX 5 10 1 0
BITMAP
60
20
20
20
68
B0
20
20
20
F8
ENDCHAR
STARTCHAR uni026C
ENCODING 620
SWIDTH 960 0
DWIDTH 7 0
BBX 5 10 1 0
BITMAP
60
20
20
60
A0
70
20
20
20
F8
ENDCHAR
STARTCHAR uni026D
ENCODING 621
SWIDTH 960 0
DWIDTH 7 0
BBX 4 12 2 -2
BITMAP
C0
40
40
40
40
40
40
40
40
40
40
30
ENDCHAR
STARTCHAR uni026E
ENCODING 622
SWIDTH 960 0
DWIDTH 7 0
BBX 7 12 0 -2
BITMAP
C0
40
40
5E
42
44
48
5C
42
E2
02
3C
ENDCHAR
STARTCHAR uni026F
ENCODING 623
SWIDTH 960 0
DWIDTH 7 0
BBX 5 7 1 0
BITMAP
88
A8
A8
A8
A8
A8
58
ENDCHAR
STARTCHAR uni0270
ENCODING 624
SWIDTH 960 0
DWIDTH 7 0
BBX 5 9 1 -2
BITMAP
88
A8
A8
A8
A8
A8
58
08
08
ENDCHAR
STARTCHAR uni0271
ENCODING 625
SWIDTH 960 0
DWIDTH 7 0
BBX 5 9 1 -2
BITMAP
D0
A8
A8
A8
A8
A8
88
08
30
ENDCHAR
STARTCHAR uni0272
ENCODING 626
SWIDTH 960 0
DWIDTH 7 0
BBX 7 8 0 -1
BITMAP
2C
32
22
22
22
A2
A2
40
ENDCHAR
STARTCHAR uni0273
ENCODING 627
SWIDTH 960 0
DWIDTH 7 0
BBX 7 9 0 -2
BITMAP
B0
C8
88
88
88
88
8A
0A
04
ENDCHAR
STARTCHAR uni0274
ENCODING 628
SWIDTH 960 0
DWIDTH 7 0
BBX 6 7 0 0
BITMAP
84
C4
A4
94
8C
84
84
ENDCHAR
STARTCHAR uni0275
ENCODING 629
SWIDTH 960 0
DWIDTH 7 0
BBX 6 7 0 0
BITMAP
78
84
84
FC
84
84
78
ENDCHAR
STARTCHAR uni0276
ENCODING 630
SWIDTH 960 0
DWIDTH 7 0
BBX 6 7 0 0
BITMAP
7C
90
90
9C
90
90
7C
ENDCHAR
STARTCHAR uni0277
ENCODING 631
SWIDTH 960 0
DWIDTH 7 0
BBX 5 7 1 0
BITMAP
70
88
A8
A8
A8
A8
50
ENDCHAR
STARTCHAR uni0278
ENCODING 632
SWIDTH 960 0
DWIDTH 7 0
BBX 5 11 1 -2
BITMAP
20
20
70
A8
A8
A8
A8
A8
70
20
20
ENDCHAR
STARTCHAR uni0279
ENCODING 633
SWIDTH 960 0
DWIDTH 7 0
BBX 6 7 0 0
BITMAP
04
04
04
04
84
8C
74
ENDCHAR
STARTCHAR uni027A
ENCODING 634
SWIDTH 960 0
DWIDTH 7 0
BBX 6 10 0 0
BITMAP
04
04
04
04
04
04
04
84
8C
74
ENDCHAR
STARTCHAR uni027B
ENCODING 635
SWIDTH 960 0
DWIDTH 7 0
BBX 6 9 0 -2
BITMAP
08
08
08
08
88
98
68
08
04
ENDCHAR
STARTCHAR uni027C
ENCODING 636
SWIDTH 960 0
DWIDTH 7 0
BBX 6 9 0 -2
BITMAP
B8
C4
84
80
80
80
80
80
80
ENDCHAR
STARTCHAR uni027D
ENCODING 637
SWIDTH 960 0
DWIDTH 7 0
BBX 6 9 0 -2
BITMAP
B8
C4
84
80
80
80
80
88
70
ENDCHAR
STARTCHAR uni027E
ENCODING 638
SWIDTH 960 0
DWIDTH 7 0
BBX 6 7 0 0
BITMAP
38
44
84
80
80
80
80
ENDCHAR
STARTCHAR uni027F
ENCODING 639
SWIDTH 960 0
DWIDTH 7 0
BBX 6 7 0 0
BITMAP
70
88
84
04
04
04
04
ENDCHAR
STARTCHAR uni0280
ENCODING 640
SWIDTH 960 0
DWIDTH 7 0
BBX 6 7 0 0
BITMAP
F8
84
84
F8
84
84
84
ENDCHAR
STARTCHAR uni0281
ENCODING 641
SWIDTH 960 0
DWIDTH 7 0
BBX 6 7 0 0
BITMAP
84
84
84
F8
84
84
F8
ENDCHAR
STARTCHAR uni0282
ENCODING 642
SWIDTH 960 0
DWIDTH 7 0
BBX 6 9 0 -2
BITMAP
78
84
40
30
08
84
F8
80
60
ENDCHAR
STARTCHAR uni0283
ENCODING 643
SWIDTH 960 0
DWIDTH 7 0
BBX 5 13 1 -2
BITMAP
10
28
28
20
20
20
20
20
20
20
A0
A0
40
ENDCHAR
STARTCHAR uni0284
ENCODING 644
SWIDTH 960 0
DWIDTH 7 0
BBX 5 13 1 -2
BITMAP
10
28
28
20
20
20
20
20
70
20
A0
A0
40
ENDCHAR
STARTCHAR uni0285
ENCODING 645
SWIDTH 960 0
DWIDTH 7 0
BBX 5 8 1 0
BITMAP
40
A0
A0
20
20
28
28
10
ENDCHAR
STARTCHAR uni0286
ENCODING 646
SWIDTH 960 0
DWIDTH 7 0
BBX 5 13 1 -2
BITMAP
10
28
28
20
20
20
20
20
20
70
A8
A8
40
ENDCHAR
STARTCHAR uni0287
ENCODING 647
SWIDTH 960 0
DWIDTH 7 0
BBX 6 9 0 -2
BITMAP
60
90
10
10
10
7C
10
10
10
ENDCHAR
STARTCHAR uni0288
ENCODING 648
SWIDTH 960 0
DWIDTH 7 0
BBX 6 12 0 -2
BITMAP
20
20
20
F8
20
20
20
20
20
20
24
18
ENDCHAR
STARTCHAR uni0289
ENCODING 649
SWIDTH 960 0
DWIDTH 7 0
BBX 7 7 0 0
BITMAP
44
44
FE
44
44
4C
34
ENDCHAR
STARTCHAR uni028A
ENCODING 650
SWIDTH 960 0
DWIDTH 7 0
BBX 6 7 0 0
BITMAP
CC
48
84
84
84
84
78
ENDCHAR
STARTCHAR uni028B
ENCODING 651
SWIDTH 960 0
DWIDTH 7 0
BBX 6 7 0 0
BITMAP
90
88
88
84
84
84
78
ENDCHAR
STARTCHAR uni028C
ENCODING 652
SWIDTH 960 0
DWIDTH 7 0
BBX 5 7 1 0
BITMAP
20
20
50
50
88
88
88
ENDCHAR
STARTCHAR uni028D
ENCODING 653
SWIDTH 960 0
DWIDTH 7 0
BBX 5 7 1 0
BITMAP
50
A8
A8
A8
A8
88
88
ENDCHAR
STARTCHAR uni028E
ENCODING 654
SWIDTH 960 0
DWIDTH 7 0
BBX 6 9 0 0
BITMAP
08
14
10
20
20
50
50
88
88
ENDCHAR
STARTCHAR uni028F
ENCODING 655
SWIDTH 960 0
DWIDTH 7 0
BBX 7 7 0 0
BITMAP
82
44
28
10
10
10
10
ENDCHAR
STARTCHAR uni0290
ENCODING 656
SWIDTH 960 0
DWIDTH 7 0
BBX 6 9 0 -2
BITMAP
FC
08
10
20
20
40
F8
08
04
ENDCHAR
STARTCHAR uni0291
ENCODING 657
SWIDTH 960 0
DWIDTH 7 0
BBX 6 8 0 -1
BITMAP
FC
08
10
20
28
54
F8
10
ENDCHAR
STARTCHAR uni0292
ENCODING 658
SWIDTH 960 0
DWIDTH 7 0
BBX 6 9 0 -2
BITMAP
FC
08
10
20
78
04
84
84
78
ENDCHAR
STARTCHAR uni0293
ENCODING 659
SWIDTH 960 0
DWIDTH 7 0
BBX 6 9 0 -2
BITMAP
FC
08
10
20
78
04
64
94
78
ENDCHAR
STARTCHAR uni0294
ENCODING 660
SWIDTH 960 0
DWIDTH 7 0
BBX 5 10 1 0
BITMAP
70
88
88
10
20
20
20
20
20
20
ENDCHAR
STARTCHAR uni0295
ENCODING 661
SWIDTH 960 0
DWIDTH 7 0
BBX 5 10 1 0
BITMAP
70
88
88
40
20
20
20
20
20
20
ENDCHAR
STARTCHAR uni0296
ENCODING 662
SWIDTH 960 0
DWIDTH 7 0
BBX 5 10 1 0
BITMAP
20
20
20
20
20
20
10
88
88
70
ENDCHAR
STARTCHAR uni0297
ENCODING 663
SWIDTH 960 0
DWIDTH 7 0
BBX 6 11 0 -2
BITMAP
78
84
80
80
80
80
80
80
80
84
78
ENDCHAR
STARTCHAR uni0298
ENCODING 664
SWIDTH 960 0
DWIDTH 7 0
BBX 7 7 0 0
BITMAP
7C
82
82
92
82
82
7C
ENDCHAR
STARTCHAR uni0299
ENCODING 665
SWIDTH 960 0
DWIDTH 7 0
BBX 6 7 0 0
BITMAP
F8
84
84
F8
84
84
F8
ENDCHAR
STARTCHAR uni029A
ENCODING 666
SWIDTH 960 0
DWIDTH 7 0
BBX 6 7 0 0
BITMAP
78
84
84
74
84
84
78
ENDCHAR
STARTCHAR uni029B
ENCODING 667
SWIDTH 960 0
DWIDTH 7 0
BBX 7 8 0 0
BITMAP
06
78
84
80
9C
84
8C
74
ENDCHAR
STARTCHAR uni029C
ENCODING 668
SWIDTH 960 0
DWIDTH 7 0
BBX 6 7 0 0
BITMAP
84
84
84
FC
84
84
84
ENDCHAR
STARTCHAR uni029D
ENCODING 669
SWIDTH 960 0
DWIDTH 7 0
BBX 6 12 0 -2
BITMAP
10
10
00
30
10
10
10
10
78
94
90
60
ENDCHAR
STARTCHAR uni029E
ENCODING 670
SWIDTH 960 0
DWIDTH 7 0
BBX 6 9 0 -2
BITMAP
84
44
24
1C
14
24
44
04
04
ENDCHAR
STARTCHAR uni029F
ENCODING 671
SWIDTH 960 0
DWIDTH 7 0
BBX 6 7 0 0
BITMAP
80
80
80
80
80
80
FC
ENDCHAR
STARTCHAR uni02A0
ENCODING 672
SWIDTH 960 0
DWIDTH 7 0
BBX 7 11 0 -2
BITMAP
06
08
68
98
88
88
88
98
68
08
08
ENDCHAR
STARTCHAR uni02A1
ENCODING 673
SWIDTH 960 0
DWIDTH 7 0
BBX 5 10 1 0
BITMAP
70
88
88
10
20
20
F8
20
20
20
ENDCHAR
STARTCHAR uni02A2
ENCODING 674
SWIDTH 960 0
DWIDTH 7 0
BBX 5 10 1 0
BITMAP
70
88
88
40
20
20
F8
20
20
20
ENDCHAR
STARTCHAR uni02A3
ENCODING 675
SWIDTH 960 0
DWIDTH 7 0
BBX 6 10 0 0
BITMAP
20
20
20
7C
A4
A8
A8
A8
B0
7C
ENDCHAR
STARTCHAR uni02A4
ENCODING 676
SWIDTH 960 0
DWIDTH 7 0
BBX 6 11 0 -1
BITMAP
20
20
20
7C
A4
A8
B8
A4
A4
64
18
ENDCHAR
STARTCHAR uni02A5
ENCODING 677
SWIDTH 960 0
DWIDTH 7 0
BBX 6 12 0 -2
BITMAP
20
20
20
7C
A4
A8
A8
B0
BC
7C
10
20
ENDCHAR
STARTCHAR uni02A6
ENCODING 678
SWIDTH 960 0
DWIDTH 7 0
BBX 6 10 0 0
BITMAP
40
40
40
EC
50
50
48
44
44
38
ENDCHAR
STARTCHAR uni02A7
ENCODING 679
SWIDTH 960 0
DWIDTH 7 0
BBX 7 14 0 -2
BITMAP
04
0A
48
48
48
E8
48
48
48
48
48
38
28
10
ENDCHAR
STARTCHAR uni02A8
ENCODING 680
SWIDTH 960 0
DWIDTH 7 0
BBX 6 11 0 -1
BITMAP
40
40
40
EC
50
50
50
50
54
2C
08
ENDCHAR
STARTCHAR uni02A9
ENCODING 681
SWIDTH 960 0
DWIDTH 7 0
BBX 7 12 0 -2
BITMAP
30
48
40
40
F4
5A
52
52
52
52
02
0C
ENDCHAR
STARTCHAR uni02AA
ENCODING 682
SWIDTH 960 0
DWIDTH 7 0
BBX 7 10 0 0
BITMAP
C0
40
40
5C
62
60
5C
42
62
FC
ENDCHAR
STARTCHAR uni02AB
ENCODING 683
SWIDTH 960 0
DWIDTH 7 0
BBX 7 10 0 0
BITMAP
C0
40
40
7E
42
44
48
50
60
FE
ENDCHAR
STARTCHAR uni02AC
ENCODING 684
SWIDTH 960 0
DWIDTH 7 0
BBX 5 9 1 0
BITMAP
A8
A8
50
50
00
A8
A8
50
50
ENDCHAR
STARTCHAR uni02AD
ENCODING 685
SWIDTH 960 0
DWIDTH 7 0
BBX 5 7 1 1
BITMAP
F8
88
88
00
F8
88
88
ENDCHAR
STARTCHAR uni02B0
ENCODING 688
SWIDTH 960 0
DWIDTH 7 0
BBX 3 5 1 6
BITMAP
80
80
C0
A0
A0
ENDCHAR
STARTCHAR uni02B1
ENCODING 689
SWIDTH 960 0
DWIDTH 7 0
BBX 3 5 1 6
BITMAP
40
80
C0
A0
A0
ENDCHAR
STARTCHAR uni02B2
ENCODING 690
SWIDTH 960 0
DWIDTH 7 0
BBX 3 7 1 4
BITMAP
20
00
20
20
20
A0
40
ENDCHAR
STARTCHAR uni02B3
ENCODING 691
SWIDTH 960 0
DWIDTH 7 0
BBX 3 4 1 6
BITMAP
C0
A0
80
80
ENDCHAR
STARTCHAR uni02B4
ENCODING 692
SWIDTH 960 0
DWIDTH 7 0
BBX 3 4 1 6
BITMAP
20
20
A0
60
ENDCHAR
STARTCHAR uni02B5
ENCODING 693
SWIDTH 960 0
DWIDTH 7 0
BBX 4 5 1 5
BITMAP
20
20
A0
60
30
ENDCHAR
STARTCHAR uni02B6
ENCODING 694
SWIDTH 960 0
DWIDTH 7 0
BBX 3 4 1 6
BITMAP
A0
C0
A0
C0
ENDCHAR
STARTCHAR uni02B7
ENCODING 695
SWIDTH 960 0
DWIDTH 7 0
BBX 5 4 1 6
BITMAP
A8
A8
50
50
ENDCHAR
STARTCHAR uni02B8
ENCODING 696
SWIDTH 960 0
DWIDTH 7 0
BBX 3 5 1 5
BITMAP
A0
A0
40
40
80
ENDCHAR
STARTCHAR uni02B9
ENCODING 697
SWIDTH 960 0
DWIDTH 7 0
BBX 2 4 1 7
BITMAP
40
40
80
80
ENDCHAR
STARTCHAR uni02BA
ENCODING 698
SWIDTH 960 0
DWIDTH 7 0
BBX 5 4 1 7
BITMAP
48
48
90
90
ENDCHAR
STARTCHAR uni02BB
ENCODING 699
SWIDTH 960 0
DWIDTH 7 0
BBX 2 4 2 7
BITMAP
40
80
80
C0
ENDCHAR
STARTCHAR afii57929
ENCODING 700
SWIDTH 960 0
DWIDTH 7 0
BBX 2 4 2 7
BITMAP
C0
40
40
80
ENDCHAR
STARTCHAR afii64937
ENCODING 701
SWIDTH 960 0
DWIDTH 7 0
BBX 2 4 2 7
BITMAP
C0
80
80
40
ENDCHAR
STARTCHAR uni02BE
ENCODING 702
SWIDTH 960 0
DWIDTH 7 0
BBX 2 4 2 7
BITMAP
80
40
40
80
ENDCHAR
STARTCHAR uni02BF
ENCODING 703
SWIDTH 960 0
DWIDTH 7 0
BBX 2 4 2 7
BITMAP
40
80
80
40
ENDCHAR
STARTCHAR uni02C0
ENCODING 704
SWIDTH 960 0
DWIDTH 7 0
BBX 3 5 1 6
BITMAP
C0
20
40
40
40
ENDCHAR
STARTCHAR uni02C1
ENCODING 705
SWIDTH 960 0
DWIDTH 7 0
BBX 3 5 1 6
BITMAP
60
80
40
40
40
ENDCHAR
STARTCHAR uni02C2
ENCODING 706
SWIDTH 960 0
DWIDTH 7 0
BBX 4 3 1 8
BITMAP
30
C0
30
ENDCHAR
STARTCHAR uni02C3
ENCODING 707
SWIDTH 960 0
DWIDTH 7 0
BBX 4 3 1 8
BITMAP
C0
30
C0
ENDCHAR
STARTCHAR uni02C4
ENCODING 708
SWIDTH 960 0
DWIDTH 7 0
BBX 5 3 1 8
BITMAP
20
50
88
ENDCHAR
STARTCHAR uni02C5
ENCODING 709
SWIDTH 960 0
DWIDTH 7 0
BBX 5 3 1 8
BITMAP
88
50
20
ENDCHAR
STARTCHAR circumflex
ENCODING 710
SWIDTH 960 0
DWIDTH 7 0
BBX 3 2 2 9
BITMAP
40
A0
ENDCHAR
STARTCHAR caron
ENCODING 711
SWIDTH 960 0
DWIDTH 7 0
BBX 3 2 2 9
BITMAP
A0
40
ENDCHAR
STARTCHAR uni02C8
ENCODING 712
SWIDTH 960 0
DWIDTH 7 0
BBX 1 3 3 8
BITMAP
80
80
80
ENDCHAR
STARTCHAR macron
ENCODING 713
SWIDTH 960 0
DWIDTH 7 0
BBX 5 1 1 10
BITMAP
F8
ENDCHAR
STARTCHAR uni02CA
ENCODING 714
SWIDTH 960 0
DWIDTH 7 0
BBX 2 2 2 9
BITMAP
40
80
ENDCHAR
STARTCHAR uni02CB
ENCODING 715
SWIDTH 960 0
DWIDTH 7 0
BBX 2 2 2 9
BITMAP
80
40
ENDCHAR
STARTCHAR uni02CC
ENCODING 716
SWIDTH 960 0
DWIDTH 7 0
BBX 1 3 3 -1
BITMAP
80
80
80
ENDCHAR
STARTCHAR uni02CD
ENCODING 717
SWIDTH 960 0
DWIDTH 7 0
BBX 5 1 1 -1
BITMAP
F8
ENDCHAR
STARTCHAR uni02CE
ENCODING 718
SWIDTH 960 0
DWIDTH 7 0
BBX 2 2 2 -1
BITMAP
80
40
ENDCHAR
STARTCHAR uni02CF
ENCODING 719
SWIDTH 960 0
DWIDTH 7 0
BBX 2 2 2 -1
BITMAP
40
80
ENDCHAR
STARTCHAR uni02D0
ENCODING 720
SWIDTH 960 0
DWIDTH 7 0
BBX 3 7 2 0
BITMAP
E0
40
00
00
00
40
E0
ENDCHAR
STARTCHAR uni02D1
ENCODING 721
SWIDTH 960 0
DWIDTH 7 0
BBX 3 2 2 5
BITMAP
E0
40
ENDCHAR
STARTCHAR uni02D2
ENCODING 722
SWIDTH 960 0
DWIDTH 7 0
BBX 2 4 2 2
BITMAP
80
40
40
80
ENDCHAR
STARTCHAR uni02D3
ENCODING 723
SWIDTH 960 0
DWIDTH 7 0
BBX 2 4 2 2
BITMAP
40
80
80
40
ENDCHAR
STARTCHAR uni02D4
ENCODING 724
SWIDTH 960 0
DWIDTH 7 0
BBX 3 2 2 10
BITMAP
40
E0
ENDCHAR
STARTCHAR uni02D5
ENCODING 725
SWIDTH 960 0
DWIDTH 7 0
BBX 3 2 2 9
BITMAP
E0
40
ENDCHAR
STARTCHAR uni02D6
ENCODING 726
SWIDTH 960 0
DWIDTH 7 0
BBX 3 3 2 9
BITMAP
40
E0
40
ENDCHAR
STARTCHAR uni02D7
ENCODING 727
SWIDTH 960 0
DWIDTH 7 0
BBX 3 1 2 10
BITMAP
E0
ENDCHAR
STARTCHAR breve
ENCODING 728
SWIDTH 960 0
DWIDTH 7 0
BBX 5 2 1 9
BITMAP
88
70
ENDCHAR
STARTCHAR dotaccent
ENCODING 729
SWIDTH 960 0
DWIDTH 7 0
BBX 1 1 3 10
BITMAP
80
ENDCHAR
STARTCHAR ring
ENCODING 730
SWIDTH 960 0
DWIDTH 7 0
BBX 3 3 2 9
BITMAP
40
A0
40
ENDCHAR
STARTCHAR ogonek
ENCODING 731
SWIDTH 960 0
DWIDTH 7 0
BBX 2 2 2 -2
BITMAP
80
C0
ENDCHAR
STARTCHAR tilde
ENCODING 732
SWIDTH 960 0
DWIDTH 7 0
BBX 4 2 1 9
BITMAP
50
A0
ENDCHAR
STARTCHAR hungarumlaut
ENCODING 733
SWIDTH 960 0
DWIDTH 7 0
BBX 5 2 1 9
BITMAP
48
90
ENDCHAR
STARTCHAR uni02DE
ENCODING 734
SWIDTH 960 0
DWIDTH 7 0
BBX 4 3 0 4
BITMAP
40
C0
30
ENDCHAR
STARTCHAR uni02DF
ENCODING 735
SWIDTH 960 0
DWIDTH 7 0
BBX 5 6 1 5
BITMAP
88
50
20
20
50
88
ENDCHAR
STARTCHAR uni02E0
ENCODING 736
SWIDTH 960 0
DWIDTH 7 0
BBX 3 4 1 6
BITMAP
A0
A0
40
60
ENDCHAR
STARTCHAR uni02E1
ENCODING 737
SWIDTH 960 0
DWIDTH 7 0
BBX 2 4 2 6
BITMAP
80
80
80
40
ENDCHAR
STARTCHAR uni02E2
ENCODING 738
SWIDTH 960 0
DWIDTH 7 0
BBX 2 4 1 6
BITMAP
40
80
40
80
ENDCHAR
STARTCHAR uni02E3
ENCODING 739
SWIDTH 960 0
DWIDTH 7 0
BBX 3 4 1 6
BITMAP
A0
40
A0
A0
ENDCHAR
STARTCHAR uni02E4
ENCODING 740
SWIDTH 960 0
DWIDTH 7 0
BBX 2 4 1 7
BITMAP
40
80
40
40
ENDCHAR
STARTCHAR uni02E5
ENCODING 741
SWIDTH 960 0
DWIDTH 7 0
BBX 3 9 1 0
BITMAP
E0
20
20
20
20
20
20
20
20
ENDCHAR
STARTCHAR uni02E6
ENCODING 742
SWIDTH 960 0
DWIDTH 7 0
BBX 3 9 1 0
BITMAP
20
20
E0
20
20
20
20
20
20
ENDCHAR
STARTCHAR uni02E7
ENCODING 743
SWIDTH 960 0
DWIDTH 7 0
BBX 3 9 1 0
BITMAP
20
20
20
20
E0
20
20
20
20
ENDCHAR
STARTCHAR uni02E8
ENCODING 744
SWIDTH 960 0
DWIDTH 7 0
BBX 3 9 1 0
BITMAP
20
20
20
20
20
20
E0
20
20
ENDCHAR
STARTCHAR uni02E9
ENCODING 745
SWIDTH 960 0
DWIDTH 7 0
BBX 3 9 1 0
BITMAP
20
20
20
20
20
20
20
20
E0
ENDCHAR
STARTCHAR uni02EA
ENCODING 746
SWIDTH 960 0
DWIDTH 7 0
BBX 4 6 0 0
BITMAP
80
80
80
80
80
F0
ENDCHAR
STARTCHAR uni02EB
ENCODING 747
SWIDTH 960 0
DWIDTH 7 0
BBX 4 7 0 0
BITMAP
80
80
80
F0
80
80
80
ENDCHAR
STARTCHAR uni02EC
ENCODING 748
SWIDTH 960 0
DWIDTH 7 0
BBX 3 2 2 -2
BITMAP
A0
40
ENDCHAR
STARTCHAR uni02ED
ENCODING 749
SWIDTH 960 0
DWIDTH 7 0
BBX 5 3 1 7
BITMAP
F8
00
F8
ENDCHAR
STARTCHAR uni02EE
ENCODING 750
SWIDTH 960 0
DWIDTH 7 0
BBX 5 3 1 7
BITMAP
D8
48
90
ENDCHAR
STARTCHAR gravecomb
ENCODING 768
SWIDTH 960 0
DWIDTH 7 0
BBX 2 2 2 10
BITMAP
80
40
ENDCHAR
STARTCHAR acutecomb
ENCODING 769
SWIDTH 960 0
DWIDTH 7 0
BBX 2 2 2 10
BITMAP
40
80
ENDCHAR
STARTCHAR uni0302
ENCODING 770
SWIDTH 960 0
DWIDTH 7 0
BBX 4 2 1 10
BITMAP
60
90
ENDCHAR
STARTCHAR tildecomb
ENCODING 771
SWIDTH 960 0
DWIDTH 7 0
BBX 4 2 1 10
BITMAP
50
A0
ENDCHAR
STARTCHAR uni0304
ENCODING 772
SWIDTH 960 0
DWIDTH 7 0
BBX 4 1 1 10
BITMAP
F0
ENDCHAR
STARTCHAR uni0305
ENCODING 773
SWIDTH 960 0
DWIDTH 7 0
BBX 6 1 0 10
BITMAP
FC
ENDCHAR
STARTCHAR uni0306
ENCODING 774
SWIDTH 960 0
DWIDTH 7 0
BBX 6 2 0 10
BITMAP
84
78
ENDCHAR
STARTCHAR uni0307
ENCODING 775
SWIDTH 960 0
DWIDTH 7 0
BBX 1 1 3 11
BITMAP
80
ENDCHAR
STARTCHAR uni0308
ENCODING 776
SWIDTH 960 0
DWIDTH 7 0
BBX 4 1 1 10
BITMAP
90
ENDCHAR
STARTCHAR hookabovecomb
ENCODING 777
SWIDTH 960 0
DWIDTH 7 0
BBX 4 3 1 9
BITMAP
60
90
20
ENDCHAR
STARTCHAR uni030A
ENCODING 778
SWIDTH 960 0
DWIDTH 7 0
BBX 4 3 1 9
BITMAP
60
90
60
ENDCHAR
STARTCHAR uni030B
ENCODING 779
SWIDTH 960 0
DWIDTH 7 0
BBX 5 2 1 10
BITMAP
48
90
ENDCHAR
STARTCHAR uni030C
ENCODING 780
SWIDTH 960 0
DWIDTH 7 0
BBX 4 2 1 10
BITMAP
90
60
ENDCHAR
STARTCHAR uni030D
ENCODING 781
SWIDTH 960 0
DWIDTH 7 0
BBX 1 2 3 10
BITMAP
80
80
ENDCHAR
STARTCHAR uni030E
ENCODING 782
SWIDTH 960 0
DWIDTH 7 0
BBX 3 2 2 10
BITMAP
A0
A0
ENDCHAR
STARTCHAR uni030F
ENCODING 783
SWIDTH 960 0
DWIDTH 7 0
BBX 5 2 1 10
BITMAP
90
48
ENDCHAR
STARTCHAR uni0310
ENCODING 784
SWIDTH 960 0
DWIDTH 7 0
BBX 6 3 0 9
BITMAP
30
84
78
ENDCHAR
STARTCHAR uni0311
ENCODING 785
SWIDTH 960 0
DWIDTH 7 0
BBX 6 2 0 10
BITMAP
78
84
ENDCHAR
STARTCHAR uni0312
ENCODING 786
SWIDTH 960 0
DWIDTH 7 0
BBX 2 3 2 8
BITMAP
40
80
C0
ENDCHAR
STARTCHAR uni0313
ENCODING 787
SWIDTH 960 0
DWIDTH 7 0
BBX 2 3 2 8
BITMAP
C0
40
80
ENDCHAR
STARTCHAR uni0314
ENCODING 788
SWIDTH 960 0
DWIDTH 7 0
BBX 2 3 2 8
BITMAP
C0
80
40
ENDCHAR
STARTCHAR uni0315
ENCODING 789
SWIDTH 960 0
DWIDTH 7 0
BBX 2 3 5 8
BITMAP
C0
40
80
ENDCHAR
STARTCHAR uni0316
ENCODING 790
SWIDTH 960 0
DWIDTH 7 0
BBX 3 2 2 -2
BITMAP
C0
60
ENDCHAR
STARTCHAR uni0317
ENCODING 791
SWIDTH 960 0
DWIDTH 7 0
BBX 3 2 4 -2
BITMAP
60
C0
ENDCHAR
STARTCHAR uni0318
ENCODING 792
SWIDTH 960 0
DWIDTH 7 0
BBX 3 3 3 -2
BITMAP
20
E0
20
ENDCHAR
STARTCHAR uni0319
ENCODING 793
SWIDTH 960 0
DWIDTH 7 0
BBX 3 3 2 -2
BITMAP
80
E0
80
ENDCHAR
STARTCHAR uni031A
ENCODING 794
SWIDTH 960 0
DWIDTH 7 0
BBX 4 3 2 8
BITMAP
F0
10
10
ENDCHAR
STARTCHAR uni031B
ENCODING 795
SWIDTH 960 0
DWIDTH 7 0
BBX 2 3 5 6
BITMAP
C0
40
80
ENDCHAR
STARTCHAR uni031C
ENCODING 796
SWIDTH 960 0
DWIDTH 7 0
BBX 2 3 3 -2
BITMAP
40
80
40
ENDCHAR
STARTCHAR uni031D
ENCODING 797
SWIDTH 960 0
DWIDTH 7 0
BBX 5 3 2 -2
BITMAP
20
20
F8
ENDCHAR
STARTCHAR uni031E
ENCODING 798
SWIDTH 960 0
DWIDTH 7 0
BBX 5 3 2 -2
BITMAP
F8
20
20
ENDCHAR
STARTCHAR uni031F
ENCODING 799
SWIDTH 960 0
DWIDTH 7 0
BBX 3 3 3 -2
BITMAP
40
E0
40
ENDCHAR
STARTCHAR uni0320
ENCODING 800
SWIDTH 960 0
DWIDTH 7 0
BBX 4 1 2 -1
BITMAP
F0
ENDCHAR
STARTCHAR uni0321
ENCODING 801
SWIDTH 960 0
DWIDTH 7 0
BBX 3 5 3 -1
BITMAP
20
20
20
A0
40
ENDCHAR
STARTCHAR uni0322
ENCODING 802
SWIDTH 960 0
DWIDTH 7 0
BBX 2 5 5 -1
BITMAP
80
80
80
80
40
ENDCHAR
STARTCHAR dotbelowcomb
ENCODING 803
SWIDTH 960 0
DWIDTH 7 0
BBX 1 1 3 -2
BITMAP
80
ENDCHAR
STARTCHAR uni0324
ENCODING 804
SWIDTH 960 0
DWIDTH 7 0
BBX 4 1 1 -2
BITMAP
90
ENDCHAR
STARTCHAR uni0325
ENCODING 805
SWIDTH 960 0
DWIDTH 7 0
BBX 4 3 2 -2
BITMAP
60
90
60
ENDCHAR
STARTCHAR uni0326
ENCODING 806
SWIDTH 960 0
DWIDTH 7 0
BBX 2 3 3 -2
BITMAP
C0
40
80
ENDCHAR
STARTCHAR uni0327
ENCODING 807
SWIDTH 960 0
DWIDTH 7 0
BBX 2 4 3 -2
BITMAP
80
C0
40
80
ENDCHAR
STARTCHAR uni0328
ENCODING 808
SWIDTH 960 0
DWIDTH 7 0
BBX 3 3 2 -2
BITMAP
40
80
E0
ENDCHAR
STARTCHAR uni0329
ENCODING 809
SWIDTH 960 0
DWIDTH 7 0
BBX 1 3 4 -2
BITMAP
80
80
80
ENDCHAR
STARTCHAR uni032A
ENCODING 810
SWIDTH 960 0
DWIDTH 7 0
BBX 4 2 2 -2
BITMAP
F0
90
ENDCHAR
STARTCHAR uni032B
ENCODING 811
SWIDTH 960 0
DWIDTH 7 0
BBX 6 2 1 -2
BITMAP
B4
48
ENDCHAR
STARTCHAR uni032C
ENCODING 812
SWIDTH 960 0
DWIDTH 7 0
BBX 4 3 2 -2
BITMAP
90
20
40
ENDCHAR
STARTCHAR uni032D
ENCODING 813
SWIDTH 960 0
DWIDTH 7 0
BBX 4 3 2 -2
BITMAP
40
20
90
ENDCHAR
STARTCHAR uni032E
ENCODING 814
SWIDTH 960 0
DWIDTH 7 0
BBX 4 2 2 -2
BITMAP
90
60
ENDCHAR
STARTCHAR uni032F
ENCODING 815
SWIDTH 960 0
DWIDTH 7 0
BBX 4 2 2 -2
BITMAP
60
90
ENDCHAR
STARTCHAR uni0330
ENCODING 816
SWIDTH 960 0
DWIDTH 7 0
BBX 6 2 1 -2
BITMAP
64
98
ENDCHAR
STARTCHAR uni0331
ENCODING 817
SWIDTH 960 0
DWIDTH 7 0
BBX 4 1 2 -1
BITMAP
F0
ENDCHAR
STARTCHAR uni0332
ENCODING 818
SWIDTH 960 0
DWIDTH 7 0
BBX 6 1 1 -1
BITMAP
FC
ENDCHAR
STARTCHAR uni0333
ENCODING 819
SWIDTH 960 0
DWIDTH 7 0
BBX 6 3 1 -2
BITMAP
FC
00
FC
ENDCHAR
STARTCHAR uni0334
ENCODING 820
SWIDTH 960 0
DWIDTH 7 0
BBX 6 2 1 5
BITMAP
64
98
ENDCHAR
STARTCHAR uni0335
ENCODING 821
SWIDTH 960 0
DWIDTH 7 0
BBX 4 1 2 5
BITMAP
F0
ENDCHAR
STARTCHAR uni0336
ENCODING 822
SWIDTH 960 0
DWIDTH 7 0
BBX 6 1 1 5
BITMAP
FC
ENDCHAR
STARTCHAR uni0337
ENCODING 823
SWIDTH 960 0
DWIDTH 7 0
BBX 4 7 2 2
BITMAP
10
20
20
40
40
80
80
ENDCHAR
STARTCHAR uni0338
ENCODING 824
SWIDTH 960 0
DWIDTH 7 0
BBX 6 14 0 -2
BITMAP
04
04
08
08
10
10
10
20
20
20
40
40
80
80
ENDCHAR
STARTCHAR uni0339
ENCODING 825
SWIDTH 960 0
DWIDTH 7 0
BBX 2 3 3 -2
BITMAP
80
40
80
ENDCHAR
STARTCHAR uni033A
ENCODING 826
SWIDTH 960 0
DWIDTH 7 0
BBX 4 2 2 -2
BITMAP
90
F0
ENDCHAR
STARTCHAR uni033B
ENCODING 827
SWIDTH 960 0
DWIDTH 7 0
BBX 3 3 2 -2
BITMAP
E0
A0
E0
ENDCHAR
STARTCHAR uni033C
ENCODING 828
SWIDTH 960 0
DWIDTH 7 0
BBX 6 2 1 -2
BITMAP
EC
30
ENDCHAR
STARTCHAR uni033D
ENCODING 829
SWIDTH 960 0
DWIDTH 7 0
BBX 4 3 2 9
BITMAP
90
60
90
ENDCHAR
STARTCHAR uni033E
ENCODING 830
SWIDTH 960 0
DWIDTH 7 0
BBX 2 4 3 8
BITMAP
40
80
40
80
ENDCHAR
STARTCHAR uni033F
ENCODING 831
SWIDTH 960 0
DWIDTH 7 0
BBX 6 3 1 9
BITMAP
FC
00
FC
ENDCHAR
STARTCHAR uni0340
ENCODING 832
SWIDTH 960 0
DWIDTH 7 0
BBX 2 2 2 10
BITMAP
80
40
ENDCHAR
STARTCHAR uni0341
ENCODING 833
SWIDTH 960 0
DWIDTH 7 0
BBX 2 2 2 10
BITMAP
40
80
ENDCHAR
STARTCHAR uni0342
ENCODING 834
SWIDTH 960 0
DWIDTH 7 0
BBX 6 2 1 10
BITMAP
64
98
ENDCHAR
STARTCHAR uni0343
ENCODING 835
SWIDTH 960 0
DWIDTH 7 0
BBX 2 3 4 9
BITMAP
C0
40
80
ENDCHAR
STARTCHAR uni0344
ENCODING 836
SWIDTH 960 0
DWIDTH 7 0
BBX 6 3 1 9
BITMAP
10
10
A4
ENDCHAR
STARTCHAR uni0345
ENCODING 837
SWIDTH 960 0
DWIDTH 7 0
BBX 3 3 3 -2
BITMAP
80
A0
40
ENDCHAR
STARTCHAR uni0346
ENCODING 838
SWIDTH 960 0
DWIDTH 7 0
BBX 4 2 2 10
BITMAP
F0
90
ENDCHAR
STARTCHAR uni0347
ENCODING 839
SWIDTH 960 0
DWIDTH 7 0
BBX 4 3 2 -2
BITMAP
F0
00
F0
ENDCHAR
STARTCHAR uni0348
ENCODING 840
SWIDTH 960 0
DWIDTH 7 0
BBX 4 3 2 -2
BITMAP
90
90
90
ENDCHAR
STARTCHAR uni0349
ENCODING 841
SWIDTH 960 0
DWIDTH 7 0
BBX 3 3 3 -2
BITMAP
E0
20
20
ENDCHAR
STARTCHAR uni034A
ENCODING 842
SWIDTH 960 0
DWIDTH 7 0
BBX 6 3 1 9
BITMAP
54
B8
20
ENDCHAR
STARTCHAR uni034B
ENCODING 843
SWIDTH 960 0
DWIDTH 7 0
BBX 7 3 0 9
BITMAP
12
7C
90
ENDCHAR
STARTCHAR uni034C
ENCODING 844
SWIDTH 960 0
DWIDTH 7 0
BBX 6 4 1 8
BITMAP
64
98
64
98
ENDCHAR
STARTCHAR uni034D
ENCODING 845
SWIDTH 960 0
DWIDTH 7 0
BBX 6 3 1 -2
BITMAP
48
FC
48
ENDCHAR
STARTCHAR uni034E
ENCODING 846
SWIDTH 960 0
DWIDTH 7 0
BBX 3 4 3 -2
BITMAP
40
E0
40
40
ENDCHAR
STARTCHAR uni0360
ENCODING 864
SWIDTH 960 0
DWIDTH 7 0
BBX 4 2 3 9
BITMAP
70
90
ENDCHAR
STARTCHAR uni0361
ENCODING 865
SWIDTH 960 0
DWIDTH 7 0
BBX 5 2 2 8
BITMAP
78
88
ENDCHAR
STARTCHAR uni0362
ENCODING 866
SWIDTH 960 0
DWIDTH 7 0
BBX 5 3 2 -2
BITMAP
10
F8
10
ENDCHAR
STARTCHAR uni0363
ENCODING 867
SWIDTH 960 0
DWIDTH 7 0
BBX 3 5 3 7
BITMAP
60
A0
60
A0
E0
ENDCHAR
STARTCHAR uni0364
ENCODING 868
SWIDTH 960 0
DWIDTH 7 0
BBX 4 5 2 7
BITMAP
60
90
F0
80
60
ENDCHAR
STARTCHAR uni0365
ENCODING 869
SWIDTH 960 0
DWIDTH 7 0
BBX 3 6 3 6
BITMAP
40
00
C0
40
40
E0
ENDCHAR
STARTCHAR uni0366
ENCODING 870
SWIDTH 960 0
DWIDTH 7 0
BBX 4 4 2 8
BITMAP
60
90
90
60
ENDCHAR
STARTCHAR uni0367
ENCODING 871
SWIDTH 960 0
DWIDTH 7 0
BBX 5 3 2 9
BITMAP
D0
50
68
ENDCHAR
STARTCHAR uni0368
ENCODING 872
SWIDTH 960 0
DWIDTH 7 0
BBX 4 4 2 8
BITMAP
60
80
80
70
ENDCHAR
STARTCHAR uni0369
ENCODING 873
SWIDTH 960 0
DWIDTH 7 0
BBX 4 5 2 7
BITMAP
10
70
90
90
60
ENDCHAR
STARTCHAR uni036A
ENCODING 874
SWIDTH 960 0
DWIDTH 7 0
BBX 3 5 3 7
BITMAP
80
80
C0
A0
A0
ENDCHAR
STARTCHAR uni036B
ENCODING 875
SWIDTH 960 0
DWIDTH 7 0
BBX 6 3 1 9
BITMAP
FC
54
54
ENDCHAR
STARTCHAR uni036C
ENCODING 876
SWIDTH 960 0
DWIDTH 7 0
BBX 3 3 3 9
BITMAP
A0
80
80
ENDCHAR
STARTCHAR uni036D
ENCODING 877
SWIDTH 960 0
DWIDTH 7 0
BBX 3 4 2 8
BITMAP
40
E0
40
60
ENDCHAR
STARTCHAR uni036E
ENCODING 878
SWIDTH 960 0
DWIDTH 7 0
BBX 4 4 2 8
BITMAP
90
50
60
20
ENDCHAR
STARTCHAR uni036F
ENCODING 879
SWIDTH 960 0
DWIDTH 7 0
BBX 4 4 2 8
BITMAP
90
20
50
90
ENDCHAR
STARTCHAR uni0374
ENCODING 884
SWIDTH 960 0
DWIDTH 7 0
BBX 3 3 2 8
BITMAP
20
40
80
ENDCHAR
STARTCHAR uni0375
ENCODING 885
SWIDTH 960 0
DWIDTH 7 0
BBX 3 3 2 -2
BITMAP
20
40
80
ENDCHAR
STARTCHAR uni037A
ENCODING 890
SWIDTH 960 0
DWIDTH 7 0
BBX 2 2 2 -2
BITMAP
80
C0
ENDCHAR
STARTCHAR uni037E
ENCODING 894
SWIDTH 960 0
DWIDTH 7 0
BBX 2 8 2 -1
BITMAP
C0
C0
00
00
C0
40
40
80
ENDCHAR
STARTCHAR tonos
ENCODING 900
SWIDTH 960 0
DWIDTH 7 0
BBX 3 3 2 8
BITMAP
20
40
80
ENDCHAR
STARTCHAR dieresistonos
ENCODING 901
SWIDTH 960 0
DWIDTH 7 0
BBX 6 3 0 8
BITMAP
08
10
A4
ENDCHAR
STARTCHAR Alphatonos
ENCODING 902
SWIDTH 960 0
DWIDTH 7 0
BBX 7 10 0 0
BITMAP
2C
52
92
12
12
1E
12
12
12
12
ENDCHAR
STARTCHAR anoteleia
ENCODING 903
SWIDTH 960 0
DWIDTH 7 0
BBX 2 1 2 6
BITMAP
C0
ENDCHAR
STARTCHAR Epsilontonos
ENCODING 904
SWIDTH 960 0
DWIDTH 7 0
BBX 7 10 0 0
BITMAP
3E
50
90
10
1C
10
10
10
10
1E
ENDCHAR
STARTCHAR Etatonos
ENCODING 905
SWIDTH 960 0
DWIDTH 7 0
BBX 7 10 0 0
BITMAP
32
52
92
12
1E
12
12
12
12
12
ENDCHAR
STARTCHAR Iotatonos
ENCODING 906
SWIDTH 960 0
DWIDTH 7 0
BBX 7 10 0 0
BITMAP
2E
44
84
04
04
04
04
04
04
0E
ENDCHAR
STARTCHAR Omicrontonos
ENCODING 908
SWIDTH 960 0
DWIDTH 7 0
BBX 7 10 0 0
BITMAP
2C
52
92
12
12
12
12
12
12
0C
ENDCHAR
STARTCHAR Upsilontonos
ENCODING 910
SWIDTH 960 0
DWIDTH 7 0
BBX 7 10 0 0
BITMAP
2A
4A
8A
0A
04
04
04
04
04
04
ENDCHAR
STARTCHAR Omegatonos
ENCODING 911
SWIDTH 960 0
DWIDTH 7 0
BBX 7 10 0 0
BITMAP
2C
52
92
12
12
12
12
0C
0C
12
ENDCHAR
STARTCHAR iotadieresistonos
ENCODING 912
SWIDTH 960 0
DWIDTH 7 0
BBX 6 11 0 0
BITMAP
08
10
A4
00
20
20
20
20
20
24
18
ENDCHAR
STARTCHAR Alpha
ENCODING 913
SWIDTH 960 0
DWIDTH 7 0
BBX 6 10 0 0
BITMAP
30
48
84
84
84
FC
84
84
84
84
ENDCHAR
STARTCHAR Beta
ENCODING 914
SWIDTH 960 0
DWIDTH 7 0
BBX 6 10 0 0
BITMAP
F8
84
84
84
F8
84
84
84
84
F8
ENDCHAR
STARTCHAR Gamma
ENCODING 915
SWIDTH 960 0
DWIDTH 7 0
BBX 6 10 0 0
BITMAP
FC
80
80
80
80
80
80
80
80
80
ENDCHAR
STARTCHAR Delta
ENCODING 916
SWIDTH 960 0
DWIDTH 7 0
BBX 6 10 0 0
BITMAP
30
30
30
48
48
48
84
84
84
FC
ENDCHAR
STARTCHAR Epsilon
ENCODING 917
SWIDTH 960 0
DWIDTH 7 0
BBX 6 10 0 0
BITMAP
FC
80
80
80
F0
80
80
80
80
FC
ENDCHAR
STARTCHAR Zeta
ENCODING 918
SWIDTH 960 0
DWIDTH 7 0
BBX 6 10 0 0
BITMAP
FC
04
08
10
10
20
40
40
80
FC
ENDCHAR
STARTCHAR Eta
ENCODING 919
SWIDTH 960 0
DWIDTH 7 0
BBX 6 10 0 0
BITMAP
84
84
84
84
FC
84
84
84
84
84
ENDCHAR
STARTCHAR Theta
ENCODING 920
SWIDTH 960 0
DWIDTH 7 0
BBX 6 10 0 0
BITMAP
78
84
84
84
FC
84
84
84
84
78
ENDCHAR
STARTCHAR Iota
ENCODING 921
SWIDTH 960 0
DWIDTH 7 0
BBX 5 10 1 0
BITMAP
F8
20
20
20
20
20
20
20
20
F8
ENDCHAR
STARTCHAR Kappa
ENCODING 922
SWIDTH 960 0
DWIDTH 7 0
BBX 6 10 0 0
BITMAP
84
88
90
A0
C0
A0
90
88
84
84
ENDCHAR
STARTCHAR Lambda
ENCODING 923
SWIDTH 960 0
DWIDTH 7 0
BBX 6 10 0 0
BITMAP
30
30
30
48
48
48
84
84
84
84
ENDCHAR
STARTCHAR Mu
ENCODING 924
SWIDTH 960 0
DWIDTH 7 0
BBX 6 10 0 0
BITMAP
84
CC
CC
B4
B4
84
84
84
84
84
ENDCHAR
STARTCHAR Nu
ENCODING 925
SWIDTH 960 0
DWIDTH 7 0
BBX 6 10 0 0
BITMAP
84
84
C4
C4
A4
94
8C
8C
84
84
ENDCHAR
STARTCHAR Xi
ENCODING 926
SWIDTH 960 0
DWIDTH 7 0
BBX 6 10 0 0
BITMAP
FC
00
00
00
78
00
00
00
00
FC
ENDCHAR
STARTCHAR Omicron
ENCODING 927
SWIDTH 960 0
DWIDTH 7 0
BBX 6 10 0 0
BITMAP
78
84
84
84
84
84
84
84
84
78
ENDCHAR
STARTCHAR Pi
ENCODING 928
SWIDTH 960 0
DWIDTH 7 0
BBX 6 10 0 0
BITMAP
FC
48
48
48
48
48
48
48
48
48
ENDCHAR
STARTCHAR Rho
ENCODING 929
SWIDTH 960 0
DWIDTH 7 0
BBX 6 10 0 0
BITMAP
F8
84
84
84
84
F8
80
80
80
80
ENDCHAR
STARTCHAR Sigma
ENCODING 931
SWIDTH 960 0
DWIDTH 7 0
BBX 6 10 0 0
BITMAP
FC
80
40
20
10
20
40
80
80
FC
ENDCHAR
STARTCHAR Tau
ENCODING 932
SWIDTH 960 0
DWIDTH 7 0
BBX 7 10 0 0
BITMAP
FE
10
10
10
10
10
10
10
10
10
ENDCHAR
STARTCHAR Upsilon
ENCODING 933
SWIDTH 960 0
DWIDTH 7 0
BBX 5 10 1 0
BITMAP
88
88
88
50
50
20
20
20
20
20
ENDCHAR
STARTCHAR Phi
ENCODING 934
SWIDTH 960 0
DWIDTH 7 0
BBX 5 10 1 0
BITMAP
20
70
A8
A8
A8
A8
A8
A8
70
20
ENDCHAR
STARTCHAR Chi
ENCODING 935
SWIDTH 960 0
DWIDTH 7 0
BBX 6 10 0 0
BITMAP
84
84
48
48
30
30
48
48
84
84
ENDCHAR
STARTCHAR Psi
ENCODING 936
SWIDTH 960 0
DWIDTH 7 0
BBX 5 10 1 0
BITMAP
A8
A8
A8
A8
A8
A8
70
20
20
20
ENDCHAR
STARTCHAR Omega
ENCODING 937
SWIDTH 960 0
DWIDTH 7 0
BBX 6 10 0 0
BITMAP
78
84
84
84
84
84
84
48
48
CC
ENDCHAR
STARTCHAR Iotadieresis
ENCODING 938
SWIDTH 960 0
DWIDTH 7 0
BBX 5 11 1 0
BITMAP
88
00
F8
20
20
20
20
20
20
20
F8
ENDCHAR
STARTCHAR Upsilondieresis
ENCODING 939
SWIDTH 960 0
DWIDTH 7 0
BBX 5 11 1 0
BITMAP
88
00
88
88
50
50
20
20
20
20
20
ENDCHAR
STARTCHAR alphatonos
ENCODING 940
SWIDTH 960 0
DWIDTH 7 0
BBX 6 10 0 0
BITMAP
10
20
00
74
8C
84
84
8C
94
64
ENDCHAR
STARTCHAR epsilontonos
ENCODING 941
SWIDTH 960 0
DWIDTH 7 0
BBX 6 10 0 0
BITMAP
10
20
00
78
84
80
70
80
84
78
ENDCHAR
STARTCHAR etatonos
ENCODING 942
SWIDTH 960 0
DWIDTH 7 0
BBX 6 12 0 -2
BITMAP
10
20
00
B8
C4
84
84
84
84
84
04
04
ENDCHAR
STARTCHAR iotatonos
ENCODING 943
SWIDTH 960 0
DWIDTH 7 0
BBX 4 10 1 0
BITMAP
40
80
00
80
80
80
80
80
90
60
ENDCHAR
STARTCHAR upsilondieresistonos
ENCODING 944
SWIDTH 960 0
DWIDTH 7 0
BBX 6 11 0 0
BITMAP
08
10
A4
00
84
84
84
84
84
84
78
ENDCHAR
STARTCHAR alpha
ENCODING 945
SWIDTH 960 0
DWIDTH 7 0
BBX 6 7 0 0
BITMAP
74
8C
84
84
8C
94
64
ENDCHAR
STARTCHAR beta
ENCODING 946
SWIDTH 960 0
DWIDTH 7 0
BBX 6 12 0 -2
BITMAP
70
88
88
88
F8
84
84
84
C4
B8
80
80
ENDCHAR
STARTCHAR gamma
ENCODING 947
SWIDTH 960 0
DWIDTH 7 0
BBX 5 9 1 -2
BITMAP
88
88
88
50
50
20
20
20
20
ENDCHAR
STARTCHAR delta
ENCODING 948
SWIDTH 960 0
DWIDTH 7 0
BBX 6 10 0 0
BITMAP
78
84
40
78
84
84
84
84
84
78
ENDCHAR
STARTCHAR epsilon
ENCODING 949
SWIDTH 960 0
DWIDTH 7 0
BBX 6 7 0 0
BITMAP
78
84
80
70
80
84
78
ENDCHAR
STARTCHAR zeta
ENCODING 950
SWIDTH 960 0
DWIDTH 7 0
BBX 6 12 0 -2
BITMAP
FC
20
40
40
80
80
80
80
80
78
04
18
ENDCHAR
STARTCHAR eta
ENCODING 951
SWIDTH 960 0
DWIDTH 7 0
BBX 6 9 0 -2
BITMAP
B8
C4
84
84
84
84
84
04
04
ENDCHAR
STARTCHAR theta
ENCODING 952
SWIDTH 960 0
DWIDTH 7 0
BBX 5 10 1 0
BITMAP
70
88
88
88
F8
88
88
88
88
70
ENDCHAR
STARTCHAR iota
ENCODING 953
SWIDTH 960 0
DWIDTH 7 0
BBX 4 7 1 0
BITMAP
80
80
80
80
80
90
60
ENDCHAR
STARTCHAR kappa
ENCODING 954
SWIDTH 960 0
DWIDTH 7 0
BBX 6 7 0 0
BITMAP
84
88
90
A0
D0
88
84
ENDCHAR
STARTCHAR lambda
ENCODING 955
SWIDTH 960 0
DWIDTH 7 0
BBX 6 10 0 0
BITMAP
78
84
04
74
8C
84
84
84
84
84
ENDCHAR
STARTCHAR mu
ENCODING 956
SWIDTH 960 0
DWIDTH 7 0
BBX 6 9 0 -2
BITMAP
84
84
84
84
84
CC
B4
80
80
ENDCHAR
STARTCHAR nu
ENCODING 957
SWIDTH 960 0
DWIDTH 7 0
BBX 5 7 1 0
BITMAP
88
88
88
50
50
20
20
ENDCHAR
STARTCHAR xi
ENCODING 958
SWIDTH 960 0
DWIDTH 7 0
BBX 6 12 0 -2
BITMAP
FC
20
40
40
38
40
80
80
80
78
04
18
ENDCHAR
STARTCHAR omicron
ENCODING 959
SWIDTH 960 0
DWIDTH 7 0
BBX 6 7 0 0
BITMAP
78
84
84
84
84
84
78
ENDCHAR
STARTCHAR pi
ENCODING 960
SWIDTH 960 0
DWIDTH 7 0
BBX 6 7 0 0
BITMAP
FC
48
48
48
48
48
48
ENDCHAR
STARTCHAR rho
ENCODING 961
SWIDTH 960 0
DWIDTH 7 0
BBX 6 9 0 -2
BITMAP
78
84
84
84
84
C4
B8
80
80
ENDCHAR
STARTCHAR sigma1
ENCODING 962
SWIDTH 960 0
DWIDTH 7 0
BBX 6 9 0 -2
BITMAP
78
84
80
80
80
80
78
04
18
ENDCHAR
STARTCHAR sigma
ENCODING 963
SWIDTH 960 0
DWIDTH 7 0
BBX 6 7 0 0
BITMAP
7C
90
88
84
84
84
78
ENDCHAR
STARTCHAR tau
ENCODING 964
SWIDTH 960 0
DWIDTH 7 0
BBX 6 7 0 0
BITMAP
FC
20
20
20
20
24
18
ENDCHAR
STARTCHAR upsilon
ENCODING 965
SWIDTH 960 0
DWIDTH 7 0
BBX 6 7 0 0
BITMAP
84
84
84
84
84
84
78
ENDCHAR
STARTCHAR phi
ENCODING 966
SWIDTH 960 0
DWIDTH 7 0
BBX 5 9 1 -2
BITMAP
50
A8
A8
A8
A8
A8
70
20
20
ENDCHAR
STARTCHAR chi
ENCODING 967
SWIDTH 960 0
DWIDTH 7 0
BBX 5 9 1 -2
BITMAP
88
88
50
50
20
50
50
88
88
ENDCHAR
STARTCHAR psi
ENCODING 968
SWIDTH 960 0
DWIDTH 7 0
BBX 5 9 1 -2
BITMAP
A8
A8
A8
A8
A8
A8
70
20
20
ENDCHAR
STARTCHAR omega
ENCODING 969
SWIDTH 960 0
DWIDTH 7 0
BBX 5 7 1 0
BITMAP
88
A8
A8
A8
A8
A8
50
ENDCHAR
STARTCHAR iotadieresis
ENCODING 970
SWIDTH 960 0
DWIDTH 7 0
BBX 6 9 0 0
BITMAP
84
00
20
20
20
20
20
24
18
ENDCHAR
STARTCHAR upsilondieresis
ENCODING 971
SWIDTH 960 0
DWIDTH 7 0
BBX 6 9 0 0
BITMAP
84
00
84
84
84
84
84
84
78
ENDCHAR
STARTCHAR omicrontonos
ENCODING 972
SWIDTH 960 0
DWIDTH 7 0
BBX 6 10 0 0
BITMAP
10
20
00
78
84
84
84
84
84
78
ENDCHAR
STARTCHAR upsilontonos
ENCODING 973
SWIDTH 960 0
DWIDTH 7 0
BBX 6 10 0 0
BITMAP
10
20
00
84
84
84
84
84
84
78
ENDCHAR
STARTCHAR omegatonos
ENCODING 974
SWIDTH 960 0
DWIDTH 7 0
BBX 5 10 1 0
BITMAP
10
20
00
88
A8
A8
A8
A8
A8
50
ENDCHAR
STARTCHAR uni03D0
ENCODING 976
SWIDTH 960 0
DWIDTH 7 0
BBX 6 10 0 0
BITMAP
30
48
88
90
B8
C4
84
84
48
30
ENDCHAR
STARTCHAR theta1
ENCODING 977
SWIDTH 960 0
DWIDTH 7 0
BBX 7 10 0 0
BITMAP
38
44
44
3E
04
C4
44
44
44
38
ENDCHAR
STARTCHAR Upsilon1
ENCODING 978
SWIDTH 960 0
DWIDTH 7 0
BBX 6 10 0 0
BITMAP
88
54
50
20
20
20
20
20
20
20
ENDCHAR
STARTCHAR uni03D3
ENCODING 979
SWIDTH 960 0
DWIDTH 7 0
BBX 7 10 0 0
BITMAP
A4
AA
28
10
10
10
10
10
10
10
ENDCHAR
STARTCHAR uni03D4
ENCODING 980
SWIDTH 960 0
DWIDTH 7 0
BBX 6 11 0 0
BITMAP
88
00
88
54
50
20
20
20
20
20
20
ENDCHAR
STARTCHAR phi1
ENCODING 981
SWIDTH 960 0
DWIDTH 7 0
BBX 5 11 1 -2
BITMAP
20
20
70
A8
A8
A8
A8
A8
70
20
20
ENDCHAR
STARTCHAR omega1
ENCODING 982
SWIDTH 960 0
DWIDTH 7 0
BBX 7 7 0 0
BITMAP
FE
44
54
54
54
54
28
ENDCHAR
STARTCHAR uni03D7
ENCODING 983
SWIDTH 960 0
DWIDTH 7 0
BBX 6 12 0 -2
BITMAP
10
20
00
84
48
50
70
50
90
8C
04
38
ENDCHAR
STARTCHAR uni03D8
ENCODING 984
SWIDTH 960 0
DWIDTH 7 0
BBX 5 12 1 -1
BITMAP
70
88
88
88
88
88
88
88
70
20
20
70
ENDCHAR
STARTCHAR uni03D9
ENCODING 985
SWIDTH 960 0
DWIDTH 7 0
BBX 3 8 2 -1
BITMAP
40
A0
A0
A0
A0
40
40
40
ENDCHAR
STARTCHAR uni03DA
ENCODING 986
SWIDTH 960 0
DWIDTH 7 0
BBX 6 11 0 -1
BITMAP
38
44
80
80
80
80
80
80
78
04
08
ENDCHAR
STARTCHAR uni03DB
ENCODING 987
SWIDTH 960 0
DWIDTH 7 0
BBX 6 10 0 -2
BITMAP
04
78
80
80
80
80
80
78
04
18
ENDCHAR
STARTCHAR uni03DC
ENCODING 988
SWIDTH 960 0
DWIDTH 7 0
BBX 6 10 0 0
BITMAP
FC
80
80
80
F0
80
80
80
80
80
ENDCHAR
STARTCHAR uni03DD
ENCODING 989
SWIDTH 960 0
DWIDTH 7 0
BBX 5 9 1 -2
BITMAP
F8
80
80
F0
80
80
80
80
80
ENDCHAR
STARTCHAR uni03DE
ENCODING 990
SWIDTH 960 0
DWIDTH 7 0
BBX 7 10 0 0
BITMAP
80
40
44
4C
54
54
64
44
04
02
ENDCHAR
STARTCHAR uni03DF
ENCODING 991
SWIDTH 960 0
DWIDTH 7 0
BBX 6 11 0 -1
BITMAP
20
20
40
40
80
FC
04
08
08
10
10
ENDCHAR
STARTCHAR uni03E0
ENCODING 992
SWIDTH 960 0
DWIDTH 7 0
BBX 6 10 0 0
BITMAP
30
30
30
48
48
48
94
94
A4
A4
ENDCHAR
STARTCHAR uni03E1
ENCODING 993
SWIDTH 960 0
DWIDTH 7 0
BBX 6 11 0 -1
BITMAP
C0
20
10
18
28
4C
14
24
04
04
04
ENDCHAR
STARTCHAR uni03E2
ENCODING 994
SWIDTH 960 0
DWIDTH 7 0
BBX 5 9 1 0
BITMAP
A8
A8
A8
A8
A8
A8
58
08
70
ENDCHAR
STARTCHAR uni03E3
ENCODING 995
SWIDTH 960 0
DWIDTH 7 0
BBX 5 9 1 -2
BITMAP
A8
A8
A8
A8
A8
A8
58
08
70
ENDCHAR
STARTCHAR uni03E4
ENCODING 996
SWIDTH 960 0
DWIDTH 7 0
BBX 6 10 0 0
BITMAP
64
84
84
84
7C
04
04
04
04
04
ENDCHAR
STARTCHAR uni03E5
ENCODING 997
SWIDTH 960 0
DWIDTH 7 0
BBX 4 10 1 0
BITMAP
50
90
90
90
70
10
10
10
10
10
ENDCHAR
STARTCHAR uni03E6
ENCODING 998
SWIDTH 960 0
DWIDTH 7 0
BBX 6 12 0 -2
BITMAP
E0
40
40
40
78
44
44
44
44
E4
04
18
ENDCHAR
STARTCHAR uni03E7
ENCODING 999
SWIDTH 960 0
DWIDTH 7 0
BBX 6 9 0 0
BITMAP
40
20
78
A4
A4
44
04
84
78
ENDCHAR
STARTCHAR uni03E8
ENCODING 1000
SWIDTH 960 0
DWIDTH 7 0
BBX 6 10 0 0
BITMAP
78
84
84
08
10
20
40
84
84
78
ENDCHAR
STARTCHAR uni03E9
ENCODING 1001
SWIDTH 960 0
DWIDTH 7 0
BBX 6 9 0 0
BITMAP
78
84
84
48
30
20
40
80
7C
ENDCHAR
STARTCHAR uni03EA
ENCODING 1002
SWIDTH 960 0
DWIDTH 7 0
BBX 5 10 1 0
BITMAP
D8
20
20
50
50
50
88
88
88
F8
ENDCHAR
STARTCHAR uni03EB
ENCODING 1003
SWIDTH 960 0
DWIDTH 7 0
BBX 5 7 1 0
BITMAP
D8
20
50
50
88
88
F8
ENDCHAR
STARTCHAR uni03EC
ENCODING 1004
SWIDTH 960 0
DWIDTH 7 0
BBX 6 10 0 0
BITMAP
7C
80
F8
84
84
84
84
84
84
78
ENDCHAR
STARTCHAR uni03ED
ENCODING 1005
SWIDTH 960 0
DWIDTH 7 0
BBX 6 7 0 0
BITMAP
78
80
B8
84
84
84
78
ENDCHAR
STARTCHAR uni03EE
ENCODING 1006
SWIDTH 960 0
DWIDTH 7 0
BBX 5 10 1 0
BITMAP
70
20
F8
A8
20
20
20
20
20
20
ENDCHAR
STARTCHAR uni03EF
ENCODING 1007
SWIDTH 960 0
DWIDTH 7 0
BBX 5 7 1 1
BITMAP
20
28
F8
A0
20
20
20
ENDCHAR
STARTCHAR uni03F0
ENCODING 1008
SWIDTH 960 0
DWIDTH 7 0
BBX 6 7 0 0
BITMAP
84
48
50
70
50
90
8C
ENDCHAR
STARTCHAR uni03F1
ENCODING 1009
SWIDTH 960 0
DWIDTH 7 0
BBX 6 9 0 -2
BITMAP
78
84
84
84
84
C4
B8
80
78
ENDCHAR
STARTCHAR uni03F2
ENCODING 1010
SWIDTH 960 0
DWIDTH 7 0
BBX 6 7 0 0
BITMAP
78
84
80
80
80
84
78
ENDCHAR
STARTCHAR uni03F3
ENCODING 1011
SWIDTH 960 0
DWIDTH 7 0
BBX 5 12 1 -2
BITMAP
08
08
00
18
08
08
08
08
08
88
88
70
ENDCHAR
STARTCHAR uni03F4
ENCODING 1012
SWIDTH 960 0
DWIDTH 7 0
BBX 6 10 0 0
BITMAP
78
84
84
84
FC
84
84
84
84
78
ENDCHAR
STARTCHAR uni03F5
ENCODING 1013
SWIDTH 960 0
DWIDTH 7 0
BBX 5 7 1 0
BITMAP
78
80
80
F0
80
80
78
ENDCHAR
STARTCHAR uni03F6
ENCODING 1014
SWIDTH 960 0
DWIDTH 7 0
BBX 5 7 1 0
BITMAP
F0
08
08
78
08
08
F0
ENDCHAR
STARTCHAR uni0400
ENCODING 1024
SWIDTH 960 0
DWIDTH 7 0
BBX 6 12 0 0
BITMAP
20
10
00
FC
80
80
80
F8
80
80
80
FC
ENDCHAR
STARTCHAR afii10023
ENCODING 1025
SWIDTH 960 0
DWIDTH 7 0
BBX 6 12 0 0
BITMAP
48
48
00
FC
80
80
80
F8
80
80
80
FC
ENDCHAR
STARTCHAR afii10051
ENCODING 1026
SWIDTH 960 0
DWIDTH 7 0
BBX 6 12 0 -2
BITMAP
F8
20
20
38
24
24
24
24
24
24
04
18
ENDCHAR
STARTCHAR afii10052
ENCODING 1027
SWIDTH 960 0
DWIDTH 7 0
BBX 6 12 0 0
BITMAP
10
20
00
FC
80
80
80
80
80
80
80
80
ENDCHAR
STARTCHAR afii10053
ENCODING 1028
SWIDTH 960 0
DWIDTH 7 0
BBX 6 10 0 0
BITMAP
38
44
80
80
F0
80
80
84
44
38
ENDCHAR
STARTCHAR afii10054
ENCODING 1029
SWIDTH 960 0
DWIDTH 7 0
BBX 6 10 0 0
BITMAP
78
84
84
80
60
18
04
84
84
78
ENDCHAR
STARTCHAR afii10055
ENCODING 1030
SWIDTH 960 0
DWIDTH 7 0
BBX 5 10 1 0
BITMAP
F8
20
20
20
20
20
20
20
20
F8
ENDCHAR
STARTCHAR afii10056
ENCODING 1031
SWIDTH 960 0
DWIDTH 7 0
BBX 5 11 1 0
BITMAP
50
00
F8
20
20
20
20
20
20
20
F8
ENDCHAR
STARTCHAR afii10057
ENCODING 1032
SWIDTH 960 0
DWIDTH 7 0
BBX 6 10 0 0
BITMAP
1C
08
08
08
08
08
08
88
88
70
ENDCHAR
STARTCHAR afii10058
ENCODING 1033
SWIDTH 960 0
DWIDTH 7 0
BBX 6 10 0 0
BITMAP
70
50
50
50
58
54
54
54
54
98
ENDCHAR
STARTCHAR afii10059
ENCODING 1034
SWIDTH 960 0
DWIDTH 7 0
BBX 6 10 0 0
BITMAP
90
90
90
90
F8
94
94
94
94
98
ENDCHAR
STARTCHAR afii10060
ENCODING 1035
SWIDTH 960 0
DWIDTH 7 0
BBX 6 10 0 0
BITMAP
F8
20
20
38
24
24
24
24
24
24
ENDCHAR
STARTCHAR afii10061
ENCODING 1036
SWIDTH 960 0
DWIDTH 7 0
BBX 6 12 0 0
BITMAP
10
20
00
84
88
90
A0
C0
A0
90
88
84
ENDCHAR
STARTCHAR uni040D
ENCODING 1037
SWIDTH 960 0
DWIDTH 7 0
BBX 6 11 0 0
BITMAP
20
10
84
8C
8C
94
A4
C4
C4
84
84
ENDCHAR
STARTCHAR afii10062
ENCODING 1038
SWIDTH 960 0
DWIDTH 7 0
BBX 5 12 1 0
BITMAP
88
70
00
88
88
50
50
20
20
40
80
80
ENDCHAR
STARTCHAR afii10145
ENCODING 1039
SWIDTH 960 0
DWIDTH 7 0
BBX 5 11 1 -1
BITMAP
88
88
88
88
88
88
88
88
88
F8
20
ENDCHAR
STARTCHAR afii10017
ENCODING 1040
SWIDTH 960 0
DWIDTH 7 0
BBX 6 10 0 0
BITMAP
30
48
84
84
84
FC
84
84
84
84
ENDCHAR
STARTCHAR afii10018
ENCODING 1041
SWIDTH 960 0
DWIDTH 7 0
BBX 6 10 0 0
BITMAP
F8
80
80
80
F8
84
84
84
84
F8
ENDCHAR
STARTCHAR afii10019
ENCODING 1042
SWIDTH 960 0
DWIDTH 7 0
BBX 6 10 0 0
BITMAP
F8
84
84
84
F8
84
84
84
84
F8
ENDCHAR
STARTCHAR afii10020
ENCODING 1043
SWIDTH 960 0
DWIDTH 7 0
BBX 6 10 0 0
BITMAP
FC
80
80
80
80
80
80
80
80
80
ENDCHAR
STARTCHAR afii10021
ENCODING 1044
SWIDTH 960 0
DWIDTH 7 0
BBX 6 11 0 -1
BITMAP
38
28
28
28
28
48
48
48
48
FC
84
ENDCHAR
STARTCHAR afii10022
ENCODING 1045
SWIDTH 960 0
DWIDTH 7 0
BBX 6 10 0 0
BITMAP
FC
80
80
80
F0
80
80
80
80
FC
ENDCHAR
STARTCHAR afii10024
ENCODING 1046
SWIDTH 960 0
DWIDTH 7 0
BBX 5 10 1 0
BITMAP
A8
A8
A8
A8
70
A8
A8
A8
A8
A8
ENDCHAR
STARTCHAR afii10025
ENCODING 1047
SWIDTH 960 0
DWIDTH 7 0
BBX 6 10 0 0
BITMAP
70
88
04
08
30
08
04
84
88
70
ENDCHAR
STARTCHAR afii10026
ENCODING 1048
SWIDTH 960 0
DWIDTH 7 0
BBX 6 10 0 0
BITMAP
84
84
8C
8C
94
A4
C4
C4
84
84
ENDCHAR
STARTCHAR afii10027
ENCODING 1049
SWIDTH 960 0
DWIDTH 7 0
BBX 6 12 0 0
BITMAP
84
78
00
84
8C
8C
94
A4
C4
C4
84
84
ENDCHAR
STARTCHAR afii10028
ENCODING 1050
SWIDTH 960 0
DWIDTH 7 0
BBX 6 10 0 0
BITMAP
84
88
90
A0
C0
A0
90
88
84
84
ENDCHAR
STARTCHAR afii10029
ENCODING 1051
SWIDTH 960 0
DWIDTH 7 0
BBX 6 10 0 0
BITMAP
3C
24
24
24
24
24
24
24
A4
44
ENDCHAR
STARTCHAR afii10030
ENCODING 1052
SWIDTH 960 0
DWIDTH 7 0
BBX 6 10 0 0
BITMAP
84
CC
CC
B4
B4
84
84
84
84
84
ENDCHAR
STARTCHAR afii10031
ENCODING 1053
SWIDTH 960 0
DWIDTH 7 0
BBX 6 10 0 0
BITMAP
84
84
84
84
FC
84
84
84
84
84
ENDCHAR
STARTCHAR afii10032
ENCODING 1054
SWIDTH 960 0
DWIDTH 7 0
BBX 6 10 0 0
BITMAP
78
84
84
84
84
84
84
84
84
78
ENDCHAR
STARTCHAR afii10033
ENCODING 1055
SWIDTH 960 0
DWIDTH 7 0
BBX 6 10 0 0
BITMAP
FC
48
48
48
48
48
48
48
48
48
ENDCHAR
STARTCHAR afii10034
ENCODING 1056
SWIDTH 960 0
DWIDTH 7 0
BBX 6 10 0 0
BITMAP
F8
84
84
84
84
F8
80
80
80
80
ENDCHAR
STARTCHAR afii10035
ENCODING 1057
SWIDTH 960 0
DWIDTH 7 0
BBX 6 10 0 0
BITMAP
78
84
84
80
80
80
80
84
84
78
ENDCHAR
STARTCHAR afii10036
ENCODING 1058
SWIDTH 960 0
DWIDTH 7 0
BBX 5 10 1 0
BITMAP
F8
20
20
20
20
20
20
20
20
20
ENDCHAR
STARTCHAR afii10037
ENCODING 1059
SWIDTH 960 0
DWIDTH 7 0
BBX 6 10 0 0
BITMAP
84
84
84
84
8C
74
04
04
88
70
ENDCHAR
STARTCHAR afii10038
ENCODING 1060
SWIDTH 960 0
DWIDTH 7 0
BBX 5 10 1 0
BITMAP
20
70
A8
A8
A8
A8
A8
A8
70
20
ENDCHAR
STARTCHAR afii10039
ENCODING 1061
SWIDTH 960 0
DWIDTH 7 0
BBX 6 10 0 0
BITMAP
84
84
48
48
30
30
48
48
84
84
ENDCHAR
STARTCHAR afii10040
ENCODING 1062
SWIDTH 960 0
DWIDTH 7 0
BBX 6 12 0 -2
BITMAP
88
88
88
88
88
88
88
88
88
FC
04
04
ENDCHAR
STARTCHAR afii10041
ENCODING 1063
SWIDTH 960 0
DWIDTH 7 0
BBX 6 10 0 0
BITMAP
84
84
84
84
7C
04
04
04
04
04
ENDCHAR
STARTCHAR afii10042
ENCODING 1064
SWIDTH 960 0
DWIDTH 7 0
BBX 5 10 1 0
BITMAP
A8
A8
A8
A8
A8
A8
A8
A8
A8
F8
ENDCHAR
STARTCHAR afii10043
ENCODING 1065
SWIDTH 960 0
DWIDTH 7 0
BBX 6 12 0 -2
BITMAP
A8
A8
A8
A8
A8
A8
A8
A8
A8
FC
04
04
ENDCHAR
STARTCHAR afii10044
ENCODING 1066
SWIDTH 960 0
DWIDTH 7 0
BBX 6 10 0 0
BITMAP
E0
20
20
20
38
24
24
24
24
38
ENDCHAR
STARTCHAR afii10045
ENCODING 1067
SWIDTH 960 0
DWIDTH 7 0
BBX 6 10 0 0
BITMAP
84
84
84
84
E4
94
94
94
94
E4
ENDCHAR
STARTCHAR afii10046
ENCODING 1068
SWIDTH 960 0
DWIDTH 7 0
BBX 5 10 1 0
BITMAP
80
80
80
80
F0
88
88
88
88
F0
ENDCHAR
STARTCHAR afii10047
ENCODING 1069
SWIDTH 960 0
DWIDTH 7 0
BBX 6 10 0 0
BITMAP
70
88
04
04
3C
04
04
84
88
70
ENDCHAR
STARTCHAR afii10048
ENCODING 1070
SWIDTH 960 0
DWIDTH 7 0
BBX 6 10 0 0
BITMAP
98
A4
A4
A4
E4
A4
A4
A4
A4
98
ENDCHAR
STARTCHAR afii10049
ENCODING 1071
SWIDTH 960 0
DWIDTH 7 0
BBX 6 10 0 0
BITMAP
7C
84
84
84
84
7C
24
44
84
84
ENDCHAR
STARTCHAR afii10065
ENCODING 1072
SWIDTH 960 0
DWIDTH 7 0
BBX 6 7 0 0
BITMAP
78
84
04
7C
84
84
7C
ENDCHAR
STARTCHAR afii10066
ENCODING 1073
SWIDTH 960 0
DWIDTH 7 0
BBX 6 10 0 0
BITMAP
0C
70
80
B8
C4
84
84
84
84
78
ENDCHAR
STARTCHAR afii10067
ENCODING 1074
SWIDTH 960 0
DWIDTH 7 0
BBX 6 7 0 0
BITMAP
F8
84
84
F8
84
84
F8
ENDCHAR
STARTCHAR afii10068
ENCODING 1075
SWIDTH 960 0
DWIDTH 7 0
BBX 5 7 1 0
BITMAP
F8
80
80
80
80
80
80
ENDCHAR
STARTCHAR afii10069
ENCODING 1076
SWIDTH 960 0
DWIDTH 7 0
BBX 6 8 0 -1
BITMAP
38
28
28
48
48
48
FC
84
ENDCHAR
STARTCHAR afii10070
ENCODING 1077
SWIDTH 960 0
DWIDTH 7 0
BBX 6 7 0 0
BITMAP
78
84
84
FC
80
84
78
ENDCHAR
STARTCHAR afii10072
ENCODING 1078
SWIDTH 960 0
DWIDTH 7 0
BBX 5 7 1 0
BITMAP
A8
A8
A8
70
A8
A8
A8
ENDCHAR
STARTCHAR afii10073
ENCODING 1079
SWIDTH 960 0
DWIDTH 7 0
BBX 6 7 0 0
BITMAP
78
84
04
18
04
84
78
ENDCHAR
STARTCHAR afii10074
ENCODING 1080
SWIDTH 960 0
DWIDTH 7 0
BBX 6 7 0 0
BITMAP
84
8C
94
A4
C4
84
84
ENDCHAR
STARTCHAR afii10075
ENCODING 1081
SWIDTH 960 0
DWIDTH 7 0
BBX 6 10 0 0
BITMAP
84
78
00
84
8C
94
A4
C4
84
84
ENDCHAR
STARTCHAR afii10076
ENCODING 1082
SWIDTH 960 0
DWIDTH 7 0
BBX 6 7 0 0
BITMAP
84
88
90
A0
D0
88
84
ENDCHAR
STARTCHAR afii10077
ENCODING 1083
SWIDTH 960 0
DWIDTH 7 0
BBX 6 7 0 0
BITMAP
3C
24
24
24
24
24
C4
ENDCHAR
STARTCHAR afii10078
ENCODING 1084
SWIDTH 960 0
DWIDTH 7 0
BBX 6 7 0 0
BITMAP
84
CC
CC
B4
B4
84
84
ENDCHAR
STARTCHAR afii10079
ENCODING 1085
SWIDTH 960 0
DWIDTH 7 0
BBX 6 7 0 0
BITMAP
84
84
84
FC
84
84
84
ENDCHAR
STARTCHAR afii10080
ENCODING 1086
SWIDTH 960 0
DWIDTH 7 0
BBX 6 7 0 0
BITMAP
78
84
84
84
84
84
78
ENDCHAR
STARTCHAR afii10081
ENCODING 1087
SWIDTH 960 0
DWIDTH 7 0
BBX 6 7 0 0
BITMAP
FC
84
84
84
84
84
84
ENDCHAR
STARTCHAR afii10082
ENCODING 1088
SWIDTH 960 0
DWIDTH 7 0
BBX 6 9 0 -2
BITMAP
B8
C4
84
84
84
C4
B8
80
80
ENDCHAR
STARTCHAR afii10083
ENCODING 1089
SWIDTH 960 0
DWIDTH 7 0
BBX 6 7 0 0
BITMAP
78
84
80
80
80
84
78
ENDCHAR
STARTCHAR afii10084
ENCODING 1090
SWIDTH 960 0
DWIDTH 7 0
BBX 5 7 1 0
BITMAP
F8
20
20
20
20
20
20
ENDCHAR
STARTCHAR afii10085
ENCODING 1091
SWIDTH 960 0
DWIDTH 7 0
BBX 6 9 0 -2
BITMAP
84
84
84
84
8C
74
04
84
78
ENDCHAR
STARTCHAR afii10086
ENCODING 1092
SWIDTH 960 0
DWIDTH 7 0
BBX 5 11 1 -2
BITMAP
20
20
70
A8
A8
A8
A8
A8
70
20
20
ENDCHAR
STARTCHAR afii10087
ENCODING 1093
SWIDTH 960 0
DWIDTH 7 0
BBX 6 7 0 0
BITMAP
84
84
48
30
48
84
84
ENDCHAR
STARTCHAR afii10088
ENCODING 1094
SWIDTH 960 0
DWIDTH 7 0
BBX 6 9 0 -2
BITMAP
88
88
88
88
88
88
FC
04
04
ENDCHAR
STARTCHAR afii10089
ENCODING 1095
SWIDTH 960 0
DWIDTH 7 0
BBX 6 7 0 0
BITMAP
84
84
84
7C
04
04
04
ENDCHAR
STARTCHAR afii10090
ENCODING 1096
SWIDTH 960 0
DWIDTH 7 0
BBX 5 7 1 0
BITMAP
A8
A8
A8
A8
A8
A8
F8
ENDCHAR
STARTCHAR afii10091
ENCODING 1097
SWIDTH 960 0
DWIDTH 7 0
BBX 6 9 0 -2
BITMAP
A8
A8
A8
A8
A8
A8
FC
04
04
ENDCHAR
STARTCHAR afii10092
ENCODING 1098
SWIDTH 960 0
DWIDTH 7 0
BBX 6 7 0 0
BITMAP
E0
20
20
38
24
24
38
ENDCHAR
STARTCHAR afii10093
ENCODING 1099
SWIDTH 960 0
DWIDTH 7 0
BBX 6 7 0 0
BITMAP
84
84
84
E4
94
94
E4
ENDCHAR
STARTCHAR afii10094
ENCODING 1100
SWIDTH 960 0
DWIDTH 7 0
BBX 5 7 1 0
BITMAP
80
80
80
F0
88
88
F0
ENDCHAR
STARTCHAR afii10095
ENCODING 1101
SWIDTH 960 0
DWIDTH 7 0
BBX 6 7 0 0
BITMAP
78
84
04
3C
04
84
78
ENDCHAR
STARTCHAR afii10096
ENCODING 1102
SWIDTH 960 0
DWIDTH 7 0
BBX 6 7 0 0
BITMAP
98
A4
A4
E4
A4
A4
98
ENDCHAR
STARTCHAR afii10097
ENCODING 1103
SWIDTH 960 0
DWIDTH 7 0
BBX 6 7 0 0
BITMAP
7C
84
84
7C
24
44
84
ENDCHAR
STARTCHAR uni0450
ENCODING 1104
SWIDTH 960 0
DWIDTH 7 0
BBX 6 10 0 0
BITMAP
20
10
00
78
84
84
FC
80
84
78
ENDCHAR
STARTCHAR afii10071
ENCODING 1105
SWIDTH 960 0
DWIDTH 7 0
BBX 6 10 0 0
BITMAP
48
48
00
78
84
84
FC
80
84
78
ENDCHAR
STARTCHAR afii10099
ENCODING 1106
SWIDTH 960 0
DWIDTH 7 0
BBX 6 12 0 -2
BITMAP
40
40
E0
40
78
44
44
44
44
44
04
18
ENDCHAR
STARTCHAR afii10100
ENCODING 1107
SWIDTH 960 0
DWIDTH 7 0
BBX 5 10 1 0
BITMAP
10
20
00
F8
80
80
80
80
80
80
ENDCHAR
STARTCHAR afii10101
ENCODING 1108
SWIDTH 960 0
DWIDTH 7 0
BBX 6 7 0 0
BITMAP
78
84
80
F0
80
84
78
ENDCHAR
STARTCHAR afii10102
ENCODING 1109
SWIDTH 960 0
DWIDTH 7 0
BBX 6 7 0 0
BITMAP
78
84
40
30
08
84
78
ENDCHAR
STARTCHAR afii10103
ENCODING 1110
SWIDTH 960 0
DWIDTH 7 0
BBX 5 10 1 0
BITMAP
20
20
00
60
20
20
20
20
20
F8
ENDCHAR
STARTCHAR afii10104
ENCODING 1111
SWIDTH 960 0
DWIDTH 7 0
BBX 5 10 1 0
BITMAP
50
50
00
60
20
20
20
20
20
F8
ENDCHAR
STARTCHAR afii10105
ENCODING 1112
SWIDTH 960 0
DWIDTH 7 0
BBX 5 12 1 -2
BITMAP
08
08
00
18
08
08
08
08
08
88
88
70
ENDCHAR
STARTCHAR afii10106
ENCODING 1113
SWIDTH 960 0
DWIDTH 7 0
BBX 6 7 0 0
BITMAP
70
50
50
58
54
54
98
ENDCHAR
STARTCHAR afii10107
ENCODING 1114
SWIDTH 960 0
DWIDTH 7 0
BBX 6 7 0 0
BITMAP
90
90
90
F8
94
94
98
ENDCHAR
STARTCHAR afii10108
ENCODING 1115
SWIDTH 960 0
DWIDTH 7 0
BBX 6 10 0 0
BITMAP
20
F8
20
38
24
24
24
24
24
24
ENDCHAR
STARTCHAR afii10109
ENCODING 1116
SWIDTH 960 0
DWIDTH 7 0
BBX 6 10 0 0
BITMAP
10
20
00
84
88
90
A0
D0
88
84
ENDCHAR
STARTCHAR uni045D
ENCODING 1117
SWIDTH 960 0
DWIDTH 7 0
BBX 6 10 0 0
BITMAP
20
10
00
84
8C
94
A4
C4
84
84
ENDCHAR
STARTCHAR afii10110
ENCODING 1118
SWIDTH 960 0
DWIDTH 7 0
BBX 6 12 0 -2
BITMAP
84
78
00
84
84
84
84
8C
74
04
84
78
ENDCHAR
STARTCHAR afii10193
ENCODING 1119
SWIDTH 960 0
DWIDTH 7 0
BBX 5 8 1 -1
BITMAP
88
88
88
88
88
88
F8
20
ENDCHAR
STARTCHAR uni0460
ENCODING 1120
SWIDTH 960 0
DWIDTH 7 0
BBX 5 10 1 0
BITMAP
50
88
88
88
88
88
A8
A8
A8
50
ENDCHAR
STARTCHAR uni0461
ENCODING 1121
SWIDTH 960 0
DWIDTH 7 0
BBX 5 7 1 0
BITMAP
50
88
A8
A8
A8
A8
50
ENDCHAR
STARTCHAR afii10146
ENCODING 1122
SWIDTH 960 0
DWIDTH 7 0
BBX 6 10 0 0
BITMAP
20
F8
20
20
38
24
24
24
24
38
ENDCHAR
STARTCHAR afii10194
ENCODING 1123
SWIDTH 960 0
DWIDTH 7 0
BBX 6 9 0 0
BITMAP
20
20
F8
20
20
38
24
24
38
ENDCHAR
STARTCHAR uni0464
ENCODING 1124
SWIDTH 960 0
DWIDTH 7 0
BBX 6 10 0 0
BITMAP
8C
90
90
90
F8
90
90
90
90
8C
ENDCHAR
STARTCHAR uni0465
ENCODING 1125
SWIDTH 960 0
DWIDTH 7 0
BBX 6 7 0 0
BITMAP
8C
90
90
F8
90
90
8C
ENDCHAR
STARTCHAR uni0466
ENCODING 1126
SWIDTH 960 0
DWIDTH 7 0
BBX 5 10 1 0
BITMAP
20
50
50
50
50
A8
A8
A8
A8
A8
ENDCHAR
STARTCHAR uni0467
ENCODING 1127
SWIDTH 960 0
DWIDTH 7 0
BBX 5 7 1 0
BITMAP
20
50
50
50
A8
A8
A8
ENDCHAR
STARTCHAR uni0468
ENCODING 1128
SWIDTH 960 0
DWIDTH 7 0
BBX 6 10 0 0
BITMAP
90
A8
A8
A8
A8
D4
D4
D4
D4
D4
ENDCHAR
STARTCHAR uni0469
ENCODING 1129
SWIDTH 960 0
DWIDTH 7 0
BBX 6 7 0 0
BITMAP
90
A8
A8
A8
D4
D4
D4
ENDCHAR
STARTCHAR uni046A
ENCODING 1130
SWIDTH 960 0
DWIDTH 7 0
BBX 5 10 1 0
BITMAP
F8
88
88
50
20
70
A8
A8
A8
A8
ENDCHAR
STARTCHAR uni046B
ENCODING 1131
SWIDTH 960 0
DWIDTH 7 0
BBX 5 7 1 0
BITMAP
70
50
50
70
A8
A8
A8
ENDCHAR
STARTCHAR uni046C
ENCODING 1132
SWIDTH 960 0
DWIDTH 7 0
BBX 6 10 0 0
BITMAP
FC
C4
C4
A8
90
B8
D4
D4
D4
D4
ENDCHAR
STARTCHAR uni046D
ENCODING 1133
SWIDTH 960 0
DWIDTH 7 0
BBX 6 7 0 0
BITMAP
B8
A8
A8
B8
D4
D4
D4
ENDCHAR
STARTCHAR uni046E
ENCODING 1134
SWIDTH 960 0
DWIDTH 7 0
BBX 6 14 0 -2
BITMAP
44
38
00
78
84
04
04
38
04
04
04
78
80
70
ENDCHAR
STARTCHAR uni046F
ENCODING 1135
SWIDTH 960 0
DWIDTH 7 0
BBX 6 12 0 -2
BITMAP
44
38
00
78
84
04
38
04
04
78
80
70
ENDCHAR
STARTCHAR uni0470
ENCODING 1136
SWIDTH 960 0
DWIDTH 7 0
BBX 5 10 1 0
BITMAP
A8
A8
A8
A8
A8
A8
70
20
20
20
ENDCHAR
STARTCHAR uni0471
ENCODING 1137
SWIDTH 960 0
DWIDTH 7 0
BBX 5 9 1 -2
BITMAP
A8
A8
A8
A8
A8
A8
70
20
20
ENDCHAR
STARTCHAR afii10147
ENCODING 1138
SWIDTH 960 0
DWIDTH 7 0
BBX 6 10 0 0
BITMAP
78
84
84
84
FC
84
84
84
84
78
ENDCHAR
STARTCHAR afii10195
ENCODING 1139
SWIDTH 960 0
DWIDTH 7 0
BBX 6 7 0 0
BITMAP
78
84
84
FC
84
84
78
ENDCHAR
STARTCHAR afii10148
ENCODING 1140
SWIDTH 960 0
DWIDTH 7 0
BBX 6 10 0 0
BITMAP
84
88
88
90
90
50
50
50
20
20
ENDCHAR
STARTCHAR afii10196
ENCODING 1141
SWIDTH 960 0
DWIDTH 7 0
BBX 6 7 0 0
BITMAP
84
88
88
90
50
50
20
ENDCHAR
STARTCHAR uni0476
ENCODING 1142
SWIDTH 960 0
DWIDTH 7 0
BBX 6 12 0 0
BITMAP
90
48
00
84
88
88
90
50
50
50
20
20
ENDCHAR
STARTCHAR uni0477
ENCODING 1143
SWIDTH 960 0
DWIDTH 7 0
BBX 6 10 0 0
BITMAP
90
48
00
84
88
88
90
50
50
20
ENDCHAR
STARTCHAR uni0478
ENCODING 1144
SWIDTH 960 0
DWIDTH 7 0
BBX 6 12 0 -2
BITMAP
40
A0
A0
B4
B4
B4
B4
B4
B4
4C
04
18
ENDCHAR
STARTCHAR uni0479
ENCODING 1145
SWIDTH 960 0
DWIDTH 7 0
BBX 6 9 0 -2
BITMAP
54
B4
B4
B4
B4
B4
4C
04
18
ENDCHAR
STARTCHAR uni047A
ENCODING 1146
SWIDTH 960 0
DWIDTH 7 0
BBX 5 12 1 -1
BITMAP
20
70
A8
88
88
88
88
88
88
A8
70
20
ENDCHAR
STARTCHAR uni047B
ENCODING 1147
SWIDTH 960 0
DWIDTH 7 0
BBX 5 9 1 -1
BITMAP
20
70
A8
88
88
88
A8
70
20
ENDCHAR
STARTCHAR uni047C
ENCODING 1148
SWIDTH 960 0
DWIDTH 7 0
BBX 5 12 1 0
BITMAP
08
F8
80
00
50
88
88
88
A8
A8
A8
50
ENDCHAR
STARTCHAR uni047D
ENCODING 1149
SWIDTH 960 0
DWIDTH 7 0
BBX 5 11 1 0
BITMAP
08
F8
80
00
50
88
A8
A8
A8
A8
50
ENDCHAR
STARTCHAR uni047E
ENCODING 1150
SWIDTH 960 0
DWIDTH 7 0
BBX 5 12 1 0
BITMAP
F8
20
00
50
88
88
88
88
A8
A8
A8
50
ENDCHAR
STARTCHAR uni047F
ENCODING 1151
SWIDTH 960 0
DWIDTH 7 0
BBX 5 10 1 0
BITMAP
F8
20
00
88
88
A8
A8
A8
A8
50
ENDCHAR
STARTCHAR uni0480
ENCODING 1152
SWIDTH 960 0
DWIDTH 7 0
BBX 6 12 0 -2
BITMAP
78
84
84
84
80
80
80
80
80
78
08
1C
ENDCHAR
STARTCHAR uni0481
ENCODING 1153
SWIDTH 960 0
DWIDTH 7 0
BBX 6 8 0 -1
BITMAP
78
84
80
80
80
78
08
08
ENDCHAR
STARTCHAR uni0482
ENCODING 1154
SWIDTH 960 0
DWIDTH 7 0
BBX 5 5 1 3
BITMAP
28
10
A8
40
A0
ENDCHAR
STARTCHAR uni0483
ENCODING 1155
SWIDTH 960 0
DWIDTH 7 0
BBX 5 3 1 7
BITMAP
18
F8
C0
ENDCHAR
STARTCHAR uni0484
ENCODING 1156
SWIDTH 960 0
DWIDTH 7 0
BBX 5 2 1 7
BITMAP
70
C8
ENDCHAR
STARTCHAR uni0485
ENCODING 1157
SWIDTH 960 0
DWIDTH 7 0
BBX 4 3 1 7
BITMAP
80
F0
80
ENDCHAR
STARTCHAR uni0486
ENCODING 1158
SWIDTH 960 0
DWIDTH 7 0
BBX 4 3 1 7
BITMAP
10
F0
10
ENDCHAR
STARTCHAR uni0488
ENCODING 1160
SWIDTH 960 0
DWIDTH 7 0
BBX 7 11 0 -1
BITMAP
10
10
C6
82
00
C6
00
82
C6
10
10
ENDCHAR
STARTCHAR uni0489
ENCODING 1161
SWIDTH 960 0
DWIDTH 7 0
BBX 6 13 0 -1
BITMAP
10
30
00
44
CC
00
44
CC
00
44
CC
10
30
ENDCHAR
STARTCHAR uni048A
ENCODING 1162
SWIDTH 960 0
DWIDTH 7 0
BBX 7 14 0 -2
BITMAP
84
78
00
84
8C
8C
94
A4
C4
C4
84
86
02
04
ENDCHAR
STARTCHAR uni048B
ENCODING 1163
SWIDTH 960 0
DWIDTH 7 0
BBX 7 12 0 -2
BITMAP
84
78
00
84
8C
94
A4
C4
84
86
02
04
ENDCHAR
STARTCHAR uni048C
ENCODING 1164
SWIDTH 960 0
DWIDTH 7 0
BBX 6 10 0 0
BITMAP
40
F0
40
40
78
44
44
44
44
78
ENDCHAR
STARTCHAR uni048D
ENCODING 1165
SWIDTH 960 0
DWIDTH 7 0
BBX 6 7 0 0
BITMAP
40
F0
40
78
44
44
78
ENDCHAR
STARTCHAR uni048E
ENCODING 1166
SWIDTH 960 0
DWIDTH 7 0
BBX 6 10 0 0
BITMAP
F8
84
84
94
88
F4
80
80
80
80
ENDCHAR
STARTCHAR uni048F
ENCODING 1167
SWIDTH 960 0
DWIDTH 7 0
BBX 6 9 0 -2
BITMAP
F8
84
84
94
88
F4
80
80
80
ENDCHAR
STARTCHAR afii10050
ENCODING 1168
SWIDTH 960 0
DWIDTH 7 0
BBX 6 11 0 0
BITMAP
04
FC
80
80
80
80
80
80
80
80
80
ENDCHAR
STARTCHAR afii10098
ENCODING 1169
SWIDTH 960 0
DWIDTH 7 0
BBX 5 8 1 0
BITMAP
08
F8
80
80
80
80
80
80
ENDCHAR
STARTCHAR uni0492
ENCODING 1170
SWIDTH 960 0
DWIDTH 7 0
BBX 6 10 0 0
BITMAP
7C
44
40
40
E0
40
40
40
40
40
ENDCHAR
STARTCHAR uni0493
ENCODING 1171
SWIDTH 960 0
DWIDTH 7 0
BBX 6 7 0 0
BITMAP
7C
44
40
E0
40
40
40
ENDCHAR
STARTCHAR uni0494
ENCODING 1172
SWIDTH 960 0
DWIDTH 7 0
BBX 6 11 0 -1
BITMAP
FC
80
80
80
E0
90
88
88
88
88
10
ENDCHAR
STARTCHAR uni0495
ENCODING 1173
SWIDTH 960 0
DWIDTH 7 0
BBX 5 9 1 -2
BITMAP
F8
80
80
E0
90
90
90
20
40
ENDCHAR
STARTCHAR uni0496
ENCODING 1174
SWIDTH 960 0
DWIDTH 7 0
BBX 6 12 0 -2
BITMAP
A8
A8
A8
A8
70
A8
A8
A8
A8
AC
04
04
ENDCHAR
STARTCHAR uni0497
ENCODING 1175
SWIDTH 960 0
DWIDTH 7 0
BBX 6 9 0 -2
BITMAP
A8
A8
A8
70
A8
A8
AC
04
04
ENDCHAR
STARTCHAR uni0498
ENCODING 1176
SWIDTH 960 0
DWIDTH 7 0
BBX 6 12 0 -2
BITMAP
70
88
04
08
30
08
04
84
88
70
20
40
ENDCHAR
STARTCHAR uni0499
ENCODING 1177
SWIDTH 960 0
DWIDTH 7 0
BBX 6 9 0 -2
BITMAP
78
84
04
18
04
84
78
10
20
ENDCHAR
STARTCHAR uni049A
ENCODING 1178
SWIDTH 960 0
DWIDTH 7 0
BBX 7 12 0 -2
BITMAP
84
88
90
A0
C0
A0
90
88
84
86
02
02
ENDCHAR
STARTCHAR uni049B
ENCODING 1179
SWIDTH 960 0
DWIDTH 7 0
BBX 7 9 0 -2
BITMAP
84
88
90
A0
D0
88
86
02
02
ENDCHAR
STARTCHAR uni049C
ENCODING 1180
SWIDTH 960 0
DWIDTH 7 0
BBX 6 10 0 0
BITMAP
84
88
90
A0
F0
A0
90
88
84
84
ENDCHAR
STARTCHAR uni049D
ENCODING 1181
SWIDTH 960 0
DWIDTH 7 0
BBX 5 7 0 0
BITMAP
88
90
A0
B0
E0
90
88
ENDCHAR
STARTCHAR uni049E
ENCODING 1182
SWIDTH 960 0
DWIDTH 7 0
BBX 6 10 0 0
BITMAP
40
E4
48
50
60
50
48
44
44
44
ENDCHAR
STARTCHAR uni049F
ENCODING 1183
SWIDTH 960 0
DWIDTH 7 0
BBX 6 7 0 0
BITMAP
40
E4
48
50
68
44
44
ENDCHAR
STARTCHAR uni04A0
ENCODING 1184
SWIDTH 960 0
DWIDTH 7 0
BBX 6 10 0 0
BITMAP
E4
28
28
30
20
30
28
28
24
24
ENDCHAR
STARTCHAR uni04A1
ENCODING 1185
SWIDTH 960 0
DWIDTH 7 0
BBX 6 7 0 0
BITMAP
E4
28
30
20
30
28
24
ENDCHAR
STARTCHAR uni04A2
ENCODING 1186
SWIDTH 960 0
DWIDTH 7 0
BBX 6 12 0 -2
BITMAP
88
88
88
88
F8
88
88
88
88
8C
04
04
ENDCHAR
STARTCHAR uni04A3
ENCODING 1187
SWIDTH 960 0
DWIDTH 7 0
BBX 6 9 0 -2
BITMAP
88
88
88
F8
88
88
8C
04
04
ENDCHAR
STARTCHAR uni04A4
ENCODING 1188
SWIDTH 960 0
DWIDTH 7 0
BBX 6 10 0 0
BITMAP
9C
90
90
90
F0
90
90
90
90
90
ENDCHAR
STARTCHAR uni04A5
ENCODING 1189
SWIDTH 960 0
DWIDTH 7 0
BBX 6 7 0 0
BITMAP
9C
90
90
F0
90
90
90
ENDCHAR
STARTCHAR uni04A6
ENCODING 1190
SWIDTH 960 0
DWIDTH 7 0
BBX 6 12 0 -2
BITMAP
F0
90
90
90
98
94
94
94
94
94
04
18
ENDCHAR
STARTCHAR uni04A7
ENCODING 1191
SWIDTH 960 0
DWIDTH 7 0
BBX 6 9 0 -2
BITMAP
F0
90
90
98
94
94
94
04
18
ENDCHAR
STARTCHAR uni04A8
ENCODING 1192
SWIDTH 960 0
DWIDTH 7 0
BBX 6 11 0 -1
BITMAP
30
48
40
88
94
94
94
94
54
38
04
ENDCHAR
STARTCHAR uni04A9
ENCODING 1193
SWIDTH 960 0
DWIDTH 7 0
BBX 6 8 0 -1
BITMAP
30
48
80
88
94
58
38
04
ENDCHAR
STARTCHAR uni04AA
ENCODING 1194
SWIDTH 960 0
DWIDTH 7 0
BBX 6 12 0 -2
BITMAP
78
84
84
80
80
80
80
84
84
78
10
20
ENDCHAR
STARTCHAR uni04AB
ENCODING 1195
SWIDTH 960 0
DWIDTH 7 0
BBX 6 9 0 -2
BITMAP
78
84
80
80
80
84
78
10
20
ENDCHAR
STARTCHAR uni04AC
ENCODING 1196
SWIDTH 960 0
DWIDTH 7 0
BBX 7 12 0 -2
BITMAP
FE
10
10
10
10
10
10
10
10
38
08
08
ENDCHAR
STARTCHAR uni04AD
ENCODING 1197
SWIDTH 960 0
DWIDTH 7 0
BBX 5 9 1 -2
BITMAP
F8
A8
20
20
20
20
30
10
10
ENDCHAR
STARTCHAR uni04AE
ENCODING 1198
SWIDTH 960 0
DWIDTH 7 0
BBX 5 10 1 0
BITMAP
88
88
88
50
50
20
20
20
20
20
ENDCHAR
STARTCHAR uni04AF
ENCODING 1199
SWIDTH 960 0
DWIDTH 7 0
BBX 5 9 1 -2
BITMAP
88
88
88
50
50
20
20
20
20
ENDCHAR
STARTCHAR uni04B0
ENCODING 1200
SWIDTH 960 0
DWIDTH 7 0
BBX 5 10 1 0
BITMAP
88
88
88
50
50
F8
20
20
20
20
ENDCHAR
STARTCHAR uni04B1
ENCODING 1201
SWIDTH 960 0
DWIDTH 7 0
BBX 5 9 1 -2
BITMAP
88
88
88
50
50
F8
20
20
20
ENDCHAR
STARTCHAR uni04B2
ENCODING 1202
SWIDTH 960 0
DWIDTH 7 0
BBX 7 12 0 -2
BITMAP
84
84
48
48
30
30
48
48
84
86
02
02
ENDCHAR
STARTCHAR uni04B3
ENCODING 1203
SWIDTH 960 0
DWIDTH 7 0
BBX 7 9 0 -2
BITMAP
84
84
48
30
48
84
86
02
02
ENDCHAR
STARTCHAR uni04B4
ENCODING 1204
SWIDTH 960 0
DWIDTH 7 0
BBX 6 12 0 -2
BITMAP
E4
44
44
44
44
44
44
44
44
7C
04
04
ENDCHAR
STARTCHAR uni04B5
ENCODING 1205
SWIDTH 960 0
DWIDTH 7 0
BBX 6 9 0 -2
BITMAP
E4
44
44
44
44
44
7C
04
04
ENDCHAR
STARTCHAR uni04B6
ENCODING 1206
SWIDTH 960 0
DWIDTH 7 0
BBX 7 12 0 -2
BITMAP
84
84
84
84
7C
04
04
04
04
0E
02
02
ENDCHAR
STARTCHAR uni04B7
ENCODING 1207
SWIDTH 960 0
DWIDTH 7 0
BBX 7 9 0 -2
BITMAP
84
84
84
7C
04
04
06
02
02
ENDCHAR
STARTCHAR uni04B8
ENCODING 1208
SWIDTH 960 0
DWIDTH 7 0
BBX 6 10 0 0
BITMAP
84
84
A4
A4
7C
24
24
04
04
04
ENDCHAR
STARTCHAR uni04B9
ENCODING 1209
SWIDTH 960 0
DWIDTH 7 0
BBX 6 7 0 0
BITMAP
84
84
A4
7C
24
04
04
ENDCHAR
STARTCHAR uni04BA
ENCODING 1210
SWIDTH 960 0
DWIDTH 7 0
BBX 6 10 0 0
BITMAP
80
80
80
B8
C4
84
84
84
84
84
ENDCHAR
STARTCHAR uni04BB
ENCODING 1211
SWIDTH 960 0
DWIDTH 7 0
BBX 5 10 1 0
BITMAP
80
80
80
80
B0
C8
88
88
88
88
ENDCHAR
STARTCHAR uni04BC
ENCODING 1212
SWIDTH 960 0
DWIDTH 7 0
BBX 7 9 0 0
BITMAP
BC
C2
42
42
7E
40
40
42
3C
ENDCHAR
STARTCHAR uni04BD
ENCODING 1213
SWIDTH 960 0
DWIDTH 7 0
BBX 6 7 0 0
BITMAP
B8
C4
44
7C
40
44
38
ENDCHAR
STARTCHAR uni04BE
ENCODING 1214
SWIDTH 960 0
DWIDTH 7 0
BBX 7 11 0 -2
BITMAP
BC
C2
42
42
7E
40
40
42
3C
10
18
ENDCHAR
STARTCHAR uni04BF
ENCODING 1215
SWIDTH 960 0
DWIDTH 7 0
BBX 6 9 0 -2
BITMAP
B8
C4
44
7C
40
44
38
20
30
ENDCHAR
STARTCHAR uni04C0
ENCODING 1216
SWIDTH 960 0
DWIDTH 7 0
BBX 3 10 2 0
BITMAP
E0
40
40
40
40
40
40
40
40
E0
ENDCHAR
STARTCHAR uni04C1
ENCODING 1217
SWIDTH 960 0
DWIDTH 7 0
BBX 5 12 1 0
BITMAP
88
70
00
A8
A8
A8
A8
70
A8
A8
A8
A8
ENDCHAR
STARTCHAR uni04C2
ENCODING 1218
SWIDTH 960 0
DWIDTH 7 0
BBX 5 10 1 0
BITMAP
88
70
00
A8
A8
A8
70
A8
A8
A8
ENDCHAR
STARTCHAR uni04C3
ENCODING 1219
SWIDTH 960 0
DWIDTH 7 0
BBX 6 12 0 -2
BITMAP
84
88
90
A0
E0
90
88
84
84
84
08
70
ENDCHAR
STARTCHAR uni04C4
ENCODING 1220
SWIDTH 960 0
DWIDTH 7 0
BBX 6 9 0 -2
BITMAP
84
88
90
B0
C8
84
84
24
18
ENDCHAR
STARTCHAR uni04C5
ENCODING 1221
SWIDTH 960 0
DWIDTH 7 0
BBX 7 12 0 -2
BITMAP
3C
24
24
24
24
24
24
24
A4
4E
02
04
ENDCHAR
STARTCHAR uni04C6
ENCODING 1222
SWIDTH 960 0
DWIDTH 7 0
BBX 7 9 0 -2
BITMAP
3C
24
24
24
24
24
CE
02
04
ENDCHAR
STARTCHAR uni04C7
ENCODING 1223
SWIDTH 960 0
DWIDTH 7 0
BBX 6 12 0 -2
BITMAP
84
84
84
84
FC
84
84
84
84
84
04
38
ENDCHAR
STARTCHAR uni04C8
ENCODING 1224
SWIDTH 960 0
DWIDTH 7 0
BBX 6 9 0 -2
BITMAP
84
84
84
FC
84
84
84
04
38
ENDCHAR
STARTCHAR uni04C9
ENCODING 1225
SWIDTH 960 0
DWIDTH 7 0
BBX 7 12 0 -2
BITMAP
84
84
84
84
FC
84
84
84
84
8E
02
04
ENDCHAR
STARTCHAR uni04CA
ENCODING 1226
SWIDTH 960 0
DWIDTH 7 0
BBX 7 9 0 -2
BITMAP
84
84
84
FC
84
84
8E
02
04
ENDCHAR
STARTCHAR uni04CB
ENCODING 1227
SWIDTH 960 0
DWIDTH 7 0
BBX 6 12 0 -2
BITMAP
84
84
84
84
8C
74
04
04
04
0C
08
08
ENDCHAR
STARTCHAR uni04CC
ENCODING 1228
SWIDTH 960 0
DWIDTH 7 0
BBX 6 9 0 -2
BITMAP
84
84
8C
74
04
04
0C
08
08
ENDCHAR
STARTCHAR uni04CD
ENCODING 1229
SWIDTH 960 0
DWIDTH 7 0
BBX 7 12 0 -2
BITMAP
84
CC
CC
B4
B4
84
84
84
84
8E
02
04
ENDCHAR
STARTCHAR uni04CE
ENCODING 1230
SWIDTH 960 0
DWIDTH 7 0
BBX 7 9 0 -2
BITMAP
84
CC
CC
B4
B4
84
8E
02
04
ENDCHAR
STARTCHAR uni04D0
ENCODING 1232
SWIDTH 960 0
DWIDTH 7 0
BBX 6 12 0 0
BITMAP
84
78
00
30
48
84
84
FC
84
84
84
84
ENDCHAR
STARTCHAR uni04D1
ENCODING 1233
SWIDTH 960 0
DWIDTH 7 0
BBX 6 10 0 0
BITMAP
84
78
00
78
84
04
7C
84
84
7C
ENDCHAR
STARTCHAR uni04D2
ENCODING 1234
SWIDTH 960 0
DWIDTH 7 0
BBX 6 12 0 0
BITMAP
48
48
00
30
48
84
84
FC
84
84
84
84
ENDCHAR
STARTCHAR uni04D3
ENCODING 1235
SWIDTH 960 0
DWIDTH 7 0
BBX 6 10 0 0
BITMAP
48
48
00
78
84
04
7C
84
84
7C
ENDCHAR
STARTCHAR uni04D4
ENCODING 1236
SWIDTH 960 0
DWIDTH 7 0
BBX 6 10 0 0
BITMAP
6C
90
90
90
9C
F0
90
90
90
9C
ENDCHAR
STARTCHAR uni04D5
ENCODING 1237
SWIDTH 960 0
DWIDTH 7 0
BBX 6 7 0 0
BITMAP
78
14
14
78
90
94
68
ENDCHAR
STARTCHAR uni04D6
ENCODING 1238
SWIDTH 960 0
DWIDTH 7 0
BBX 6 12 0 0
BITMAP
84
78
00
FC
80
80
80
F0
80
80
80
FC
ENDCHAR
STARTCHAR uni04D7
ENCODING 1239
SWIDTH 960 0
DWIDTH 7 0
BBX 6 10 0 0
BITMAP
84
78
00
78
84
84
FC
80
84
78
ENDCHAR
STARTCHAR uni04D8
ENCODING 1240
SWIDTH 960 0
DWIDTH 7 0
BBX 6 10 0 0
BITMAP
78
84
04
04
FC
84
84
84
84
78
ENDCHAR
STARTCHAR afii10846
ENCODING 1241
SWIDTH 960 0
DWIDTH 7 0
BBX 6 7 0 0
BITMAP
78
84
04
FC
84
84
78
ENDCHAR
STARTCHAR uni04DA
ENCODING 1242
SWIDTH 960 0
DWIDTH 7 0
BBX 6 12 0 0
BITMAP
48
48
00
78
84
04
04
FC
84
84
84
78
ENDCHAR
STARTCHAR uni04DB
ENCODING 1243
SWIDTH 960 0
DWIDTH 7 0
BBX 6 10 0 0
BITMAP
48
48
00
78
84
04
FC
84
84
78
ENDCHAR
STARTCHAR uni04DC
ENCODING 1244
SWIDTH 960 0
DWIDTH 7 0
BBX 5 12 1 0
BITMAP
50
50
00
A8
A8
A8
A8
70
A8
A8
A8
A8
ENDCHAR
STARTCHAR uni04DD
ENCODING 1245
SWIDTH 960 0
DWIDTH 7 0
BBX 5 10 1 0
BITMAP
50
50
00
A8
A8
A8
70
A8
A8
A8
ENDCHAR
STARTCHAR uni04DE
ENCODING 1246
SWIDTH 960 0
DWIDTH 7 0
BBX 6 12 0 0
BITMAP
48
48
00
78
84
04
04
38
04
04
84
78
ENDCHAR
STARTCHAR uni04DF
ENCODING 1247
SWIDTH 960 0
DWIDTH 7 0
BBX 6 10 0 0
BITMAP
48
48
00
78
84
04
18
04
84
78
ENDCHAR
STARTCHAR uni04E0
ENCODING 1248
SWIDTH 960 0
DWIDTH 7 0
BBX 6 10 0 0
BITMAP
FC
04
08
10
38
04
04
04
84
78
ENDCHAR
STARTCHAR uni04E1
ENCODING 1249
SWIDTH 960 0
DWIDTH 7 0
BBX 6 9 0 -2
BITMAP
FC
04
08
10
38
04
04
84
78
ENDCHAR
STARTCHAR uni04E2
ENCODING 1250
SWIDTH 960 0
DWIDTH 7 0
BBX 6 11 0 0
BITMAP
FC
00
84
8C
8C
94
A4
C4
C4
84
84
ENDCHAR
STARTCHAR uni04E3
ENCODING 1251
SWIDTH 960 0
DWIDTH 7 0
BBX 6 9 0 0
BITMAP
FC
00
84
8C
94
A4
C4
84
84
ENDCHAR
STARTCHAR uni04E4
ENCODING 1252
SWIDTH 960 0
DWIDTH 7 0
BBX 6 12 0 0
BITMAP
48
48
00
84
8C
8C
94
A4
C4
C4
84
84
ENDCHAR
STARTCHAR uni04E5
ENCODING 1253
SWIDTH 960 0
DWIDTH 7 0
BBX 6 10 0 0
BITMAP
48
48
00
84
8C
94
A4
C4
84
84
ENDCHAR
STARTCHAR uni04E6
ENCODING 1254
SWIDTH 960 0
DWIDTH 7 0
BBX 6 12 0 0
BITMAP
48
48
00
78
84
84
84
84
84
84
84
78
ENDCHAR
STARTCHAR uni04E7
ENCODING 1255
SWIDTH 960 0
DWIDTH 7 0
BBX 6 10 0 0
BITMAP
48
48
00
78
84
84
84
84
84
78
ENDCHAR
STARTCHAR uni04E8
ENCODING 1256
SWIDTH 960 0
DWIDTH 7 0
BBX 6 10 0 0
BITMAP
78
84
84
84
FC
84
84
84
84
78
ENDCHAR
STARTCHAR uni04E9
ENCODING 1257
SWIDTH 960 0
DWIDTH 7 0
BBX 6 7 0 0
BITMAP
78
84
84
FC
84
84
78
ENDCHAR
STARTCHAR uni04EA
ENCODING 1258
SWIDTH 960 0
DWIDTH 7 0
BBX 6 12 0 0
BITMAP
48
48
00
78
84
84
84
FC
84
84
84
78
ENDCHAR
STARTCHAR uni04EB
ENCODING 1259
SWIDTH 960 0
DWIDTH 7 0
BBX 6 10 0 0
BITMAP
48
48
00
78
84
84
FC
84
84
78
ENDCHAR
STARTCHAR uni04EC
ENCODING 1260
SWIDTH 960 0
DWIDTH 7 0
BBX 6 12 0 0
BITMAP
50
50
00
F0
08
04
04
7C
04
04
08
F0
ENDCHAR
STARTCHAR uni04ED
ENCODING 1261
SWIDTH 960 0
DWIDTH 7 0
BBX 5 10 1 0
BITMAP
90
90
00
F0
08
08
38
08
08
F0
ENDCHAR
STARTCHAR uni04EE
ENCODING 1262
SWIDTH 960 0
DWIDTH 7 0
BBX 6 11 0 0
BITMAP
FC
00
84
84
84
84
8C
74
04
84
78
ENDCHAR
STARTCHAR uni04EF
ENCODING 1263
SWIDTH 960 0
DWIDTH 7 0
BBX 6 11 0 -2
BITMAP
FC
00
84
84
84
84
8C
74
04
84
78
ENDCHAR
STARTCHAR uni04F0
ENCODING 1264
SWIDTH 960 0
DWIDTH 7 0
BBX 6 12 0 0
BITMAP
48
48
00
84
84
84
84
8C
74
04
84
78
ENDCHAR
STARTCHAR uni04F1
ENCODING 1265
SWIDTH 960 0
DWIDTH 7 0
BBX 6 12 0 -2
BITMAP
48
48
00
84
84
84
84
8C
74
04
84
78
ENDCHAR
STARTCHAR uni04F2
ENCODING 1266
SWIDTH 960 0
DWIDTH 7 0
BBX 6 12 0 0
BITMAP
24
48
00
84
84
84
84
8C
74
04
84
78
ENDCHAR
STARTCHAR uni04F3
ENCODING 1267
SWIDTH 960 0
DWIDTH 7 0
BBX 6 12 0 -2
BITMAP
24
48
00
84
84
84
84
8C
74
04
84
78
ENDCHAR
STARTCHAR uni04F4
ENCODING 1268
SWIDTH 960 0
DWIDTH 7 0
BBX 6 12 0 0
BITMAP
48
48
00
84
84
84
8C
74
04
04
04
04
ENDCHAR
STARTCHAR uni04F5
ENCODING 1269
SWIDTH 960 0
DWIDTH 7 0
BBX 6 10 0 0
BITMAP
48
48
00
84
84
8C
74
04
04
04
ENDCHAR
STARTCHAR uni04F8
ENCODING 1272
SWIDTH 960 0
DWIDTH 7 0
BBX 6 12 0 0
BITMAP
48
48
00
84
84
84
E4
94
94
94
94
E4
ENDCHAR
STARTCHAR uni04F9
ENCODING 1273
SWIDTH 960 0
DWIDTH 7 0
BBX 6 10 0 0
BITMAP
48
48
00
84
84
84
E4
94
94
E4
ENDCHAR
STARTCHAR uni0500
ENCODING 1280
SWIDTH 960 0
DWIDTH 7 0
BBX 7 10 0 0
BITMAP
04
04
04
7C
84
84
84
84
84
7E
ENDCHAR
STARTCHAR uni0501
ENCODING 1281
SWIDTH 960 0
DWIDTH 7 0
BBX 5 10 1 0
BITMAP
08
08
08
68
98
88
88
88
98
68
ENDCHAR
STARTCHAR uni0502
ENCODING 1282
SWIDTH 960 0
DWIDTH 7 0
BBX 7 10 0 0
BITMAP
08
08
08
78
88
88
8A
8A
8A
76
ENDCHAR
STARTCHAR uni0503
ENCODING 1283
SWIDTH 960 0
DWIDTH 7 0
BBX 6 10 1 0
BITMAP
10
10
10
50
B0
90
94
94
B4
5C
ENDCHAR
STARTCHAR uni0504
ENCODING 1284
SWIDTH 960 0
DWIDTH 7 0
BBX 7 10 0 0
BITMAP
60
90
08
10
20
10
0A
0A
0A
04
ENDCHAR
STARTCHAR uni0505
ENCODING 1285
SWIDTH 960 0
DWIDTH 7 0
BBX 7 7 0 0
BITMAP
70
88
08
30
0A
0A
04
ENDCHAR
STARTCHAR uni0506
ENCODING 1286
SWIDTH 960 0
DWIDTH 7 0
BBX 7 12 0 -2
BITMAP
60
90
08
10
20
10
08
08
08
06
02
02
ENDCHAR
STARTCHAR uni0507
ENCODING 1287
SWIDTH 960 0
DWIDTH 7 0
BBX 7 9 0 -2
BITMAP
70
88
08
30
08
08
06
02
02
ENDCHAR
STARTCHAR uni0508
ENCODING 1288
SWIDTH 960 0
DWIDTH 7 0
BBX 7 10 0 0
BITMAP
38
28
28
28
28
2A
2A
2A
AA
4E
ENDCHAR
STARTCHAR uni0509
ENCODING 1289
SWIDTH 960 0
DWIDTH 7 0
BBX 7 7 0 0
BITMAP
38
28
28
2A
2A
2A
CE
ENDCHAR
STARTCHAR uni050A
ENCODING 1290
SWIDTH 960 0
DWIDTH 7 0
BBX 7 10 0 0
BITMAP
88
88
88
88
F8
8A
8A
8A
8A
8E
ENDCHAR
STARTCHAR uni050B
ENCODING 1291
SWIDTH 960 0
DWIDTH 7 0
BBX 7 7 0 0
BITMAP
88
88
88
FA
8A
8A
8E
ENDCHAR
STARTCHAR uni050C
ENCODING 1292
SWIDTH 960 0
DWIDTH 7 0
BBX 6 10 0 0
BITMAP
78
84
84
80
80
9C
84
84
84
78
ENDCHAR
STARTCHAR uni050D
ENCODING 1293
SWIDTH 960 0
DWIDTH 7 0
BBX 6 7 0 0
BITMAP
7C
8C
80
9C
84
84
78
ENDCHAR
STARTCHAR uni050E
ENCODING 1294
SWIDTH 960 0
DWIDTH 7 0
BBX 5 10 1 0
BITMAP
F8
20
20
20
20
28
28
28
28
38
ENDCHAR
STARTCHAR uni050F
ENCODING 1295
SWIDTH 960 0
DWIDTH 7 0
BBX 5 7 1 0
BITMAP
F8
20
20
28
28
28
38
ENDCHAR
STARTCHAR uni0531
ENCODING 1329
SWIDTH 960 0
DWIDTH 7 0
BBX 6 9 0 0
BITMAP
90
90
90
90
90
90
B8
94
64
ENDCHAR
STARTCHAR uni0532
ENCODING 1330
SWIDTH 960 0
DWIDTH 7 0
BBX 6 10 0 0
BITMAP
78
84
84
80
80
F8
84
80
80
80
ENDCHAR
STARTCHAR uni0533
ENCODING 1331
SWIDTH 960 0
DWIDTH 7 0
BBX 6 10 0 0
BITMAP
70
88
88
88
88
7C
08
08
08
08
ENDCHAR
STARTCHAR uni0534
ENCODING 1332
SWIDTH 960 0
DWIDTH 7 0
BBX 6 10 0 0
BITMAP
70
88
88
88
0C
08
08
08
08
08
ENDCHAR
STARTCHAR uni0535
ENCODING 1333
SWIDTH 960 0
DWIDTH 7 0
BBX 6 10 0 0
BITMAP
80
80
80
F8
84
80
80
84
84
78
ENDCHAR
STARTCHAR uni0536
ENCODING 1334
SWIDTH 960 0
DWIDTH 7 0
BBX 6 10 0 0
BITMAP
78
84
84
84
84
78
08
10
F8
84
ENDCHAR
STARTCHAR uni0537
ENCODING 1335
SWIDTH 960 0
DWIDTH 7 0
BBX 6 11 0 -1
BITMAP
80
80
80
80
F8
84
80
80
80
F8
04
ENDCHAR
STARTCHAR uni0538
ENCODING 1336
SWIDTH 960 0
DWIDTH 7 0
BBX 6 11 0 -1
BITMAP
78
84
84
84
80
80
80
80
80
F8
04
ENDCHAR
STARTCHAR uni0539
ENCODING 1337
SWIDTH 960 0
DWIDTH 7 0
BBX 6 10 0 0
BITMAP
78
84
84
84
9C
A4
A4
A4
A4
98
ENDCHAR
STARTCHAR uni053A
ENCODING 1338
SWIDTH 960 0
DWIDTH 7 0
BBX 6 10 0 0
BITMAP
04
04
04
7C
84
84
84
84
84
78
ENDCHAR
STARTCHAR uni053B
ENCODING 1339
SWIDTH 960 0
DWIDTH 7 0
BBX 6 10 0 0
BITMAP
80
80
80
80
F8
84
84
80
80
80
ENDCHAR
STARTCHAR uni053C
ENCODING 1340
SWIDTH 960 0
DWIDTH 7 0
BBX 6 12 0 -2
BITMAP
80
80
80
80
80
80
80
80
80
F8
04
08
ENDCHAR
STARTCHAR uni053D
ENCODING 1341
SWIDTH 960 0
DWIDTH 7 0
BBX 6 10 0 0
BITMAP
80
80
80
80
E4
A4
A4
A4
A4
98
ENDCHAR
STARTCHAR uni053E
ENCODING 1342
SWIDTH 960 0
DWIDTH 7 0
BBX 6 10 0 0
BITMAP
FC
30
48
84
84
84
84
84
84
78
ENDCHAR
STARTCHAR uni053F
ENCODING 1343
SWIDTH 960 0
DWIDTH 7 0
BBX 6 10 0 0
BITMAP
80
80
80
84
84
84
8C
74
04
04
ENDCHAR
STARTCHAR uni0540
ENCODING 1344
SWIDTH 960 0
DWIDTH 7 0
BBX 6 10 0 0
BITMAP
10
20
30
10
20
40
80
C0
30
0C
ENDCHAR
STARTCHAR uni0541
ENCODING 1345
SWIDTH 960 0
DWIDTH 7 0
BBX 6 10 0 0
BITMAP
78
84
84
84
84
04
04
78
88
74
ENDCHAR
STARTCHAR uni0542
ENCODING 1346
SWIDTH 960 0
DWIDTH 7 0
BBX 6 11 0 -1
BITMAP
70
88
88
88
08
08
08
08
08
0C
04
ENDCHAR
STARTCHAR uni0543
ENCODING 1347
SWIDTH 960 0
DWIDTH 7 0
BBX 6 10 0 0
BITMAP
08
D4
30
30
48
48
84
84
84
FC
ENDCHAR
STARTCHAR uni0544
ENCODING 1348
SWIDTH 960 0
DWIDTH 7 0
BBX 6 10 0 0
BITMAP
98
94
94
90
90
90
90
90
90
60
ENDCHAR
STARTCHAR uni0545
ENCODING 1349
SWIDTH 960 0
DWIDTH 7 0
BBX 6 10 0 0
BITMAP
30
48
08
70
88
04
04
84
88
70
ENDCHAR
STARTCHAR uni0546
ENCODING 1350
SWIDTH 960 0
DWIDTH 7 0
BBX 6 10 0 0
BITMAP
C0
40
40
40
40
40
44
44
44
38
ENDCHAR
STARTCHAR uni0547
ENCODING 1351
SWIDTH 960 0
DWIDTH 7 0
BBX 6 10 0 0
BITMAP
C0
30
4C
80
80
80
84
84
84
78
ENDCHAR
STARTCHAR uni0548
ENCODING 1352
SWIDTH 960 0
DWIDTH 7 0
BBX 6 10 0 0
BITMAP
78
84
84
84
84
84
84
84
84
84
ENDCHAR
STARTCHAR uni0549
ENCODING 1353
SWIDTH 960 0
DWIDTH 7 0
BBX 6 10 0 0
BITMAP
78
84
84
84
84
04
04
C8
30
0C
ENDCHAR
STARTCHAR uni054A
ENCODING 1354
SWIDTH 960 0
DWIDTH 7 0
BBX 5 10 1 0
BITMAP
70
A8
A8
A8
28
28
28
08
08
08
ENDCHAR
STARTCHAR uni054B
ENCODING 1355
SWIDTH 960 0
DWIDTH 7 0
BBX 6 10 0 0
BITMAP
70
88
84
84
44
24
18
10
F8
44
ENDCHAR
STARTCHAR uni054C
ENCODING 1356
SWIDTH 960 0
DWIDTH 7 0
BBX 6 10 0 0
BITMAP
60
90
90
90
98
94
94
90
90
90
ENDCHAR
STARTCHAR uni054D
ENCODING 1357
SWIDTH 960 0
DWIDTH 7 0
BBX 6 10 0 0
BITMAP
84
84
84
84
84
84
84
84
84
78
ENDCHAR
STARTCHAR uni054E
ENCODING 1358
SWIDTH 960 0
DWIDTH 7 0
BBX 6 12 0 -2
BITMAP
08
08
08
88
88
88
78
08
08
0C
04
04
ENDCHAR
STARTCHAR uni054F
ENCODING 1359
SWIDTH 960 0
DWIDTH 7 0
BBX 6 10 0 0
BITMAP
78
84
80
80
78
04
04
04
84
78
ENDCHAR
STARTCHAR uni0550
ENCODING 1360
SWIDTH 960 0
DWIDTH 7 0
BBX 6 10 0 0
BITMAP
78
84
84
80
80
80
80
80
80
80
ENDCHAR
STARTCHAR uni0551
ENCODING 1361
SWIDTH 960 0
DWIDTH 7 0
BBX 6 10 0 0
BITMAP
30
48
48
30
C8
04
04
04
84
78
ENDCHAR
STARTCHAR uni0552
ENCODING 1362
SWIDTH 960 0
DWIDTH 7 0
BBX 5 10 1 0
BITMAP
80
80
80
80
F0
88
80
80
80
80
ENDCHAR
STARTCHAR uni0553
ENCODING 1363
SWIDTH 960 0
DWIDTH 7 0
BBX 5 10 1 0
BITMAP
20
70
A8
A8
A8
A8
A8
A8
70
20
ENDCHAR
STARTCHAR uni0554
ENCODING 1364
SWIDTH 960 0
DWIDTH 7 0
BBX 6 10 0 0
BITMAP
18
24
24
24
24
38
20
A0
78
24
ENDCHAR
STARTCHAR uni0555
ENCODING 1365
SWIDTH 960 0
DWIDTH 7 0
BBX 6 10 0 0
BITMAP
78
84
84
84
84
84
84
84
84
78
ENDCHAR
STARTCHAR uni0556
ENCODING 1366
SWIDTH 960 0
DWIDTH 7 0
BBX 5 10 1 0
BITMAP
40
A0
A0
70
28
28
A8
A8
A8
70
ENDCHAR
STARTCHAR uni0559
ENCODING 1369
SWIDTH 960 0
DWIDTH 7 0
BBX 2 4 2 6
BITMAP
40
80
80
40
ENDCHAR
STARTCHAR uni055A
ENCODING 1370
SWIDTH 960 0
DWIDTH 7 0
BBX 2 4 2 6
BITMAP
80
40
40
80
ENDCHAR
STARTCHAR uni055B
ENCODING 1371
SWIDTH 960 0
DWIDTH 7 0
BBX 2 2 2 7
BITMAP
40
80
ENDCHAR
STARTCHAR uni055C
ENCODING 1372
SWIDTH 960 0
DWIDTH 7 0
BBX 5 3 1 7
BITMAP
08
70
80
ENDCHAR
STARTCHAR uni055D
ENCODING 1373
SWIDTH 960 0
DWIDTH 7 0
BBX 2 2 2 7
BITMAP
80
40
ENDCHAR
STARTCHAR uni055E
ENCODING 1374
SWIDTH 960 0
DWIDTH 7 0
BBX 5 4 1 5
BITMAP
70
88
A8
90
ENDCHAR
STARTCHAR uni055F
ENCODING 1375
SWIDTH 960 0
DWIDTH 7 0
BBX 5 3 1 6
BITMAP
C0
88
70
ENDCHAR
STARTCHAR uni0561
ENCODING 1377
SWIDTH 960 0
DWIDTH 7 0
BBX 5 7 1 0
BITMAP
88
88
A8
A8
A8
A8
58
ENDCHAR
STARTCHAR uni0562
ENCODING 1378
SWIDTH 960 0
DWIDTH 7 0
BBX 6 9 0 -2
BITMAP
78
84
84
84
80
80
FC
80
80
ENDCHAR
STARTCHAR uni0563
ENCODING 1379
SWIDTH 960 0
DWIDTH 7 0
BBX 6 9 0 -2
BITMAP
68
98
88
88
88
88
7C
08
08
ENDCHAR
STARTCHAR uni0564
ENCODING 1380
SWIDTH 960 0
DWIDTH 7 0
BBX 6 9 0 -2
BITMAP
B0
C8
88
88
88
88
8C
08
08
ENDCHAR
STARTCHAR uni0565
ENCODING 1381
SWIDTH 960 0
DWIDTH 7 0
BBX 6 10 0 0
BITMAP
80
80
80
FC
80
84
84
84
8C
74
ENDCHAR
STARTCHAR uni0566
ENCODING 1382
SWIDTH 960 0
DWIDTH 7 0
BBX 6 9 0 -2
BITMAP
68
98
88
88
88
98
68
08
0C
ENDCHAR
STARTCHAR uni0567
ENCODING 1383
SWIDTH 960 0
DWIDTH 7 0
BBX 6 12 0 -2
BITMAP
80
80
80
F8
80
80
80
80
80
78
04
08
ENDCHAR
STARTCHAR uni0568
ENCODING 1384
SWIDTH 960 0
DWIDTH 7 0
BBX 6 9 0 -2
BITMAP
B8
C4
84
84
84
84
84
80
FC
ENDCHAR
STARTCHAR uni0569
ENCODING 1385
SWIDTH 960 0
DWIDTH 7 0
BBX 6 9 0 -2
BITMAP
B0
C8
88
9C
A8
A8
90
80
80
ENDCHAR
STARTCHAR uni056A
ENCODING 1386
SWIDTH 960 0
DWIDTH 7 0
BBX 6 10 0 0
BITMAP
08
08
08
7C
88
88
88
88
88
70
ENDCHAR
STARTCHAR uni056B
ENCODING 1387
SWIDTH 960 0
DWIDTH 7 0
BBX 5 12 1 -2
BITMAP
80
80
80
B0
C8
88
88
88
88
88
80
80
ENDCHAR
STARTCHAR uni056C
ENCODING 1388
SWIDTH 960 0
DWIDTH 7 0
BBX 4 9 1 -2
BITMAP
C0
40
40
40
40
40
40
40
30
ENDCHAR
STARTCHAR uni056D
ENCODING 1389
SWIDTH 960 0
DWIDTH 7 0
BBX 6 12 0 -2
BITMAP
80
80
80
80
E4
A4
A4
A4
A4
9C
80
80
ENDCHAR
STARTCHAR uni056E
ENCODING 1390
SWIDTH 960 0
DWIDTH 7 0
BBX 6 9 0 0
BITMAP
E0
10
08
7C
88
88
88
88
70
ENDCHAR
STARTCHAR uni056F
ENCODING 1391
SWIDTH 960 0
DWIDTH 7 0
BBX 6 12 0 -2
BITMAP
80
80
80
80
84
84
84
84
8C
74
04
04
ENDCHAR
STARTCHAR uni0570
ENCODING 1392
SWIDTH 960 0
DWIDTH 7 0
BBX 6 10 0 0
BITMAP
80
80
80
B8
C4
84
84
84
84
84
ENDCHAR
STARTCHAR uni0571
ENCODING 1393
SWIDTH 960 0
DWIDTH 7 0
BBX 6 10 0 0
BITMAP
10
20
10
78
84
84
84
84
8C
74
ENDCHAR
STARTCHAR uni0572
ENCODING 1394
SWIDTH 960 0
DWIDTH 7 0
BBX 6 9 0 -2
BITMAP
B0
C8
88
88
88
88
88
08
0C
ENDCHAR
STARTCHAR uni0573
ENCODING 1395
SWIDTH 960 0
DWIDTH 7 0
BBX 6 10 0 0
BITMAP
38
44
40
F8
44
44
44
44
4C
74
ENDCHAR
STARTCHAR uni0574
ENCODING 1396
SWIDTH 960 0
DWIDTH 7 0
BBX 6 10 0 0
BITMAP
08
14
10
88
88
88
88
88
98
68
ENDCHAR
STARTCHAR uni0575
ENCODING 1397
SWIDTH 960 0
DWIDTH 7 0
BBX 4 9 1 -2
BITMAP
30
10
10
10
10
10
10
10
E0
ENDCHAR
STARTCHAR uni0576
ENCODING 1398
SWIDTH 960 0
DWIDTH 7 0
BBX 6 10 0 0
BITMAP
60
80
80
44
44
44
44
44
4C
34
ENDCHAR
STARTCHAR uni0577
ENCODING 1399
SWIDTH 960 0
DWIDTH 7 0
BBX 5 9 1 -2
BITMAP
70
88
08
10
20
40
80
80
78
ENDCHAR
STARTCHAR uni0578
ENCODING 1400
SWIDTH 960 0
DWIDTH 7 0
BBX 6 7 0 0
BITMAP
B8
C4
84
84
84
84
84
ENDCHAR
STARTCHAR uni0579
ENCODING 1401
SWIDTH 960 0
DWIDTH 7 0
BBX 6 10 0 -2
BITMAP
20
40
40
20
10
20
40
80
80
7C
ENDCHAR
STARTCHAR uni057A
ENCODING 1402
SWIDTH 960 0
DWIDTH 7 0
BBX 5 9 1 -2
BITMAP
88
88
A8
A8
A8
A8
58
08
08
ENDCHAR
STARTCHAR uni057B
ENCODING 1403
SWIDTH 960 0
DWIDTH 7 0
BBX 6 9 0 -2
BITMAP
78
84
84
84
68
10
20
20
3C
ENDCHAR
STARTCHAR uni057C
ENCODING 1404
SWIDTH 960 0
DWIDTH 7 0
BBX 6 7 0 0
BITMAP
B8
C4
84
84
88
90
B8
ENDCHAR
STARTCHAR uni057D
ENCODING 1405
SWIDTH 960 0
DWIDTH 7 0
BBX 6 7 0 0
BITMAP
84
84
84
84
84
8C
74
ENDCHAR
STARTCHAR uni057E
ENCODING 1406
SWIDTH 960 0
DWIDTH 7 0
BBX 6 12 0 -2
BITMAP
08
08
08
08
88
88
88
88
98
68
08
0C
ENDCHAR
STARTCHAR uni057F
ENCODING 1407
SWIDTH 960 0
DWIDTH 7 0
BBX 5 9 1 -2
BITMAP
B0
A8
A8
A8
A8
A8
68
20
20
ENDCHAR
STARTCHAR uni0580
ENCODING 1408
SWIDTH 960 0
DWIDTH 7 0
BBX 6 9 0 -2
BITMAP
B8
C4
84
84
84
84
84
80
80
ENDCHAR
STARTCHAR uni0581
ENCODING 1409
SWIDTH 960 0
DWIDTH 7 0
BBX 6 9 0 -2
BITMAP
78
84
84
84
84
7C
04
84
78
ENDCHAR
STARTCHAR uni0582
ENCODING 1410
SWIDTH 960 0
DWIDTH 7 0
BBX 4 7 1 0
BITMAP
C0
40
40
40
40
40
30
ENDCHAR
STARTCHAR uni0583
ENCODING 1411
SWIDTH 960 0
DWIDTH 7 0
BBX 5 12 1 -2
BITMAP
20
20
20
B0
A8
A8
A8
A8
A8
68
20
20
ENDCHAR
STARTCHAR uni0584
ENCODING 1412
SWIDTH 960 0
DWIDTH 7 0
BBX 6 10 0 0
BITMAP
58
64
44
44
44
64
58
40
FC
40
ENDCHAR
STARTCHAR uni0585
ENCODING 1413
SWIDTH 960 0
DWIDTH 7 0
BBX 6 7 0 0
BITMAP
78
84
84
84
84
84
78
ENDCHAR
STARTCHAR uni0586
ENCODING 1414
SWIDTH 960 0
DWIDTH 7 0
BBX 5 12 1 -2
BITMAP
60
A0
A0
70
28
28
A8
A8
A8
70
20
20
ENDCHAR
STARTCHAR uni0587
ENCODING 1415
SWIDTH 960 0
DWIDTH 7 0
BBX 6 10 0 0
BITMAP
80
80
80
90
90
90
90
90
90
6C
ENDCHAR
STARTCHAR uni0589
ENCODING 1417
SWIDTH 960 0
DWIDTH 7 0
BBX 2 5 2 2
BITMAP
C0
C0
00
C0
C0
ENDCHAR
STARTCHAR uni058A
ENCODING 1418
SWIDTH 960 0
DWIDTH 7 0
BBX 5 3 1 2
BITMAP
C0
88
70
ENDCHAR
STARTCHAR afii57645
ENCODING 1470
SWIDTH 960 0
DWIDTH 7 0
BBX 5 1 1 6
BITMAP
F8
ENDCHAR
STARTCHAR afii57842
ENCODING 1472
SWIDTH 960 0
DWIDTH 7 0
BBX 1 7 3 0
BITMAP
80
80
80
80
80
80
80
ENDCHAR
STARTCHAR afii57658
ENCODING 1475
SWIDTH 960 0
DWIDTH 7 0
BBX 1 6 3 1
BITMAP
80
80
00
00
80
80
ENDCHAR
STARTCHAR afii57664
ENCODING 1488
SWIDTH 960 0
DWIDTH 7 0
BBX 5 7 1 0
BITMAP
90
88
48
68
90
88
C8
ENDCHAR
STARTCHAR afii57665
ENCODING 1489
SWIDTH 960 0
DWIDTH 7 0
BBX 5 7 1 0
BITMAP
F0
10
10
10
10
10
F8
ENDCHAR
STARTCHAR afii57666
ENCODING 1490
SWIDTH 960 0
DWIDTH 7 0
BBX 4 7 1 0
BITMAP
80
40
40
20
20
50
90
ENDCHAR
STARTCHAR afii57667
ENCODING 1491
SWIDTH 960 0
DWIDTH 7 0
BBX 5 7 1 0
BITMAP
F8
10
10
10
10
10
10
ENDCHAR
STARTCHAR afii57668
ENCODING 1492
SWIDTH 960 0
DWIDTH 7 0
BBX 5 7 1 0
BITMAP
F8
08
08
88
88
88
88
ENDCHAR
STARTCHAR afii57669
ENCODING 1493
SWIDTH 960 0
DWIDTH 7 0
BBX 2 7 2 0
BITMAP
C0
40
40
40
40
40
40
ENDCHAR
STARTCHAR afii57670
ENCODING 1494
SWIDTH 960 0
DWIDTH 7 0
BBX 5 7 1 0
BITMAP
F8
20
20
10
10
10
10
ENDCHAR
STARTCHAR afii57671
ENCODING 1495
SWIDTH 960 0
DWIDTH 7 0
BBX 5 7 1 0
BITMAP
F8
48
48
48
48
48
48
ENDCHAR
STARTCHAR afii57672
ENCODING 1496
SWIDTH 960 0
DWIDTH 7 0
BBX 5 7 1 0
BITMAP
98
A8
A8
88
88
88
F8
ENDCHAR
STARTCHAR afii57673
ENCODING 1497
SWIDTH 960 0
DWIDTH 7 0
BBX 2 3 2 4
BITMAP
C0
40
40
ENDCHAR
STARTCHAR afii57674
ENCODING 1498
SWIDTH 960 0
DWIDTH 7 0
BBX 5 9 1 -2
BITMAP
F8
08
08
08
08
08
08
08
08
ENDCHAR
STARTCHAR afii57675
ENCODING 1499
SWIDTH 960 0
DWIDTH 7 0
BBX 5 7 1 0
BITMAP
F8
08
08
08
08
08
F0
ENDCHAR
STARTCHAR afii57676
ENCODING 1500
SWIDTH 960 0
DWIDTH 7 0
BBX 5 10 1 0
BITMAP
80
80
80
F8
08
08
10
20
40
40
ENDCHAR
STARTCHAR afii57677
ENCODING 1501
SWIDTH 960 0
DWIDTH 7 0
BBX 5 7 1 0
BITMAP
F8
48
48
48
48
48
78
ENDCHAR
STARTCHAR afii57678
ENCODING 1502
SWIDTH 960 0
DWIDTH 7 0
BBX 5 7 1 0
BITMAP
90
A8
48
88
88
88
B8
ENDCHAR
STARTCHAR afii57679
ENCODING 1503
SWIDTH 960 0
DWIDTH 7 0
BBX 2 9 2 -2
BITMAP
C0
40
40
40
40
40
40
40
40
ENDCHAR
STARTCHAR afii57680
ENCODING 1504
SWIDTH 960 0
DWIDTH 7 0
BBX 4 7 1 0
BITMAP
30
10
10
10
10
10
F0
ENDCHAR
STARTCHAR afii57681
ENCODING 1505
SWIDTH 960 0
DWIDTH 7 0
BBX 5 7 1 0
BITMAP
F8
48
48
48
48
50
60
ENDCHAR
STARTCHAR afii57682
ENCODING 1506
SWIDTH 960 0
DWIDTH 7 0
BBX 5 7 1 0
BITMAP
D8
48
48
48
48
50
E0
ENDCHAR
STARTCHAR afii57683
ENCODING 1507
SWIDTH 960 0
DWIDTH 7 0
BBX 5 9 1 -2
BITMAP
F8
48
48
68
08
08
08
08
08
ENDCHAR
STARTCHAR afii57684
ENCODING 1508
SWIDTH 960 0
DWIDTH 7 0
BBX 5 7 1 0
BITMAP
F8
48
48
68
08
08
F0
ENDCHAR
STARTCHAR afii57685
ENCODING 1509
SWIDTH 960 0
DWIDTH 7 0
BBX 5 9 1 -2
BITMAP
90
48
48
50
60
40
40
40
40
ENDCHAR
STARTCHAR afii57686
ENCODING 1510
SWIDTH 960 0
DWIDTH 7 0
BBX 5 7 1 0
BITMAP
90
48
28
10
08
08
F8
ENDCHAR
STARTCHAR afii57687
ENCODING 1511
SWIDTH 960 0
DWIDTH 7 0
BBX 5 9 1 -2
BITMAP
F8
08
88
88
90
A0
80
80
80
ENDCHAR
STARTCHAR afii57688
ENCODING 1512
SWIDTH 960 0
DWIDTH 7 0
BBX 5 7 1 0
BITMAP
F0
08
08
08
08
08
08
ENDCHAR
STARTCHAR afii57689
ENCODING 1513
SWIDTH 960 0
DWIDTH 7 0
BBX 5 7 1 0
BITMAP
A8
A8
A8
A8
E8
88
F0
ENDCHAR
STARTCHAR afii57690
ENCODING 1514
SWIDTH 960 0
DWIDTH 7 0
BBX 5 7 1 0
BITMAP
F8
48
48
48
48
48
88
ENDCHAR
STARTCHAR afii57716
ENCODING 1520
SWIDTH 960 0
DWIDTH 7 0
BBX 5 7 1 0
BITMAP
D8
48
48
48
48
48
48
ENDCHAR
STARTCHAR afii57717
ENCODING 1521
SWIDTH 960 0
DWIDTH 7 0
BBX 5 7 1 0
BITMAP
D8
48
48
08
08
08
08
ENDCHAR
STARTCHAR afii57718
ENCODING 1522
SWIDTH 960 0
DWIDTH 7 0
BBX 5 3 1 4
BITMAP
D8
48
48
ENDCHAR
STARTCHAR uni05F3
ENCODING 1523
SWIDTH 960 0
DWIDTH 7 0
BBX 2 2 2 5
BITMAP
40
80
ENDCHAR
STARTCHAR uni05F4
ENCODING 1524
SWIDTH 960 0
DWIDTH 7 0
BBX 5 2 1 5
BITMAP
48
90
ENDCHAR
STARTCHAR uni0E01
ENCODING 3585
SWIDTH 960 0
DWIDTH 7 0
BBX 6 7 0 0
BITMAP
78
84
C4
44
44
44
44
ENDCHAR
STARTCHAR uni0E02
ENCODING 3586
SWIDTH 960 0
DWIDTH 7 0
BBX 5 7 1 0
BITMAP
E8
E8
28
C8
88
88
70
ENDCHAR
STARTCHAR uni0E03
ENCODING 3587
SWIDTH 960 0
DWIDTH 7 0
BBX 6 7 0 0
BITMAP
94
F4
14
64
44
44
38
ENDCHAR
STARTCHAR uni0E04
ENCODING 3588
SWIDTH 960 0
DWIDTH 7 0
BBX 6 7 0 0
BITMAP
78
84
84
B4
B4
A4
64
ENDCHAR
STARTCHAR uni0E05
ENCODING 3589
SWIDTH 960 0
DWIDTH 7 0
BBX 6 7 0 0
BITMAP
68
94
84
B4
B4
A4
64
ENDCHAR
STARTCHAR uni0E06
ENCODING 3590
SWIDTH 960 0
DWIDTH 7 0
BBX 6 7 0 0
BITMAP
A4
E4
24
44
44
E4
D8
ENDCHAR
STARTCHAR uni0E07
ENCODING 3591
SWIDTH 960 0
DWIDTH 7 0
BBX 5 7 0 0
BITMAP
18
18
08
88
48
48
38
ENDCHAR
STARTCHAR uni0E08
ENCODING 3592
SWIDTH 960 0
DWIDTH 7 0
BBX 6 7 0 0
BITMAP
78
84
34
34
14
14
18
ENDCHAR
STARTCHAR uni0E09
ENCODING 3593
SWIDTH 960 0
DWIDTH 7 0
BBX 6 7 0 0
BITMAP
70
88
08
C8
C8
5C
6C
ENDCHAR
STARTCHAR uni0E0A
ENCODING 3594
SWIDTH 960 0
DWIDTH 7 0
BBX 5 8 0 0
BITMAP
08
C8
D0
48
88
88
88
70
ENDCHAR
STARTCHAR uni0E0B
ENCODING 3595
SWIDTH 960 0
DWIDTH 7 0
BBX 6 8 0 0
BITMAP
04
A4
E8
24
44
44
44
38
ENDCHAR
STARTCHAR uni0E0C
ENCODING 3596
SWIDTH 960 0
DWIDTH 7 0
BBX 6 7 0 0
BITMAP
64
94
54
94
94
BC
F4
ENDCHAR
STARTCHAR uni0E0D
ENCODING 3597
SWIDTH 960 0
DWIDTH 7 0
BBX 6 7 0 0
BITMAP
64
94
54
94
9C
D0
DC
ENDCHAR
STARTCHAR uni0E0E
ENCODING 3598
SWIDTH 960 0
DWIDTH 7 0
BBX 6 9 0 -2
BITMAP
78
84
44
44
44
C4
D4
24
5C
ENDCHAR
STARTCHAR uni0E0F
ENCODING 3599
SWIDTH 960 0
DWIDTH 7 0
BBX 6 9 0 -2
BITMAP
78
84
44
44
44
C4
D4
BC
54
ENDCHAR
STARTCHAR uni0E10
ENCODING 3600
SWIDTH 960 0
DWIDTH 7 0
BBX 6 9 0 -2
BITMAP
7C
80
78
64
64
24
18
54
AC
ENDCHAR
STARTCHAR uni0E11
ENCODING 3601
SWIDTH 960 0
DWIDTH 7 0
BBX 6 7 0 0
BITMAP
A8
F4
24
44
44
44
44
ENDCHAR
STARTCHAR uni0E12
ENCODING 3602
SWIDTH 960 0
DWIDTH 7 0
BBX 6 7 0 0
BITMAP
94
F4
94
F4
F4
BC
F4
ENDCHAR
STARTCHAR uni0E13
ENCODING 3603
SWIDTH 960 0
DWIDTH 7 0
BBX 6 7 0 0
BITMAP
48
A8
68
A8
A8
BC
EC
ENDCHAR
STARTCHAR uni0E14
ENCODING 3604
SWIDTH 960 0
DWIDTH 7 0
BBX 6 7 0 0
BITMAP
78
84
84
B4
B4
94
64
ENDCHAR
STARTCHAR uni0E15
ENCODING 3605
SWIDTH 960 0
DWIDTH 7 0
BBX 6 7 0 0
BITMAP
68
94
84
B4
B4
94
64
ENDCHAR
STARTCHAR uni0E16
ENCODING 3606
SWIDTH 960 0
DWIDTH 7 0
BBX 6 7 0 0
BITMAP
78
84
C4
44
44
64
64
ENDCHAR
STARTCHAR uni0E17
ENCODING 3607
SWIDTH 960 0
DWIDTH 7 0
BBX 6 7 0 0
BITMAP
C8
D4
64
44
44
44
44
ENDCHAR
STARTCHAR uni0E18
ENCODING 3608
SWIDTH 960 0
DWIDTH 7 0
BBX 6 7 0 0
BITMAP
7C
80
F8
44
44
44
38
ENDCHAR
STARTCHAR uni0E19
ENCODING 3609
SWIDTH 960 0
DWIDTH 7 0
BBX 6 7 0 0
BITMAP
C8
C8
48
88
88
9C
6C
ENDCHAR
STARTCHAR uni0E1A
ENCODING 3610
SWIDTH 960 0
DWIDTH 7 0
BBX 6 7 0 0
BITMAP
C4
C4
44
44
44
44
38
ENDCHAR
STARTCHAR uni0E1B
ENCODING 3611
SWIDTH 960 0
DWIDTH 7 0
BBX 6 9 0 0
BITMAP
04
04
C4
C4
44
44
44
44
38
ENDCHAR
STARTCHAR uni0E1C
ENCODING 3612
SWIDTH 960 0
DWIDTH 7 0
BBX 6 7 0 0
BITMAP
C4
C4
84
84
94
94
68
ENDCHAR
STARTCHAR uni0E1D
ENCODING 3613
SWIDTH 960 0
DWIDTH 7 0
BBX 6 9 0 0
BITMAP
04
04
C4
C4
84
84
94
94
68
ENDCHAR
STARTCHAR uni0E1E
ENCODING 3614
SWIDTH 960 0
DWIDTH 7 0
BBX 6 7 0 0
BITMAP
D4
D4
54
54
54
54
28
ENDCHAR
STARTCHAR uni0E1F
ENCODING 3615
SWIDTH 960 0
DWIDTH 7 0
BBX 6 9 0 0
BITMAP
04
04
D4
D4
54
54
54
54
28
ENDCHAR
STARTCHAR uni0E20
ENCODING 3616
SWIDTH 960 0
DWIDTH 7 0
BBX 6 7 0 0
BITMAP
78
84
C4
44
44
C4
C4
ENDCHAR
STARTCHAR uni0E21
ENCODING 3617
SWIDTH 960 0
DWIDTH 7 0
BBX 6 7 0 0
BITMAP
C4
C4
44
44
44
E4
D8
ENDCHAR
STARTCHAR uni0E22
ENCODING 3618
SWIDTH 960 0
DWIDTH 7 0
BBX 6 7 0 0
BITMAP
C4
C4
84
64
84
84
78
ENDCHAR
STARTCHAR uni0E23
ENCODING 3619
SWIDTH 960 0
DWIDTH 7 0
BBX 6 7 0 0
BITMAP
78
84
F0
08
08
18
18
ENDCHAR
STARTCHAR uni0E24
ENCODING 3620
SWIDTH 960 0
DWIDTH 7 0
BBX 6 9 0 -2
BITMAP
78
84
C4
44
44
64
64
04
04
ENDCHAR
STARTCHAR uni0E25
ENCODING 3621
SWIDTH 960 0
DWIDTH 7 0
BBX 6 7 0 0
BITMAP
78
84
34
4C
44
64
64
ENDCHAR
STARTCHAR uni0E26
ENCODING 3622
SWIDTH 960 0
DWIDTH 7 0
BBX 6 9 0 -2
BITMAP
78
84
C4
44
44
C4
C4
04
04
ENDCHAR
STARTCHAR uni0E27
ENCODING 3623
SWIDTH 960 0
DWIDTH 7 0
BBX 6 7 0 0
BITMAP
78
84
04
04
04
0C
0C
ENDCHAR
STARTCHAR uni0E28
ENCODING 3624
SWIDTH 960 0
DWIDTH 7 0
BBX 6 9 0 0
BITMAP
04
04
78
84
84
B4
B4
A4
64
ENDCHAR
STARTCHAR uni0E29
ENCODING 3625
SWIDTH 960 0
DWIDTH 7 0
BBX 6 7 0 0
BITMAP
C4
C4
54
5C
44
44
38
ENDCHAR
STARTCHAR uni0E2A
ENCODING 3626
SWIDTH 960 0
DWIDTH 7 0
BBX 6 9 0 0
BITMAP
04
04
78
84
34
4C
44
64
64
ENDCHAR
STARTCHAR uni0E2B
ENCODING 3627
SWIDTH 960 0
DWIDTH 7 0
BBX 6 7 0 0
BITMAP
CC
CC
48
54
64
44
44
ENDCHAR
STARTCHAR uni0E2C
ENCODING 3628
SWIDTH 960 0
DWIDTH 7 0
BBX 6 9 0 0
BITMAP
04
04
D8
C4
54
54
54
54
28
ENDCHAR
STARTCHAR uni0E2D
ENCODING 3629
SWIDTH 960 0
DWIDTH 7 0
BBX 6 7 0 0
BITMAP
78
84
64
64
44
44
38
ENDCHAR
STARTCHAR uni0E2E
ENCODING 3630
SWIDTH 960 0
DWIDTH 7 0
BBX 6 9 0 0
BITMAP
04
04
78
F4
04
64
64
44
38
ENDCHAR
STARTCHAR uni0E2F
ENCODING 3631
SWIDTH 960 0
DWIDTH 7 0
BBX 6 7 0 0
BITMAP
CC
F4
04
04
04
04
08
ENDCHAR
STARTCHAR uni0E30
ENCODING 3632
SWIDTH 960 0
DWIDTH 7 0
BBX 5 5 1 1
BITMAP
C8
F0
00
C8
F0
ENDCHAR
STARTCHAR uni0E31
ENCODING 3633
SWIDTH 960 0
DWIDTH 7 0
BBX 5 2 1 8
BITMAP
80
F8
ENDCHAR
STARTCHAR uni0E32
ENCODING 3634
SWIDTH 960 0
DWIDTH 7 0
BBX 6 7 0 0
BITMAP
78
84
04
04
04
04
04
ENDCHAR
STARTCHAR uni0E33
ENCODING 3635
SWIDTH 960 0
DWIDTH 7 0
BBX 6 9 0 0
BITMAP
C0
C0
38
44
04
04
04
04
04
ENDCHAR
STARTCHAR uni0E34
ENCODING 3636
SWIDTH 960 0
DWIDTH 7 0
BBX 5 1 1 8
BITMAP
F8
ENDCHAR
STARTCHAR uni0E35
ENCODING 3637
SWIDTH 960 0
DWIDTH 7 0
BBX 5 2 1 8
BITMAP
08
F8
ENDCHAR
STARTCHAR uni0E36
ENCODING 3638
SWIDTH 960 0
DWIDTH 7 0
BBX 5 2 1 8
BITMAP
18
F8
ENDCHAR
STARTCHAR uni0E37
ENCODING 3639
SWIDTH 960 0
DWIDTH 7 0
BBX 5 2 1 8
BITMAP
28
F8
ENDCHAR
STARTCHAR uni0E38
ENCODING 3640
SWIDTH 960 0
DWIDTH 7 0
BBX 2 2 4 -2
BITMAP
C0
40
ENDCHAR
STARTCHAR uni0E39
ENCODING 3641
SWIDTH 960 0
DWIDTH 7 0
BBX 4 2 2 -2
BITMAP
D0
70
ENDCHAR
STARTCHAR uni0E3A
ENCODING 3642
SWIDTH 960 0
DWIDTH 7 0
BBX 2 2 4 -2
BITMAP
C0
C0
ENDCHAR
STARTCHAR uni0E3F
ENCODING 3647
SWIDTH 960 0
DWIDTH 7 0
BBX 6 9 0 -1
BITMAP
28
F8
AC
AC
F8
AC
AC
F8
28
ENDCHAR
STARTCHAR uni0E40
ENCODING 3648
SWIDTH 960 0
DWIDTH 7 0
BBX 2 7 2 0
BITMAP
80
80
80
80
80
C0
C0
ENDCHAR
STARTCHAR uni0E41
ENCODING 3649
SWIDTH 960 0
DWIDTH 7 0
BBX 5 7 1 0
BITMAP
90
90
90
90
90
D8
D8
ENDCHAR
STARTCHAR uni0E42
ENCODING 3650
SWIDTH 960 0
DWIDTH 7 0
BBX 6 9 0 0
BITMAP
7C
80
F8
08
08
08
08
0C
0C
ENDCHAR
STARTCHAR uni0E43
ENCODING 3651
SWIDTH 960 0
DWIDTH 7 0
BBX 6 9 0 0
BITMAP
70
88
A8
68
08
08
08
0C
0C
ENDCHAR
STARTCHAR uni0E44
ENCODING 3652
SWIDTH 960 0
DWIDTH 7 0
BBX 6 9 0 0
BITMAP
D8
28
08
08
08
08
08
0C
0C
ENDCHAR
STARTCHAR uni0E45
ENCODING 3653
SWIDTH 960 0
DWIDTH 7 0
BBX 6 9 0 -2
BITMAP
78
84
04
04
04
04
04
04
04
ENDCHAR
STARTCHAR uni0E46
ENCODING 3654
SWIDTH 960 0
DWIDTH 7 0
BBX 6 9 0 -2
BITMAP
E8
D4
04
04
04
04
04
08
10
ENDCHAR
STARTCHAR uni0E47
ENCODING 3655
SWIDTH 960 0
DWIDTH 7 0
BBX 6 4 1 8
BITMAP
04
78
A8
58
ENDCHAR
STARTCHAR uni0E48
ENCODING 3656
SWIDTH 960 0
DWIDTH 7 0
BBX 1 2 5 10
BITMAP
80
80
ENDCHAR
STARTCHAR uni0E49
ENCODING 3657
SWIDTH 960 0
DWIDTH 7 0
BBX 4 2 2 10
BITMAP
D0
60
ENDCHAR
STARTCHAR uni0E4A
ENCODING 3658
SWIDTH 960 0
DWIDTH 7 0
BBX 5 2 1 10
BITMAP
A8
F0
ENDCHAR
STARTCHAR uni0E4B
ENCODING 3659
SWIDTH 960 0
DWIDTH 7 0
BBX 3 3 4 9
BITMAP
40
E0
40
ENDCHAR
STARTCHAR uni0E4C
ENCODING 3660
SWIDTH 960 0
DWIDTH 7 0
BBX 2 2 4 10
BITMAP
C0
80
ENDCHAR
STARTCHAR uni0E4D
ENCODING 3661
SWIDTH 960 0
DWIDTH 7 0
BBX 2 2 4 8
BITMAP
C0
C0
ENDCHAR
STARTCHAR uni0E4E
ENCODING 3662
SWIDTH 960 0
DWIDTH 7 0
BBX 4 4 3 8
BITMAP
70
40
80
C0
ENDCHAR
STARTCHAR uni0E4F
ENCODING 3663
SWIDTH 960 0
DWIDTH 7 0
BBX 6 6 0 0
BITMAP
78
CC
B4
B4
CC
78
ENDCHAR
STARTCHAR uni0E50
ENCODING 3664
SWIDTH 960 0
DWIDTH 7 0
BBX 6 6 0 0
BITMAP
78
84
84
84
84
78
ENDCHAR
STARTCHAR uni0E51
ENCODING 3665
SWIDTH 960 0
DWIDTH 7 0
BBX 6 6 0 0
BITMAP
78
84
B4
74
08
70
ENDCHAR
STARTCHAR uni0E52
ENCODING 3666
SWIDTH 960 0
DWIDTH 7 0
BBX 6 8 0 0
BITMAP
80
80
94
AC
B4
B4
84
78
ENDCHAR
STARTCHAR uni0E53
ENCODING 3667
SWIDTH 960 0
DWIDTH 7 0
BBX 6 6 0 0
BITMAP
68
94
94
94
D4
D4
ENDCHAR
STARTCHAR uni0E54
ENCODING 3668
SWIDTH 960 0
DWIDTH 7 0
BBX 6 8 0 0
BITMAP
04
04
78
80
98
98
90
7C
ENDCHAR
STARTCHAR uni0E55
ENCODING 3669
SWIDTH 960 0
DWIDTH 7 0
BBX 6 8 0 0
BITMAP
04
34
78
80
98
98
90
7C
ENDCHAR
STARTCHAR uni0E56
ENCODING 3670
SWIDTH 960 0
DWIDTH 7 0
BBX 6 7 0 0
BITMAP
80
58
24
04
04
34
38
ENDCHAR
STARTCHAR uni0E57
ENCODING 3671
SWIDTH 960 0
DWIDTH 7 0
BBX 6 8 0 0
BITMAP
04
04
54
B4
B4
94
94
C8
ENDCHAR
STARTCHAR uni0E58
ENCODING 3672
SWIDTH 960 0
DWIDTH 7 0
BBX 6 7 0 0
BITMAP
04
78
80
8C
8C
E4
58
ENDCHAR
STARTCHAR uni0E59
ENCODING 3673
SWIDTH 960 0
DWIDTH 7 0
BBX 6 8 0 0
BITMAP
04
04
18
70
90
88
E8
64
ENDCHAR
STARTCHAR uni0E5A
ENCODING 3674
SWIDTH 960 0
DWIDTH 7 0
BBX 6 7 0 0
BITMAP
D4
F4
14
14
14
14
28
ENDCHAR
STARTCHAR uni0E5B
ENCODING 3675
SWIDTH 960 0
DWIDTH 7 0
BBX 6 7 0 0
BITMAP
C0
C0
A8
AC
B0
A0
40
ENDCHAR
STARTCHAR uni1200
ENCODING 4608
SWIDTH 960 0
DWIDTH 14 0
BBX 7 10 2 1
BITMAP
C6
C6
C6
C6
C6
C6
CE
CC
FC
70
ENDCHAR
STARTCHAR uni1201
ENCODING 4609
SWIDTH 960 0
DWIDTH 14 0
BBX 11 10 0 1
BITMAP
C600
C600
C600
C600
C7E0
C660
CE00
CC00
FC00
7000
ENDCHAR
STARTCHAR uni1202
ENCODING 4610
SWIDTH 960 0
DWIDTH 14 0
BBX 8 11 2 0
BITMAP
63
C3
C3
C6
7E
3C
0C
18
30
33
3F
ENDCHAR
STARTCHAR uni1203
ENCODING 4611
SWIDTH 960 0
DWIDTH 14 0
BBX 8 11 2 0
BITMAP
63
C3
C3
C6
7E
3C
0C
18
30
30
30
ENDCHAR
STARTCHAR uni1204
ENCODING 4612
SWIDTH 960 0
DWIDTH 14 0
BBX 8 11 2 0
BITMAP
63
C3
C3
C6
7E
3C
0C
18
1E
19
0E
ENDCHAR
STARTCHAR uni1205
ENCODING 4613
SWIDTH 960 0
DWIDTH 14 0
BBX 9 10 1 1
BITMAP
6180
C180
C180
3180
6180
6180
6180
6180
6180
3F00
ENDCHAR
STARTCHAR uni1206
ENCODING 4614
SWIDTH 960 0
DWIDTH 14 0
BBX 10 10 1 1
BITMAP
C780
C640
C780
C600
C600
C600
C600
C600
C600
7C00
ENDCHAR
STARTCHAR uni1208
ENCODING 4616
SWIDTH 960 0
DWIDTH 14 0
BBX 7 10 2 1
BITMAP
0C
18
30
78
CC
C6
C6
C6
C6
C6
ENDCHAR
STARTCHAR uni1209
ENCODING 4617
SWIDTH 960 0
DWIDTH 14 0
BBX 10 10 1 1
BITMAP
0C00
1800
3000
7800
CC00
C600
C7C0
C6C0
C600
C600
ENDCHAR
STARTCHAR uni120A
ENCODING 4618
SWIDTH 960 0
DWIDTH 14 0
BBX 10 10 1 1
BITMAP
0C00
1800
3000
7800
CC00
C600
C600
C600
C6C0
C7C0
ENDCHAR
STARTCHAR uni120B
ENCODING 4619
SWIDTH 960 0
DWIDTH 14 0
BBX 7 10 2 1
BITMAP
0C
18
30
78
CC
C6
C6
06
06
06
ENDCHAR
STARTCHAR uni120C
ENCODING 4620
SWIDTH 960 0
DWIDTH 14 0
BBX 10 10 1 1
BITMAP
0C00
1800
3000
7800
CC00
C600
C600
C780
C640
C780
ENDCHAR
STARTCHAR uni120D
ENCODING 4621
SWIDTH 960 0
DWIDTH 14 0
BBX 8 10 2 1
BITMAP
06
0C
18
3C
66
C3
C3
F3
CB
F3
ENDCHAR
STARTCHAR uni120E
ENCODING 4622
SWIDTH 960 0
DWIDTH 14 0
BBX 10 10 1 1
BITMAP
0C00
1800
3000
7800
CC00
C780
C640
C780
C600
C600
ENDCHAR
STARTCHAR uni120F
ENCODING 4623
SWIDTH 960 0
DWIDTH 14 0
BBX 9 12 1 -1
BITMAP
0C00
1800
3000
7800
CC00
C600
C600
0600
0600
0600
1F80
1080
ENDCHAR
STARTCHAR uni1210
ENCODING 4624
SWIDTH 960 0
DWIDTH 14 0
BBX 8 10 2 1
BITMAP
18
18
18
18
7E
DB
DB
DB
DB
DB
ENDCHAR
STARTCHAR uni1211
ENCODING 4625
SWIDTH 960 0
DWIDTH 14 0
BBX 11 10 0 1
BITMAP
1800
1800
1800
1800
7E00
DB00
DBE0
DB60
DB00
DB00
ENDCHAR
STARTCHAR uni1212
ENCODING 4626
SWIDTH 960 0
DWIDTH 14 0
BBX 11 10 0 1
BITMAP
1800
1800
1800
1800
7E00
DB00
DB00
DB00
DB60
DBE0
ENDCHAR
STARTCHAR uni1213
ENCODING 4627
SWIDTH 960 0
DWIDTH 14 0
BBX 8 10 2 1
BITMAP
18
18
18
18
7E
DB
DB
03
03
03
ENDCHAR
STARTCHAR uni1214
ENCODING 4628
SWIDTH 960 0
DWIDTH 14 0
BBX 11 10 0 1
BITMAP
1800
1800
1800
1800
7E00
DB00
DB00
DBC0
DB20
DBC0
ENDCHAR
STARTCHAR uni1215
ENCODING 4629
SWIDTH 960 0
DWIDTH 14 0
BBX 8 10 2 1
BITMAP
60
70
38
18
7E
DB
DB
DB
DB
DB
ENDCHAR
STARTCHAR uni1216
ENCODING 4630
SWIDTH 960 0
DWIDTH 14 0
BBX 8 10 2 1
BITMAP
18
18
18
18
7E
DB
DB
C0
C0
C0
ENDCHAR
STARTCHAR uni1217
ENCODING 4631
SWIDTH 960 0
DWIDTH 14 0
BBX 10 12 1 -1
BITMAP
1800
1800
1800
1800
7E00
DB00
DB00
0300
0300
0300
0FC0
0840
ENDCHAR
STARTCHAR uni1218
ENCODING 4632
SWIDTH 960 0
DWIDTH 14 0
BBX 9 7 1 2
BITMAP
7F00
9480
9480
9480
9480
9480
6300
ENDCHAR
STARTCHAR uni1219
ENCODING 4633
SWIDTH 960 0
DWIDTH 14 0
BBX 12 7 0 2
BITMAP
7F00
9480
94F0
94B0
9480
9480
6300
ENDCHAR
STARTCHAR uni121A
ENCODING 4634
SWIDTH 960 0
DWIDTH 14 0
BBX 10 11 1 0
BITMAP
7F00
9480
9480
9480
9480
6380
0080
0100
0200
04C0
07C0
ENDCHAR
STARTCHAR uni121B
ENCODING 4635
SWIDTH 960 0
DWIDTH 14 0
BBX 9 10 1 1
BITMAP
7F00
9480
9480
9480
9480
6380
0080
0100
0100
0100
ENDCHAR
STARTCHAR uni121C
ENCODING 4636
SWIDTH 960 0
DWIDTH 14 0
BBX 10 11 1 0
BITMAP
7F00
9480
9480
9480
9480
6380
0100
0200
0380
0240
0380
ENDCHAR
STARTCHAR uni121D
ENCODING 4637
SWIDTH 960 0
DWIDTH 14 0
BBX 9 10 1 1
BITMAP
7F00
9480
9480
9480
9480
7300
1000
3000
6000
C000
ENDCHAR
STARTCHAR uni121E
ENCODING 4638
SWIDTH 960 0
DWIDTH 14 0
BBX 9 10 1 1
BITMAP
7F00
9480
9480
9480
9480
7300
1000
1000
1000
1000
ENDCHAR
STARTCHAR uni121F
ENCODING 4639
SWIDTH 960 0
DWIDTH 14 0
BBX 9 12 1 -1
BITMAP
7F00
9480
9480
9480
9480
6380
0100
0100
0200
0200
0F80
0880
ENDCHAR
STARTCHAR uni1220
ENCODING 4640
SWIDTH 960 0
DWIDTH 14 0
BBX 8 10 2 1
BITMAP
DB
DB
DB
DB
DB
DB
DE
D8
D8
70
ENDCHAR
STARTCHAR uni1221
ENCODING 4641
SWIDTH 960 0
DWIDTH 14 0
BBX 11 10 0 1
BITMAP
DB00
DB00
DB00
DBE0
DB60
DB00
DE00
D800
D800
7000
ENDCHAR
STARTCHAR uni1222
ENCODING 4642
SWIDTH 960 0
DWIDTH 14 0
BBX 10 11 1 0
BITMAP
DB00
DB00
DB00
DB00
DB00
DB00
7E00
0600
0C00
0CC0
0FC0
ENDCHAR
STARTCHAR uni1223
ENCODING 4643
SWIDTH 960 0
DWIDTH 14 0
BBX 8 11 2 0
BITMAP
DB
DB
DB
DB
DB
DB
7F
03
03
03
03
ENDCHAR
STARTCHAR uni1224
ENCODING 4644
SWIDTH 960 0
DWIDTH 14 0
BBX 10 11 1 0
BITMAP
DB00
DB00
DB00
DB00
DB00
DB00
7F00
0300
0780
0640
0380
ENDCHAR
STARTCHAR uni1225
ENCODING 4645
SWIDTH 960 0
DWIDTH 14 0
BBX 9 11 1 0
BITMAP
6D80
6D80
6D80
6D80
6D80
6D80
7F00
6000
C000
C000
C000
ENDCHAR
STARTCHAR uni1226
ENCODING 4646
SWIDTH 960 0
DWIDTH 14 0
BBX 8 11 2 0
BITMAP
DB
DB
DB
DB
DB
DB
7E
18
30
30
30
ENDCHAR
STARTCHAR uni1227
ENCODING 4647
SWIDTH 960 0
DWIDTH 14 0
BBX 10 12 1 -1
BITMAP
DB00
DB00
DB00
DB00
DB00
DB00
7F00
0300
0300
0300
0FC0
0840
ENDCHAR
STARTCHAR uni1228
ENCODING 4648
SWIDTH 960 0
DWIDTH 14 0
BBX 8 10 2 1
BITMAP
18
18
18
30
60
C0
C0
E3
7F
3E
ENDCHAR
STARTCHAR uni1229
ENCODING 4649
SWIDTH 960 0
DWIDTH 14 0
BBX 9 10 1 1
BITMAP
1800
1800
3000
6000
C000
E000
7F80
3F80
0C00
0C00
ENDCHAR
STARTCHAR uni122A
ENCODING 4650
SWIDTH 960 0
DWIDTH 14 0
BBX 8 10 2 1
BITMAP
18
18
18
30
60
C6
C3
E3
7F
3E
ENDCHAR
STARTCHAR uni122B
ENCODING 4651
SWIDTH 960 0
DWIDTH 14 0
BBX 10 10 1 1
BITMAP
1800
1800
1800
3000
6000
C000
C1C0
E3C0
7E00
3C00
ENDCHAR
STARTCHAR uni122C
ENCODING 4652
SWIDTH 960 0
DWIDTH 14 0
BBX 10 10 1 1
BITMAP
1800
1800
1800
3000
6000
C000
C000
E380
7E40
3F80
ENDCHAR
STARTCHAR uni122D
ENCODING 4653
SWIDTH 960 0
DWIDTH 14 0
BBX 8 10 2 1
BITMAP
3C
7E
C6
C0
C0
C0
C0
C3
FF
7E
ENDCHAR
STARTCHAR uni122E
ENCODING 4654
SWIDTH 960 0
DWIDTH 14 0
BBX 9 10 1 1
BITMAP
3F00
7C80
C300
C000
C000
C000
C000
C300
FF00
7E00
ENDCHAR
STARTCHAR uni122F
ENCODING 4655
SWIDTH 960 0
DWIDTH 14 0
BBX 10 11 1 0
BITMAP
4200
7E00
1800
1800
3000
6000
C000
C1C0
E3C0
7E00
3C00
ENDCHAR
STARTCHAR uni1230
ENCODING 4656
SWIDTH 960 0
DWIDTH 14 0
BBX 7 10 2 1
BITMAP
10
10
38
7C
C6
C6
C6
C6
C6
C6
ENDCHAR
STARTCHAR uni1231
ENCODING 4657
SWIDTH 960 0
DWIDTH 14 0
BBX 11 10 0 1
BITMAP
1000
1000
3800
7C00
C600
C7E0
C660
C600
C600
C600
ENDCHAR
STARTCHAR uni1232
ENCODING 4658
SWIDTH 960 0
DWIDTH 14 0
BBX 11 10 0 1
BITMAP
1000
1000
3800
7C00
C600
C600
C600
C600
C660
C7E0
ENDCHAR
STARTCHAR uni1233
ENCODING 4659
SWIDTH 960 0
DWIDTH 14 0
BBX 7 10 2 1
BITMAP
10
10
38
7C
C6
C6
C6
06
06
06
ENDCHAR
STARTCHAR uni1234
ENCODING 4660
SWIDTH 960 0
DWIDTH 14 0
BBX 10 10 1 1
BITMAP
1000
1000
3800
7C00
C600
C600
C600
C780
C640
C780
ENDCHAR
STARTCHAR uni1235
ENCODING 4661
SWIDTH 960 0
DWIDTH 14 0
BBX 7 10 2 1
BITMAP
60
30
38
7C
C6
C6
C6
C6
C6
C6
ENDCHAR
STARTCHAR uni1236
ENCODING 4662
SWIDTH 960 0
DWIDTH 14 0
BBX 7 10 2 1
BITMAP
10
10
38
7C
C6
C6
C6
C0
C0
C0
ENDCHAR
STARTCHAR uni1237
ENCODING 4663
SWIDTH 960 0
DWIDTH 14 0
BBX 9 12 1 -1
BITMAP
1000
1000
3800
7C00
C600
C600
C600
0600
0600
0600
1F80
1080
ENDCHAR
STARTCHAR uni1238
ENCODING 4664
SWIDTH 960 0
DWIDTH 14 0
BBX 7 10 2 1
BITMAP
7C
10
38
7C
C6
C6
C6
C6
C6
C6
ENDCHAR
STARTCHAR uni1239
ENCODING 4665
SWIDTH 960 0
DWIDTH 14 0
BBX 11 10 0 1
BITMAP
7C00
1000
3800
7C00
C600
C7E0
C660
C600
C600
C600
ENDCHAR
STARTCHAR uni123A
ENCODING 4666
SWIDTH 960 0
DWIDTH 14 0
BBX 11 10 0 1
BITMAP
7C00
1000
3800
7C00
C600
C600
C600
C600
C660
C7E0
ENDCHAR
STARTCHAR uni123B
ENCODING 4667
SWIDTH 960 0
DWIDTH 14 0
BBX 7 10 2 1
BITMAP
7C
10
38
7C
C6
C6
C6
06
06
06
ENDCHAR
STARTCHAR uni123C
ENCODING 4668
SWIDTH 960 0
DWIDTH 14 0
BBX 10 10 1 1
BITMAP
7C00
1000
3800
7C00
C600
C600
C600
C780
C640
C780
ENDCHAR
STARTCHAR uni123D
ENCODING 4669
SWIDTH 960 0
DWIDTH 14 0
BBX 8 10 2 1
BITMAP
FC
30
1C
3E
63
63
63
63
63
63
ENDCHAR
STARTCHAR uni123E
ENCODING 4670
SWIDTH 960 0
DWIDTH 14 0
BBX 7 10 2 1
BITMAP
7C
10
38
7C
C6
C6
C6
C0
C0
C0
ENDCHAR
STARTCHAR uni123F
ENCODING 4671
SWIDTH 960 0
DWIDTH 14 0
BBX 9 12 1 -1
BITMAP
7C00
1000
3800
7C00
C600
C600
C600
0600
0600
0600
1F80
1080
ENDCHAR
STARTCHAR uni1240
ENCODING 4672
SWIDTH 960 0
DWIDTH 14 0
BBX 8 10 2 1
BITMAP
18
18
18
7E
DB
DB
7E
18
18
18
ENDCHAR
STARTCHAR uni1241
ENCODING 4673
SWIDTH 960 0
DWIDTH 14 0
BBX 9 10 1 1
BITMAP
1800
1800
7E00
DB00
DB00
7E00
1800
1F80
1980
1800
ENDCHAR
STARTCHAR uni1242
ENCODING 4674
SWIDTH 960 0
DWIDTH 14 0
BBX 9 10 1 1
BITMAP
1800
1800
1800
7E00
DB00
DB00
7E00
1800
1980
1F80
ENDCHAR
STARTCHAR uni1243
ENCODING 4675
SWIDTH 960 0
DWIDTH 14 0
BBX 8 10 2 1
BITMAP
18
18
18
7E
DB
DB
7E
18
30
60
ENDCHAR
STARTCHAR uni1244
ENCODING 4676
SWIDTH 960 0
DWIDTH 14 0
BBX 8 10 2 1
BITMAP
18
18
7E
DB
DB
7E
18
1E
19
1E
ENDCHAR
STARTCHAR uni1245
ENCODING 4677
SWIDTH 960 0
DWIDTH 14 0
BBX 8 10 2 1
BITMAP
C0
78
18
7E
DB
DB
7E
18
18
18
ENDCHAR
STARTCHAR uni1246
ENCODING 4678
SWIDTH 960 0
DWIDTH 14 0
BBX 8 10 2 1
BITMAP
3C
66
3C
18
7E
DB
DB
7E
18
18
ENDCHAR
STARTCHAR uni1248
ENCODING 4680
SWIDTH 960 0
DWIDTH 14 0
BBX 10 10 1 1
BITMAP
1800
1800
7E00
DB00
DB00
7E00
1F80
1A40
1980
1800
ENDCHAR
STARTCHAR uni124A
ENCODING 4682
SWIDTH 960 0
DWIDTH 14 0
BBX 11 10 0 1
BITMAP
1800
1800
1800
7E40
DB40
DBC0
7E60
1820
1800
1800
ENDCHAR
STARTCHAR uni124B
ENCODING 4683
SWIDTH 960 0
DWIDTH 14 0
BBX 8 12 2 -1
BITMAP
18
18
18
7E
DB
DB
7E
18
18
18
7E
42
ENDCHAR
STARTCHAR uni124C
ENCODING 4684
SWIDTH 960 0
DWIDTH 14 0
BBX 8 12 2 -1
BITMAP
18
18
18
7E
DB
DB
7E
18
1E
19
7E
40
ENDCHAR
STARTCHAR uni124D
ENCODING 4685
SWIDTH 960 0
DWIDTH 14 0
BBX 11 10 0 1
BITMAP
1800
1840
1840
7EE0
DB60
DB00
7E00
1800
1800
1800
ENDCHAR
STARTCHAR uni1250
ENCODING 4688
SWIDTH 960 0
DWIDTH 14 0
BBX 8 10 2 1
BITMAP
7E
18
18
7E
DB
DB
7E
18
18
18
ENDCHAR
STARTCHAR uni1251
ENCODING 4689
SWIDTH 960 0
DWIDTH 14 0
BBX 9 10 1 1
BITMAP
7E00
1800
7E00
DB00
DB00
7E00
1800
1F80
1980
1800
ENDCHAR
STARTCHAR uni1252
ENCODING 4690
SWIDTH 960 0
DWIDTH 14 0
BBX 9 10 1 1
BITMAP
7E00
1800
1800
7E00
DB00
DB00
7E00
1800
1980
1F80
ENDCHAR
STARTCHAR uni1253
ENCODING 4691
SWIDTH 960 0
DWIDTH 14 0
BBX 8 10 2 1
BITMAP
7E
18
18
7E
DB
DB
7E
18
30
60
ENDCHAR
STARTCHAR uni1254
ENCODING 4692
SWIDTH 960 0
DWIDTH 14 0
BBX 8 10 2 1
BITMAP
7E
18
7E
DB
DB
7E
18
1E
19
1E
ENDCHAR
STARTCHAR uni1255
ENCODING 4693
SWIDTH 960 0
DWIDTH 14 0
BBX 9 10 1 1
BITMAP
FC00
3000
1C00
0C00
3F00
6D80
6D80
3F00
0C00
0C00
ENDCHAR
STARTCHAR uni1256
ENCODING 4694
SWIDTH 960 0
DWIDTH 14 0
BBX 8 10 2 1
BITMAP
7E
24
3C
18
7E
DB
DB
7E
18
18
ENDCHAR
STARTCHAR uni1258
ENCODING 4696
SWIDTH 960 0
DWIDTH 14 0
BBX 10 10 1 1
BITMAP
7E00
1800
7E00
DB00
DB00
7E00
1F80
1A40
1980
1800
ENDCHAR
STARTCHAR uni125A
ENCODING 4698
SWIDTH 960 0
DWIDTH 14 0
BBX 11 10 0 1
BITMAP
7E00
1800
1800
7E40
DB40
DBC0
7E60
1820
1800
1800
ENDCHAR
STARTCHAR uni125B
ENCODING 4699
SWIDTH 960 0
DWIDTH 14 0
BBX 8 12 2 -1
BITMAP
7E
18
18
7E
DB
DB
7E
18
18
18
7E
42
ENDCHAR
STARTCHAR uni125C
ENCODING 4700
SWIDTH 960 0
DWIDTH 14 0
BBX 8 12 2 -1
BITMAP
7E
18
18
7E
DB
DB
7E
18
1E
19
7E
40
ENDCHAR
STARTCHAR uni125D
ENCODING 4701
SWIDTH 960 0
DWIDTH 14 0
BBX 11 10 0 1
BITMAP
7E00
1840
1840
7EE0
DB60
DB00
7E00
1800
1800
1800
ENDCHAR
STARTCHAR uni1260
ENCODING 4704
SWIDTH 960 0
DWIDTH 14 0
BBX 7 10 2 1
BITMAP
3C
46
C6
C6
C6
C6
C6
C6
C6
C6
ENDCHAR
STARTCHAR uni1261
ENCODING 4705
SWIDTH 960 0
DWIDTH 14 0
BBX 11 10 0 1
BITMAP
3C00
4600
C600
C600
C600
C7E0
C660
C600
C600
C600
ENDCHAR
STARTCHAR uni1262
ENCODING 4706
SWIDTH 960 0
DWIDTH 14 0
BBX 11 10 0 1
BITMAP
3C00
4600
C600
C600
C600
C600
C600
C600
C660
C7E0
ENDCHAR
STARTCHAR uni1263
ENCODING 4707
SWIDTH 960 0
DWIDTH 14 0
BBX 7 10 2 1
BITMAP
3C
46
C6
C6
C6
C6
06
06
06
06
ENDCHAR
STARTCHAR uni1264
ENCODING 4708
SWIDTH 960 0
DWIDTH 14 0
BBX 10 10 1 1
BITMAP
3C00
4600
C600
C600
C600
C600
C600
C780
C640
C780
ENDCHAR
STARTCHAR uni1265
ENCODING 4709
SWIDTH 960 0
DWIDTH 14 0
BBX 11 10 0 1
BITMAP
03C0
0460
0C60
0C60
0C60
FC60
CC60
0C60
0C60
0C60
ENDCHAR
STARTCHAR uni1266
ENCODING 4710
SWIDTH 960 0
DWIDTH 14 0
BBX 7 10 2 1
BITMAP
3C
46
C6
C6
C6
C6
C0
C0
C0
C0
ENDCHAR
STARTCHAR uni1267
ENCODING 4711
SWIDTH 960 0
DWIDTH 14 0
BBX 9 12 1 -1
BITMAP
3C00
4600
C600
C600
C600
C600
0600
0600
0600
0600
1F80
1080
ENDCHAR
STARTCHAR uni1268
ENCODING 4712
SWIDTH 960 0
DWIDTH 14 0
BBX 7 10 2 1
BITMAP
7E
00
3C
46
C6
C6
C6
C6
C6
C6
ENDCHAR
STARTCHAR uni1269
ENCODING 4713
SWIDTH 960 0
DWIDTH 14 0
BBX 11 10 0 1
BITMAP
7E00
0000
3C00
4600
C600
C7E0
C660
C600
C600
C600
ENDCHAR
STARTCHAR uni126A
ENCODING 4714
SWIDTH 960 0
DWIDTH 14 0
BBX 11 10 0 1
BITMAP
7E00
0000
3C00
4600
C600
C600
C600
C600
C660
C7E0
ENDCHAR
STARTCHAR uni126B
ENCODING 4715
SWIDTH 960 0
DWIDTH 14 0
BBX 7 10 2 1
BITMAP
7E
00
3C
46
C6
C6
C6
06
06
06
ENDCHAR
STARTCHAR uni126C
ENCODING 4716
SWIDTH 960 0
DWIDTH 14 0
BBX 10 10 1 1
BITMAP
7E00
0000
3C00
4600
C600
C600
C600
C780
C640
C780
ENDCHAR
STARTCHAR uni126D
ENCODING 4717
SWIDTH 960 0
DWIDTH 14 0
BBX 11 10 0 1
BITMAP
07E0
0000
03C0
0460
0C60
FC60
CC60
0C60
0C60
0C60
ENDCHAR
STARTCHAR uni126E
ENCODING 4718
SWIDTH 960 0
DWIDTH 14 0
BBX 7 10 2 1
BITMAP
7E
00
3C
46
C6
C6
C6
C0
C0
C0
ENDCHAR
STARTCHAR uni126F
ENCODING 4719
SWIDTH 960 0
DWIDTH 14 0
BBX 9 12 1 -1
BITMAP
7E00
0000
3C00
4600
C600
C600
C600
0600
0600
0600
1F80
1080
ENDCHAR
STARTCHAR uni1270
ENCODING 4720
SWIDTH 960 0
DWIDTH 14 0
BBX 8 10 2 1
BITMAP
18
18
18
18
FF
99
18
18
18
18
ENDCHAR
STARTCHAR uni1271
ENCODING 4721
SWIDTH 960 0
DWIDTH 14 0
BBX 9 10 1 1
BITMAP
1800
1800
1800
FF00
9900
1800
1F80
1980
1800
1800
ENDCHAR
STARTCHAR uni1272
ENCODING 4722
SWIDTH 960 0
DWIDTH 14 0
BBX 9 10 1 1
BITMAP
1800
1800
1800
1800
FF00
9900
1800
1800
1980
1F80
ENDCHAR
STARTCHAR uni1273
ENCODING 4723
SWIDTH 960 0
DWIDTH 14 0
BBX 8 10 2 1
BITMAP
18
18
18
18
FF
99
18
18
30
60
ENDCHAR
STARTCHAR uni1274
ENCODING 4724
SWIDTH 960 0
DWIDTH 14 0
BBX 8 10 2 1
BITMAP
18
18
18
18
FF
99
18
1E
19
1E
ENDCHAR
STARTCHAR uni1275
ENCODING 4725
SWIDTH 960 0
DWIDTH 14 0
BBX 8 10 2 1
BITMAP
60
70
38
18
FF
99
18
18
18
18
ENDCHAR
STARTCHAR uni1276
ENCODING 4726
SWIDTH 960 0
DWIDTH 14 0
BBX 8 10 2 1
BITMAP
3C
66
3C
18
FF
99
18
18
18
18
ENDCHAR
STARTCHAR uni1277
ENCODING 4727
SWIDTH 960 0
DWIDTH 14 0
BBX 8 12 2 -1
BITMAP
18
18
18
18
FF
99
18
18
18
18
7E
42
ENDCHAR
STARTCHAR uni1278
ENCODING 4728
SWIDTH 960 0
DWIDTH 14 0
BBX 8 10 2 1
BITMAP
FF
99
18
18
FF
99
18
18
18
18
ENDCHAR
STARTCHAR uni1279
ENCODING 4729
SWIDTH 960 0
DWIDTH 14 0
BBX 9 10 1 1
BITMAP
FF00
9900
1800
FF00
9900
1800
1F80
1980
1800
1800
ENDCHAR
STARTCHAR uni127A
ENCODING 4730
SWIDTH 960 0
DWIDTH 14 0
BBX 9 10 1 1
BITMAP
FF00
9900
1800
1800
FF00
9900
1800
1800
1980
1F80
ENDCHAR
STARTCHAR uni127B
ENCODING 4731
SWIDTH 960 0
DWIDTH 14 0
BBX 8 10 2 1
BITMAP
FF
99
18
18
FF
99
18
18
30
60
ENDCHAR
STARTCHAR uni127C
ENCODING 4732
SWIDTH 960 0
DWIDTH 14 0
BBX 8 10 2 1
BITMAP
FF
99
18
18
FF
99
18
1E
19
1E
ENDCHAR
STARTCHAR uni127D
ENCODING 4733
SWIDTH 960 0
DWIDTH 14 0
BBX 10 10 1 1
BITMAP
FF80
9C80
0E00
0600
3FC0
2640
0600
0600
0600
0600
ENDCHAR
STARTCHAR uni127E
ENCODING 4734
SWIDTH 960 0
DWIDTH 14 0
BBX 8 10 2 1
BITMAP
FF
A5
3C
18
FF
99
18
18
18
18
ENDCHAR
STARTCHAR uni127F
ENCODING 4735
SWIDTH 960 0
DWIDTH 14 0
BBX 8 12 2 -1
BITMAP
FF
99
18
18
FF
99
18
18
18
18
7E
42
ENDCHAR
STARTCHAR uni1280
ENCODING 4736
SWIDTH 960 0
DWIDTH 14 0
BBX 7 10 2 1
BITMAP
18
18
F8
CE
06
06
06
06
06
06
ENDCHAR
STARTCHAR uni1281
ENCODING 4737
SWIDTH 960 0
DWIDTH 14 0
BBX 11 10 0 1
BITMAP
1800
1800
F800
CE00
0600
07E0
0660
0600
0600
0600
ENDCHAR
STARTCHAR uni1282
ENCODING 4738
SWIDTH 960 0
DWIDTH 14 0
BBX 11 10 0 1
BITMAP
1800
1800
F800
CE00
0600
0600
0600
0600
0660
07E0
ENDCHAR
STARTCHAR uni1283
ENCODING 4739
SWIDTH 960 0
DWIDTH 14 0
BBX 7 10 2 1
BITMAP
18
18
F8
CE
06
06
06
0C
18
30
ENDCHAR
STARTCHAR uni1284
ENCODING 4740
SWIDTH 960 0
DWIDTH 14 0
BBX 10 10 1 1
BITMAP
1800
1800
F800
CE00
0600
0600
0600
0780
0640
0780
ENDCHAR
STARTCHAR uni1285
ENCODING 4741
SWIDTH 960 0
DWIDTH 14 0
BBX 8 10 2 1
BITMAP
0C
0C
3C
67
C3
C3
03
03
03
03
ENDCHAR
STARTCHAR uni1286
ENCODING 4742
SWIDTH 960 0
DWIDTH 14 0
BBX 10 10 1 1
BITMAP
0780
0E40
1B80
F800
CF00
0300
0300
0300
0300
0300
ENDCHAR
STARTCHAR uni1288
ENCODING 4744
SWIDTH 960 0
DWIDTH 14 0
BBX 11 10 0 1
BITMAP
1800
1800
F800
CE00
0600
07C0
0720
06C0
0600
0600
ENDCHAR
STARTCHAR uni128A
ENCODING 4746
SWIDTH 960 0
DWIDTH 14 0
BBX 10 10 1 1
BITMAP
1800
1800
F800
CE80
0680
0780
06C0
0640
0600
0600
ENDCHAR
STARTCHAR uni128B
ENCODING 4747
SWIDTH 960 0
DWIDTH 14 0
BBX 9 12 1 -1
BITMAP
1800
1800
F800
CE00
0600
0600
0600
0600
0600
0600
1F80
1080
ENDCHAR
STARTCHAR uni128C
ENCODING 4748
SWIDTH 960 0
DWIDTH 14 0
BBX 10 12 1 -1
BITMAP
1800
1800
F800
CE00
0600
0600
0600
0600
0780
0640
1F80
1000
ENDCHAR
STARTCHAR uni128D
ENCODING 4749
SWIDTH 960 0
DWIDTH 14 0
BBX 10 10 1 1
BITMAP
1800
1880
F880
CFC0
06C0
0600
0600
0600
0600
0600
ENDCHAR
STARTCHAR uni1290
ENCODING 4752
SWIDTH 960 0
DWIDTH 14 0
BBX 5 10 3 1
BITMAP
C0
C0
C0
F8
18
18
18
18
18
18
ENDCHAR
STARTCHAR uni1291
ENCODING 4753
SWIDTH 960 0
DWIDTH 14 0
BBX 9 10 1 1
BITMAP
C000
C000
C000
F800
1800
1F80
1980
1800
1800
1800
ENDCHAR
STARTCHAR uni1292
ENCODING 4754
SWIDTH 960 0
DWIDTH 14 0
BBX 9 10 1 1
BITMAP
C000
C000
C000
F800
1800
1800
1800
1800
1980
1F80
ENDCHAR
STARTCHAR uni1293
ENCODING 4755
SWIDTH 960 0
DWIDTH 14 0
BBX 7 10 2 1
BITMAP
7C
C6
C6
C0
78
18
18
18
18
18
ENDCHAR
STARTCHAR uni1294
ENCODING 4756
SWIDTH 960 0
DWIDTH 14 0
BBX 8 10 2 1
BITMAP
C0
C0
C0
F8
18
18
18
1E
19
1E
ENDCHAR
STARTCHAR uni1295
ENCODING 4757
SWIDTH 960 0
DWIDTH 14 0
BBX 8 10 2 1
BITMAP
78
D8
D8
1F
03
03
03
03
03
03
ENDCHAR
STARTCHAR uni1296
ENCODING 4758
SWIDTH 960 0
DWIDTH 14 0
BBX 7 10 2 1
BITMAP
7C
D2
CC
C0
78
18
18
18
18
18
ENDCHAR
STARTCHAR uni1297
ENCODING 4759
SWIDTH 960 0
DWIDTH 14 0
BBX 7 12 2 -1
BITMAP
7C
C6
C6
C0
78
18
18
18
18
18
7E
42
ENDCHAR
STARTCHAR uni1298
ENCODING 4760
SWIDTH 960 0
DWIDTH 14 0
BBX 7 10 2 1
BITMAP
FC
30
30
3E
06
06
06
06
06
06
ENDCHAR
STARTCHAR uni1299
ENCODING 4761
SWIDTH 960 0
DWIDTH 14 0
BBX 11 10 0 1
BITMAP
FC00
3000
3000
3E00
0600
07E0
0660
0600
0600
0600
ENDCHAR
STARTCHAR uni129A
ENCODING 4762
SWIDTH 960 0
DWIDTH 14 0
BBX 11 10 0 1
BITMAP
FC00
3000
3000
3E00
0600
0600
0600
0600
0660
07E0
ENDCHAR
STARTCHAR uni129B
ENCODING 4763
SWIDTH 960 0
DWIDTH 14 0
BBX 7 10 2 1
BITMAP
7C
10
7C
C6
C6
C0
78
18
18
18
ENDCHAR
STARTCHAR uni129C
ENCODING 4764
SWIDTH 960 0
DWIDTH 14 0
BBX 10 10 1 1
BITMAP
FC00
3000
3000
3E00
0600
0600
0600
0780
0640
0780
ENDCHAR
STARTCHAR uni129D
ENCODING 4765
SWIDTH 960 0
DWIDTH 14 0
BBX 8 10 2 1
BITMAP
7E
18
78
D8
DF
03
03
03
03
03
ENDCHAR
STARTCHAR uni129E
ENCODING 4766
SWIDTH 960 0
DWIDTH 14 0
BBX 7 10 2 1
BITMAP
7C
10
7C
D2
CC
C0
78
18
18
18
ENDCHAR
STARTCHAR uni129F
ENCODING 4767
SWIDTH 960 0
DWIDTH 14 0
BBX 7 12 2 -1
BITMAP
7C
10
7C
C6
C6
C0
78
18
18
18
7E
42
ENDCHAR
STARTCHAR uni12A0
ENCODING 4768
SWIDTH 960 0
DWIDTH 14 0
BBX 7 10 2 1
BITMAP
C0
C0
70
30
78
CC
C6
C6
C6
C6
ENDCHAR
STARTCHAR uni12A1
ENCODING 4769
SWIDTH 960 0
DWIDTH 14 0
BBX 11 10 0 1
BITMAP
C000
C000
7000
3000
7800
CC00
C7E0
C660
C600
C600
ENDCHAR
STARTCHAR uni12A2
ENCODING 4770
SWIDTH 960 0
DWIDTH 14 0
BBX 11 10 0 1
BITMAP
C000
C000
7000
3000
7800
CC00
C600
C600
C660
C7E0
ENDCHAR
STARTCHAR uni12A3
ENCODING 4771
SWIDTH 960 0
DWIDTH 14 0
BBX 7 10 2 1
BITMAP
C0
C0
70
30
78
CC
C6
06
06
06
ENDCHAR
STARTCHAR uni12A4
ENCODING 4772
SWIDTH 960 0
DWIDTH 14 0
BBX 10 10 1 1
BITMAP
C000
C000
7000
3000
7800
CC00
C600
C780
C640
C780
ENDCHAR
STARTCHAR uni12A5
ENCODING 4773
SWIDTH 960 0
DWIDTH 14 0
BBX 7 10 2 1
BITMAP
E0
70
38
30
78
CC
C6
C6
C6
C6
ENDCHAR
STARTCHAR uni12A6
ENCODING 4774
SWIDTH 960 0
DWIDTH 14 0
BBX 7 10 2 1
BITMAP
C0
C0
70
30
78
CC
C6
C6
C0
C0
ENDCHAR
STARTCHAR uni12A7
ENCODING 4775
SWIDTH 960 0
DWIDTH 14 0
BBX 9 10 1 1
BITMAP
8400
FC00
3000
1C00
0C00
1E00
3300
3180
3180
3180
ENDCHAR
STARTCHAR uni12A8
ENCODING 4776
SWIDTH 960 0
DWIDTH 14 0
BBX 7 10 2 1
BITMAP
80
80
BC
66
66
66
66
66
66
66
ENDCHAR
STARTCHAR uni12A9
ENCODING 4777
SWIDTH 960 0
DWIDTH 14 0
BBX 11 10 0 1
BITMAP
8000
8000
BC00
6600
6600
67E0
6660
6600
6600
6600
ENDCHAR
STARTCHAR uni12AA
ENCODING 4778
SWIDTH 960 0
DWIDTH 14 0
BBX 11 10 0 1
BITMAP
8000
8000
BC00
6600
6600
6600
6600
6600
6660
67E0
ENDCHAR
STARTCHAR uni12AB
ENCODING 4779
SWIDTH 960 0
DWIDTH 14 0
BBX 7 10 2 1
BITMAP
80
80
BC
66
66
66
66
06
06
06
ENDCHAR
STARTCHAR uni12AC
ENCODING 4780
SWIDTH 960 0
DWIDTH 14 0
BBX 10 10 1 1
BITMAP
8000
8000
BC00
6600
6600
6600
6600
6780
6640
6780
ENDCHAR
STARTCHAR uni12AD
ENCODING 4781
SWIDTH 960 0
DWIDTH 14 0
BBX 7 10 2 1
BITMAP
80
80
BC
66
66
76
36
36
36
36
ENDCHAR
STARTCHAR uni12AE
ENCODING 4782
SWIDTH 960 0
DWIDTH 14 0
BBX 7 10 2 1
BITMAP
80
80
BC
66
66
66
66
60
60
60
ENDCHAR
STARTCHAR uni12B0
ENCODING 4784
SWIDTH 960 0
DWIDTH 14 0
BBX 11 10 0 1
BITMAP
8000
8000
BC00
6600
6600
67C0
6720
66C0
6600
6600
ENDCHAR
STARTCHAR uni12B2
ENCODING 4786
SWIDTH 960 0
DWIDTH 14 0
BBX 10 10 1 1
BITMAP
8000
8000
BC00
6600
6680
6680
67C0
66C0
6600
6600
ENDCHAR
STARTCHAR uni12B3
ENCODING 4787
SWIDTH 960 0
DWIDTH 14 0
BBX 9 12 1 -1
BITMAP
8000
8000
BC00
6600
6600
6600
6600
0600
0600
0600
1F80
1080
ENDCHAR
STARTCHAR uni12B4
ENCODING 4788
SWIDTH 960 0
DWIDTH 14 0
BBX 10 11 1 0
BITMAP
8000
8000
BC00
6600
6600
6600
6600
0780
0640
1F80
1000
ENDCHAR
STARTCHAR uni12B5
ENCODING 4789
SWIDTH 960 0
DWIDTH 14 0
BBX 10 10 1 1
BITMAP
8080
8080
BDC0
66C0
6600
6600
6600
6600
6600
6600
ENDCHAR
STARTCHAR uni12B8
ENCODING 4792
SWIDTH 960 0
DWIDTH 14 0
BBX 9 10 1 1
BITMAP
8800
F800
2000
2F00
1980
1980
1980
1980
1980
1980
ENDCHAR
STARTCHAR uni12B9
ENCODING 4793
SWIDTH 960 0
DWIDTH 14 0
BBX 11 10 0 1
BITMAP
8800
F800
2000
2E00
3300
3300
33E0
3360
3300
3300
ENDCHAR
STARTCHAR uni12BA
ENCODING 4794
SWIDTH 960 0
DWIDTH 14 0
BBX 11 10 0 1
BITMAP
8800
F800
2000
2E00
3300
3300
3300
3300
3360
33E0
ENDCHAR
STARTCHAR uni12BB
ENCODING 4795
SWIDTH 960 0
DWIDTH 14 0
BBX 9 10 1 1
BITMAP
8800
F800
2000
2F00
1980
1980
1980
0180
0180
0180
ENDCHAR
STARTCHAR uni12BC
ENCODING 4796
SWIDTH 960 0
DWIDTH 14 0
BBX 11 10 0 1
BITMAP
8800
F800
2000
2E00
3300
3300
3300
33C0
3320
33C0
ENDCHAR
STARTCHAR uni12BD
ENCODING 4797
SWIDTH 960 0
DWIDTH 14 0
BBX 9 10 1 1
BITMAP
8800
F800
2000
2F00
1980
1980
0D80
0D80
0D80
0D80
ENDCHAR
STARTCHAR uni12BE
ENCODING 4798
SWIDTH 960 0
DWIDTH 14 0
BBX 9 10 1 1
BITMAP
8800
F800
2000
2F00
1980
1980
1980
1800
1800
1800
ENDCHAR
STARTCHAR uni12C0
ENCODING 4800
SWIDTH 960 0
DWIDTH 14 0
BBX 11 10 0 1
BITMAP
8800
F800
2000
2E00
3300
33C0
3320
33C0
3300
3300
ENDCHAR
STARTCHAR uni12C2
ENCODING 4802
SWIDTH 960 0
DWIDTH 14 0
BBX 11 10 0 1
BITMAP
8800
F800
2000
2E00
3340
3340
33E0
3360
3300
3300
ENDCHAR
STARTCHAR uni12C3
ENCODING 4803
SWIDTH 960 0
DWIDTH 14 0
BBX 11 12 0 -1
BITMAP
8800
F800
2000
2F00
1980
1980
1980
0180
0180
0180
07E0
0420
ENDCHAR
STARTCHAR uni12C4
ENCODING 4804
SWIDTH 960 0
DWIDTH 14 0
BBX 11 11 0 0
BITMAP
8800
F800
2000
2E00
3300
3300
3300
03C0
0320
0FC0
0800
ENDCHAR
STARTCHAR uni12C5
ENCODING 4805
SWIDTH 960 0
DWIDTH 14 0
BBX 11 10 0 1
BITMAP
8800
F840
2040
2EE0
3360
3300
3300
3300
3300
3300
ENDCHAR
STARTCHAR uni12C8
ENCODING 4808
SWIDTH 960 0
DWIDTH 14 0
BBX 9 8 1 2
BITMAP
3E00
6B00
C980
C980
C980
C980
6B00
3E00
ENDCHAR
STARTCHAR uni12C9
ENCODING 4809
SWIDTH 960 0
DWIDTH 14 0
BBX 11 9 0 0
BITMAP
3E00
6B00
C980
C980
C980
C980
6B20
3FE0
0060
ENDCHAR
STARTCHAR uni12CA
ENCODING 4810
SWIDTH 960 0
DWIDTH 14 0
BBX 9 10 1 1
BITMAP
3E00
6B00
C980
C980
6B00
3E00
0800
1800
3300
3F00
ENDCHAR
STARTCHAR uni12CB
ENCODING 4811
SWIDTH 960 0
DWIDTH 14 0
BBX 9 10 1 1
BITMAP
3E00
6B00
C980
C980
6B00
3E00
0800
0800
0800
0800
ENDCHAR
STARTCHAR uni12CC
ENCODING 4812
SWIDTH 960 0
DWIDTH 14 0
BBX 9 10 1 1
BITMAP
3E00
6B00
C980
C980
6B00
3E00
0800
0E00
0900
0E00
ENDCHAR
STARTCHAR uni12CD
ENCODING 4813
SWIDTH 960 0
DWIDTH 14 0
BBX 12 8 0 1
BITMAP
3E00
6B00
C980
C9F0
C9B0
C980
6B00
3E00
ENDCHAR
STARTCHAR uni12CE
ENCODING 4814
SWIDTH 960 0
DWIDTH 14 0
BBX 9 10 1 1
BITMAP
3E00
6B00
C980
C980
6B00
3E00
0800
1800
3000
3000
ENDCHAR
STARTCHAR uni12D0
ENCODING 4816
SWIDTH 960 0
DWIDTH 14 0
BBX 7 10 2 1
BITMAP
0C
36
C6
C6
C6
C6
C6
C6
DE
60
ENDCHAR
STARTCHAR uni12D1
ENCODING 4817
SWIDTH 960 0
DWIDTH 14 0
BBX 11 10 0 1
BITMAP
0C00
3600
C600
C600
C7E0
C660
C600
C600
DE00
6000
ENDCHAR
STARTCHAR uni12D2
ENCODING 4818
SWIDTH 960 0
DWIDTH 14 0
BBX 8 10 2 1
BITMAP
7C
C6
C6
C6
7F
03
06
0C
19
1F
ENDCHAR
STARTCHAR uni12D3
ENCODING 4819
SWIDTH 960 0
DWIDTH 14 0
BBX 8 10 2 1
BITMAP
7C
C6
C6
C6
7F
03
06
0C
18
18
ENDCHAR
STARTCHAR uni12D4
ENCODING 4820
SWIDTH 960 0
DWIDTH 14 0
BBX 8 10 2 1
BITMAP
7C
C6
C6
C6
7F
03
06
0E
19
1E
ENDCHAR
STARTCHAR uni12D5
ENCODING 4821
SWIDTH 960 0
DWIDTH 14 0
BBX 7 10 2 1
BITMAP
18
18
3C
C6
C6
C6
C6
C6
DE
60
ENDCHAR
STARTCHAR uni12D6
ENCODING 4822
SWIDTH 960 0
DWIDTH 14 0
BBX 7 10 2 1
BITMAP
7C
C6
C6
C6
7C
60
60
C0
C0
C0
ENDCHAR
STARTCHAR uni12D8
ENCODING 4824
SWIDTH 960 0
DWIDTH 14 0
BBX 6 10 3 1
BITMAP
CC
CC
CC
FC
CC
CC
CC
CC
CC
CC
ENDCHAR
STARTCHAR uni12D9
ENCODING 4825
SWIDTH 960 0
DWIDTH 14 0
BBX 10 10 1 1
BITMAP
CC00
CC00
CC00
FC00
CC00
CFC0
CCC0
CC00
CC00
CC00
ENDCHAR
STARTCHAR uni12DA
ENCODING 4826
SWIDTH 960 0
DWIDTH 14 0
BBX 10 10 1 1
BITMAP
CC00
CC00
CC00
FC00
CC00
CC00
CC00
CC00
CCC0
CFC0
ENDCHAR
STARTCHAR uni12DB
ENCODING 4827
SWIDTH 960 0
DWIDTH 14 0
BBX 6 10 3 1
BITMAP
CC
CC
CC
FC
CC
CC
CC
0C
0C
0C
ENDCHAR
STARTCHAR uni12DC
ENCODING 4828
SWIDTH 960 0
DWIDTH 14 0
BBX 9 10 1 1
BITMAP
CC00
CC00
CC00
FC00
CC00
CC00
CC00
CF00
CC80
CF00
ENDCHAR
STARTCHAR uni12DD
ENCODING 4829
SWIDTH 960 0
DWIDTH 14 0
BBX 8 10 2 1
BITMAP
F8
23
33
33
3F
33
33
33
33
33
ENDCHAR
STARTCHAR uni12DE
ENCODING 4830
SWIDTH 960 0
DWIDTH 14 0
BBX 6 10 3 1
BITMAP
CC
CC
CC
FC
CC
CC
CC
C0
C0
C0
ENDCHAR
STARTCHAR uni12DF
ENCODING 4831
SWIDTH 960 0
DWIDTH 14 0
BBX 8 12 2 -1
BITMAP
CC
CC
CC
FC
CC
CC
CC
0C
0C
0C
3F
21
ENDCHAR
STARTCHAR uni12E0
ENCODING 4832
SWIDTH 960 0
DWIDTH 14 0
BBX 8 10 2 1
BITMAP
E7
66
66
7E
66
66
66
66
66
66
ENDCHAR
STARTCHAR uni12E1
ENCODING 4833
SWIDTH 960 0
DWIDTH 14 0
BBX 11 10 0 1
BITMAP
E700
6600
6600
7E00
6600
67E0
6660
6600
6600
6600
ENDCHAR
STARTCHAR uni12E2
ENCODING 4834
SWIDTH 960 0
DWIDTH 14 0
BBX 11 10 0 1
BITMAP
E700
6600
6600
7E00
6600
6600
6600
6600
6660
67E0
ENDCHAR
STARTCHAR uni12E3
ENCODING 4835
SWIDTH 960 0
DWIDTH 14 0
BBX 8 10 2 1
BITMAP
E7
66
66
7E
66
66
66
06
06
06
ENDCHAR
STARTCHAR uni12E4
ENCODING 4836
SWIDTH 960 0
DWIDTH 14 0
BBX 10 10 1 1
BITMAP
E700
6600
6600
7E00
6600
6600
6600
6780
6640
6780
ENDCHAR
STARTCHAR uni12E5
ENCODING 4837
SWIDTH 960 0
DWIDTH 14 0
BBX 9 10 1 1
BITMAP
F800
2380
7300
3300
3F00
3300
3300
3300
3300
3300
ENDCHAR
STARTCHAR uni12E6
ENCODING 4838
SWIDTH 960 0
DWIDTH 14 0
BBX 8 10 2 1
BITMAP
E7
66
66
7E
66
66
66
60
60
60
ENDCHAR
STARTCHAR uni12E7
ENCODING 4839
SWIDTH 960 0
DWIDTH 14 0
BBX 9 12 1 -1
BITMAP
E700
6600
6600
7E00
6600
6600
6600
0600
0600
0600
1F80
1080
ENDCHAR
STARTCHAR uni12E8
ENCODING 4840
SWIDTH 960 0
DWIDTH 14 0
BBX 7 10 2 1
BITMAP
38
6C
C6
C6
66
3C
18
18
18
18
ENDCHAR
STARTCHAR uni12E9
ENCODING 4841
SWIDTH 960 0
DWIDTH 14 0
BBX 9 10 1 1
BITMAP
3800
6C00
C600
C600
6600
3C00
1800
1F80
1980
1800
ENDCHAR
STARTCHAR uni12EA
ENCODING 4842
SWIDTH 960 0
DWIDTH 14 0
BBX 9 10 1 1
BITMAP
3800
6C00
C600
C600
6600
3C00
1900
1F00
1980
1880
ENDCHAR
STARTCHAR uni12EB
ENCODING 4843
SWIDTH 960 0
DWIDTH 14 0
BBX 7 10 2 1
BITMAP
38
6C
C6
C6
66
3C
18
18
30
60
ENDCHAR
STARTCHAR uni12EC
ENCODING 4844
SWIDTH 960 0
DWIDTH 14 0
BBX 9 10 1 1
BITMAP
3800
6C00
C600
6600
3C00
1800
1F00
1C80
1B00
1800
ENDCHAR
STARTCHAR uni12ED
ENCODING 4845
SWIDTH 960 0
DWIDTH 14 0
BBX 10 10 1 1
BITMAP
1C00
3600
6300
3300
1E00
0C40
0CC0
7F80
C000
C000
ENDCHAR
STARTCHAR uni12EE
ENCODING 4846
SWIDTH 960 0
DWIDTH 14 0
BBX 11 10 0 1
BITMAP
3800
6C00
C600
C7E0
6660
3C00
1800
1800
1800
1800
ENDCHAR
STARTCHAR uni12EF
ENCODING 4847
SWIDTH 960 0
DWIDTH 14 0
BBX 7 10 2 1
BITMAP
FE
38
6C
C6
C6
66
3C
18
18
18
ENDCHAR
STARTCHAR uni12F0
ENCODING 4848
SWIDTH 960 0
DWIDTH 14 0
BBX 8 10 2 1
BITMAP
3E
63
63
66
38
30
18
7E
C3
C3
ENDCHAR
STARTCHAR uni12F1
ENCODING 4849
SWIDTH 960 0
DWIDTH 14 0
BBX 11 10 0 1
BITMAP
3E00
6300
6300
6600
3800
3000
1800
7EE0
C360
C300
ENDCHAR
STARTCHAR uni12F2
ENCODING 4850
SWIDTH 960 0
DWIDTH 14 0
BBX 11 10 0 1
BITMAP
3E00
6300
6300
6600
3800
3000
1800
7E00
C360
C3E0
ENDCHAR
STARTCHAR uni12F3
ENCODING 4851
SWIDTH 960 0
DWIDTH 14 0
BBX 7 10 2 1
BITMAP
7C
C6
C6
CC
70
60
30
FC
86
06
ENDCHAR
STARTCHAR uni12F4
ENCODING 4852
SWIDTH 960 0
DWIDTH 14 0
BBX 11 10 0 1
BITMAP
3E00
6300
6300
6600
3800
3000
1800
7EC0
C320
C3C0
ENDCHAR
STARTCHAR uni12F5
ENCODING 4853
SWIDTH 960 0
DWIDTH 14 0
BBX 11 10 0 1
BITMAP
3E00
6300
63E0
6660
3800
3000
1800
7E00
C300
C300
ENDCHAR
STARTCHAR uni12F6
ENCODING 4854
SWIDTH 960 0
DWIDTH 14 0
BBX 8 10 2 1
BITMAP
3E
63
63
66
38
30
18
7E
C2
C0
ENDCHAR
STARTCHAR uni12F7
ENCODING 4855
SWIDTH 960 0
DWIDTH 14 0
BBX 9 12 1 -1
BITMAP
7C00
C600
C600
CC00
7000
6000
3000
FC00
8600
0600
1F80
1080
ENDCHAR
STARTCHAR uni12F8
ENCODING 4856
SWIDTH 960 0
DWIDTH 14 0
BBX 8 10 2 1
BITMAP
3E
63
7F
66
38
30
18
7E
C3
C3
ENDCHAR
STARTCHAR uni12F9
ENCODING 4857
SWIDTH 960 0
DWIDTH 14 0
BBX 11 10 0 1
BITMAP
3E00
6300
7F00
6600
3800
3000
1800
7EE0
C360
C300
ENDCHAR
STARTCHAR uni12FA
ENCODING 4858
SWIDTH 960 0
DWIDTH 14 0
BBX 11 10 0 1
BITMAP
3E00
6300
7F00
6600
3800
3000
1800
7E00
C360
C3E0
ENDCHAR
STARTCHAR uni12FB
ENCODING 4859
SWIDTH 960 0
DWIDTH 14 0
BBX 7 10 2 1
BITMAP
7C
C6
FE
CC
70
60
30
FC
86
06
ENDCHAR
STARTCHAR uni12FC
ENCODING 4860
SWIDTH 960 0
DWIDTH 14 0
BBX 11 10 0 1
BITMAP
3E00
6300
7F00
6600
3800
3000
1800
7EC0
C320
C3C0
ENDCHAR
STARTCHAR uni12FD
ENCODING 4861
SWIDTH 960 0
DWIDTH 14 0
BBX 11 10 0 1
BITMAP
3E00
6300
7FE0
6660
3800
3000
1800
7E00
C300
C300
ENDCHAR
STARTCHAR uni12FE
ENCODING 4862
SWIDTH 960 0
DWIDTH 14 0
BBX 8 10 2 1
BITMAP
3E
63
7F
66
38
30
18
7E
C2
C0
ENDCHAR
STARTCHAR uni12FF
ENCODING 4863
SWIDTH 960 0
DWIDTH 14 0
BBX 9 12 1 -1
BITMAP
7C00
C600
FE00
CC00
7000
6000
3000
FC00
8600
0600
1F80
1080
ENDCHAR
STARTCHAR uni1300
ENCODING 4864
SWIDTH 960 0
DWIDTH 14 0
BBX 8 10 2 1
BITMAP
7F
08
3E
63
66
38
18
7E
C3
C3
ENDCHAR
STARTCHAR uni1301
ENCODING 4865
SWIDTH 960 0
DWIDTH 14 0
BBX 11 10 0 1
BITMAP
7F00
0800
3E00
6300
6600
3800
1800
7EE0
C360
C300
ENDCHAR
STARTCHAR uni1302
ENCODING 4866
SWIDTH 960 0
DWIDTH 14 0
BBX 11 10 0 1
BITMAP
7F00
0800
3E00
6300
6600
3800
1800
7E00
C360
C3E0
ENDCHAR
STARTCHAR uni1303
ENCODING 4867
SWIDTH 960 0
DWIDTH 14 0
BBX 7 10 2 1
BITMAP
FE
10
7C
C6
CC
70
30
FC
86
06
ENDCHAR
STARTCHAR uni1304
ENCODING 4868
SWIDTH 960 0
DWIDTH 14 0
BBX 11 10 0 1
BITMAP
7F00
0800
3E00
6300
6600
3800
1800
7EC0
C320
C3C0
ENDCHAR
STARTCHAR uni1305
ENCODING 4869
SWIDTH 960 0
DWIDTH 14 0
BBX 11 10 0 1
BITMAP
7F00
0800
3E00
63E0
6660
3800
1800
7E00
C300
C300
ENDCHAR
STARTCHAR uni1306
ENCODING 4870
SWIDTH 960 0
DWIDTH 14 0
BBX 8 10 2 1
BITMAP
7F
08
3E
63
66
38
18
7E
C2
C0
ENDCHAR
STARTCHAR uni1307
ENCODING 4871
SWIDTH 960 0
DWIDTH 14 0
BBX 9 11 1 0
BITMAP
FE00
1000
7C00
C600
CC00
7000
3000
FC00
8600
1F80
1080
ENDCHAR
STARTCHAR uni1308
ENCODING 4872
SWIDTH 960 0
DWIDTH 14 0
BBX 6 10 3 1
BITMAP
F8
0C
0C
0C
0C
0C
0C
0C
0C
0C
ENDCHAR
STARTCHAR uni1309
ENCODING 4873
SWIDTH 960 0
DWIDTH 14 0
BBX 10 10 1 1
BITMAP
F800
0C00
0C00
0C00
0FC0
0CC0
0C00
0C00
0C00
0C00
ENDCHAR
STARTCHAR uni130A
ENCODING 4874
SWIDTH 960 0
DWIDTH 14 0
BBX 10 10 1 1
BITMAP
F800
0C00
0C00
0C00
0C00
0C00
0C00
0C00
0CC0
0FC0
ENDCHAR
STARTCHAR uni130B
ENCODING 4875
SWIDTH 960 0
DWIDTH 14 0
BBX 6 10 3 1
BITMAP
F8
0C
0C
0C
0C
0C
18
30
60
C0
ENDCHAR
STARTCHAR uni130C
ENCODING 4876
SWIDTH 960 0
DWIDTH 14 0
BBX 9 10 1 1
BITMAP
F800
0C00
0C00
0C00
0C00
0C00
0C00
0F00
0C80
0F00
ENDCHAR
STARTCHAR uni130D
ENCODING 4877
SWIDTH 960 0
DWIDTH 14 0
BBX 8 10 2 1
BITMAP
7E
CB
73
03
03
03
03
03
03
03
ENDCHAR
STARTCHAR uni130E
ENCODING 4878
SWIDTH 960 0
DWIDTH 14 0
BBX 6 10 3 1
BITMAP
30
30
F8
0C
0C
0C
0C
0C
0C
0C
ENDCHAR
STARTCHAR uni1310
ENCODING 4880
SWIDTH 960 0
DWIDTH 14 0
BBX 10 10 1 1
BITMAP
F800
0C00
0C00
0C00
0F80
0E40
0D80
0C00
0C00
0C00
ENDCHAR
STARTCHAR uni1312
ENCODING 4882
SWIDTH 960 0
DWIDTH 14 0
BBX 9 10 1 1
BITMAP
F800
0C00
0C00
0D00
0D00
0F80
0D80
0C00
0C00
0C00
ENDCHAR
STARTCHAR uni1313
ENCODING 4883
SWIDTH 960 0
DWIDTH 14 0
BBX 8 10 2 1
BITMAP
78
CC
0C
3E
33
03
03
03
03
03
ENDCHAR
STARTCHAR uni1314
ENCODING 4884
SWIDTH 960 0
DWIDTH 14 0
BBX 9 11 1 0
BITMAP
F800
0C00
0C00
0C00
0C00
0C00
0C00
0F00
0C80
3F00
2000
ENDCHAR
STARTCHAR uni1315
ENCODING 4885
SWIDTH 960 0
DWIDTH 14 0
BBX 9 10 1 1
BITMAP
0100
F900
0F80
0D80
0C00
0C00
0C00
0C00
0C00
0C00
ENDCHAR
STARTCHAR uni1318
ENCODING 4888
SWIDTH 960 0
DWIDTH 14 0
BBX 6 10 3 1
BITMAP
FC
00
F8
0C
0C
0C
0C
0C
0C
0C
ENDCHAR
STARTCHAR uni1319
ENCODING 4889
SWIDTH 960 0
DWIDTH 14 0
BBX 10 10 1 1
BITMAP
FC00
0000
F800
0C00
0C00
0FC0
0CC0
0C00
0C00
0C00
ENDCHAR
STARTCHAR uni131A
ENCODING 4890
SWIDTH 960 0
DWIDTH 14 0
BBX 10 10 1 1
BITMAP
FC00
0000
F800
0C00
0C00
0C00
0C00
0C00
0CC0
0FC0
ENDCHAR
STARTCHAR uni131B
ENCODING 4891
SWIDTH 960 0
DWIDTH 14 0
BBX 6 10 3 1
BITMAP
FC
00
F8
0C
0C
0C
18
30
60
C0
ENDCHAR
STARTCHAR uni131C
ENCODING 4892
SWIDTH 960 0
DWIDTH 14 0
BBX 9 10 1 1
BITMAP
FC00
0000
F800
0C00
0C00
0C00
0C00
0F00
0C80
0F00
ENDCHAR
STARTCHAR uni131D
ENCODING 4893
SWIDTH 960 0
DWIDTH 14 0
BBX 8 10 2 1
BITMAP
7F
00
7E
CB
73
03
03
03
03
03
ENDCHAR
STARTCHAR uni131E
ENCODING 4894
SWIDTH 960 0
DWIDTH 14 0
BBX 6 10 3 1
BITMAP
FC
30
F8
0C
0C
0C
0C
0C
0C
0C
ENDCHAR
STARTCHAR uni131F
ENCODING 4895
SWIDTH 960 0
DWIDTH 14 0
BBX 8 10 2 1
BITMAP
7E
00
78
CC
0C
3E
33
03
03
03
ENDCHAR
STARTCHAR uni1320
ENCODING 4896
SWIDTH 960 0
DWIDTH 14 0
BBX 8 10 2 1
BITMAP
7E
DB
DB
DB
DB
DB
DB
DB
DB
DB
ENDCHAR
STARTCHAR uni1321
ENCODING 4897
SWIDTH 960 0
DWIDTH 14 0
BBX 11 10 0 1
BITMAP
7E00
DB00
DB00
DB00
DBE0
DB60
DB00
DB00
DB00
DB00
ENDCHAR
STARTCHAR uni1322
ENCODING 4898
SWIDTH 960 0
DWIDTH 14 0
BBX 11 10 0 1
BITMAP
7E00
DB00
DB00
DB00
DB00
DB00
DB00
DB00
DB60
DBE0
ENDCHAR
STARTCHAR uni1323
ENCODING 4899
SWIDTH 960 0
DWIDTH 14 0
BBX 8 10 2 1
BITMAP
7E
DB
DB
DB
DB
DB
03
03
03
03
ENDCHAR
STARTCHAR uni1324
ENCODING 4900
SWIDTH 960 0
DWIDTH 14 0
BBX 11 10 0 1
BITMAP
7E00
DB00
DB00
DB00
DB00
DB00
DB00
DBC0
DB20
DBC0
ENDCHAR
STARTCHAR uni1325
ENCODING 4901
SWIDTH 960 0
DWIDTH 14 0
BBX 8 10 2 1
BITMAP
7E
DB
DB
DB
DB
18
0C
0C
0C
0C
ENDCHAR
STARTCHAR uni1326
ENCODING 4902
SWIDTH 960 0
DWIDTH 14 0
BBX 8 10 2 1
BITMAP
7E
DB
DB
DB
DB
DB
C0
C0
C0
C0
ENDCHAR
STARTCHAR uni1327
ENCODING 4903
SWIDTH 960 0
DWIDTH 14 0
BBX 10 11 1 0
BITMAP
7E00
DB00
DB00
DB00
DB00
DB00
0300
0300
0300
0FC0
0840
ENDCHAR
STARTCHAR uni1328
ENCODING 4904
SWIDTH 960 0
DWIDTH 14 0
BBX 11 10 0 1
BITMAP
7F00
C980
8880
8880
8880
8880
CCC0
AAA0
AAA0
CCC0
ENDCHAR
STARTCHAR uni1329
ENCODING 4905
SWIDTH 960 0
DWIDTH 14 0
BBX 11 10 0 1
BITMAP
7C00
D600
9200
93E0
9260
9200
DB00
B680
B680
DB00
ENDCHAR
STARTCHAR uni132A
ENCODING 4906
SWIDTH 960 0
DWIDTH 14 0
BBX 11 10 0 1
BITMAP
7C00
D600
9200
9200
9200
9200
DA00
B600
B660
DBE0
ENDCHAR
STARTCHAR uni132B
ENCODING 4907
SWIDTH 960 0
DWIDTH 14 0
BBX 11 10 0 1
BITMAP
7F00
C980
8880
CC80
AA80
AA80
CCC0
00A0
00A0
00C0
ENDCHAR
STARTCHAR uni132C
ENCODING 4908
SWIDTH 960 0
DWIDTH 14 0
BBX 11 10 0 1
BITMAP
7C00
D600
93C0
9320
92C0
9200
DB00
B680
B680
DB00
ENDCHAR
STARTCHAR uni132D
ENCODING 4909
SWIDTH 960 0
DWIDTH 14 0
BBX 11 10 0 1
BITMAP
7F00
C980
8880
C8C0
A8A0
A8A0
CCC0
0A00
0A00
0C00
ENDCHAR
STARTCHAR uni132E
ENCODING 4910
SWIDTH 960 0
DWIDTH 14 0
BBX 11 10 0 1
BITMAP
7F00
C980
8880
8CC0
8AA0
8AA0
CCC0
A000
A000
C000
ENDCHAR
STARTCHAR uni132F
ENCODING 4911
SWIDTH 960 0
DWIDTH 14 0
BBX 11 11 0 0
BITMAP
7F00
C980
8880
CC80
AA80
AA80
CC80
0080
0080
03E0
0220
ENDCHAR
STARTCHAR uni1330
ENCODING 4912
SWIDTH 960 0
DWIDTH 14 0
BBX 8 10 2 1
BITMAP
18
18
3C
66
66
3C
3C
66
C3
C3
ENDCHAR
STARTCHAR uni1331
ENCODING 4913
SWIDTH 960 0
DWIDTH 14 0
BBX 11 10 0 1
BITMAP
1800
1800
3C00
6600
6600
3C00
3C00
66E0
C360
C300
ENDCHAR
STARTCHAR uni1332
ENCODING 4914
SWIDTH 960 0
DWIDTH 14 0
BBX 11 10 0 1
BITMAP
1800
1800
3C00
6600
6600
3C00
3C00
6600
C360
C3E0
ENDCHAR
STARTCHAR uni1333
ENCODING 4915
SWIDTH 960 0
DWIDTH 14 0
BBX 7 10 2 1
BITMAP
30
30
78
CC
CC
78
78
CC
86
06
ENDCHAR
STARTCHAR uni1334
ENCODING 4916
SWIDTH 960 0
DWIDTH 14 0
BBX 11 10 0 1
BITMAP
1800
1800
3C00
6600
6600
3C00
3C00
66C0
C320
C3C0
ENDCHAR
STARTCHAR uni1335
ENCODING 4917
SWIDTH 960 0
DWIDTH 14 0
BBX 11 10 0 1
BITMAP
1800
1800
3C00
67E0
6660
3C00
3C00
6600
C300
C300
ENDCHAR
STARTCHAR uni1336
ENCODING 4918
SWIDTH 960 0
DWIDTH 14 0
BBX 7 10 2 1
BITMAP
18
18
3C
66
66
3C
3C
66
C2
C0
ENDCHAR
STARTCHAR uni1337
ENCODING 4919
SWIDTH 960 0
DWIDTH 14 0
BBX 9 11 1 0
BITMAP
3000
3000
7800
CC00
CC00
7800
7800
CC00
8600
1F80
1080
ENDCHAR
STARTCHAR uni1338
ENCODING 4920
SWIDTH 960 0
DWIDTH 14 0
BBX 8 10 2 1
BITMAP
3C
66
66
66
3C
3C
66
C3
C3
C3
ENDCHAR
STARTCHAR uni1339
ENCODING 4921
SWIDTH 960 0
DWIDTH 14 0
BBX 11 10 0 1
BITMAP
3C00
6600
6600
6600
3C00
3C00
6600
C3E0
C360
C300
ENDCHAR
STARTCHAR uni133A
ENCODING 4922
SWIDTH 960 0
DWIDTH 14 0
BBX 11 10 0 1
BITMAP
3C00
6600
6600
6600
3C00
3C00
6600
C300
C360
C3E0
ENDCHAR
STARTCHAR uni133B
ENCODING 4923
SWIDTH 960 0
DWIDTH 14 0
BBX 8 10 2 1
BITMAP
3C
66
66
66
3C
3C
66
C3
03
03
ENDCHAR
STARTCHAR uni133C
ENCODING 4924
SWIDTH 960 0
DWIDTH 14 0
BBX 11 10 0 1
BITMAP
3C00
6600
6600
6600
3C00
3C00
6600
C3C0
C320
C3C0
ENDCHAR
STARTCHAR uni133D
ENCODING 4925
SWIDTH 960 0
DWIDTH 14 0
BBX 11 10 0 1
BITMAP
3C00
6600
67E0
6660
3C00
3C00
6600
C300
C300
C300
ENDCHAR
STARTCHAR uni133E
ENCODING 4926
SWIDTH 960 0
DWIDTH 14 0
BBX 8 10 2 1
BITMAP
3C
66
66
66
3C
3C
66
C3
C0
C0
ENDCHAR
STARTCHAR uni133F
ENCODING 4927
SWIDTH 960 0
DWIDTH 14 0
BBX 10 11 1 0
BITMAP
3C00
6600
6600
6600
3C00
3C00
6600
C300
0300
0FC0
0840
ENDCHAR
STARTCHAR uni1340
ENCODING 4928
SWIDTH 960 0
DWIDTH 14 0
BBX 7 10 2 1
BITMAP
0C
36
C6
C6
FE
C6
C6
C6
DE
60
ENDCHAR
STARTCHAR uni1341
ENCODING 4929
SWIDTH 960 0
DWIDTH 14 0
BBX 11 10 0 1
BITMAP
0C00
3600
C600
C600
FFE0
C660
C600
C600
DE00
6000
ENDCHAR
STARTCHAR uni1342
ENCODING 4930
SWIDTH 960 0
DWIDTH 14 0
BBX 8 10 2 1
BITMAP
7C
C6
FE
C6
7F
03
06
0C
19
1F
ENDCHAR
STARTCHAR uni1343
ENCODING 4931
SWIDTH 960 0
DWIDTH 14 0
BBX 8 10 2 1
BITMAP
7C
C6
FE
C6
7F
03
06
0C
18
18
ENDCHAR
STARTCHAR uni1344
ENCODING 4932
SWIDTH 960 0
DWIDTH 14 0
BBX 8 10 2 1
BITMAP
7C
C6
FE
C6
7F
03
06
0E
19
1E
ENDCHAR
STARTCHAR uni1345
ENCODING 4933
SWIDTH 960 0
DWIDTH 14 0
BBX 7 10 2 1
BITMAP
18
18
3C
C6
C6
FE
C6
C6
DE
60
ENDCHAR
STARTCHAR uni1346
ENCODING 4934
SWIDTH 960 0
DWIDTH 14 0
BBX 7 10 2 1
BITMAP
7C
C6
FE
C6
7C
60
60
C0
C0
C0
ENDCHAR
STARTCHAR uni1348
ENCODING 4936
SWIDTH 960 0
DWIDTH 14 0
BBX 8 10 2 1
BITMAP
18
18
18
30
70
D8
C8
EB
7F
3E
ENDCHAR
STARTCHAR uni1349
ENCODING 4937
SWIDTH 960 0
DWIDTH 14 0
BBX 9 11 1 0
BITMAP
1800
1800
1800
3000
7800
CC00
EC00
7F80
3F80
0C00
0C00
ENDCHAR
STARTCHAR uni134A
ENCODING 4938
SWIDTH 960 0
DWIDTH 14 0
BBX 9 10 1 1
BITMAP
1800
1800
1800
3000
7000
DB00
C980
E980
7F80
3F00
ENDCHAR
STARTCHAR uni134B
ENCODING 4939
SWIDTH 960 0
DWIDTH 14 0
BBX 10 11 1 0
BITMAP
1800
1800
1800
3000
7000
C9C0
EBC0
7E00
3C00
1800
1800
ENDCHAR
STARTCHAR uni134C
ENCODING 4940
SWIDTH 960 0
DWIDTH 14 0
BBX 10 10 1 1
BITMAP
1800
1800
1800
3000
7000
D000
C800
EB80
7E40
3F80
ENDCHAR
STARTCHAR uni134D
ENCODING 4941
SWIDTH 960 0
DWIDTH 14 0
BBX 8 11 2 0
BITMAP
3C
7E
C6
C0
F0
C8
CB
FF
7E
18
18
ENDCHAR
STARTCHAR uni134E
ENCODING 4942
SWIDTH 960 0
DWIDTH 14 0
BBX 9 10 1 1
BITMAP
3F00
7C80
C300
C000
C000
F000
C800
CB00
FF00
7E00
ENDCHAR
STARTCHAR uni134F
ENCODING 4943
SWIDTH 960 0
DWIDTH 14 0
BBX 10 12 1 -1
BITMAP
1800
1800
1800
3000
7000
C9C0
EBC0
7E00
3C00
1800
7E00
4200
ENDCHAR
STARTCHAR uni1350
ENCODING 4944
SWIDTH 960 0
DWIDTH 14 0
BBX 10 10 1 1
BITMAP
7F80
CCC0
0C00
0C00
0C00
0C00
0C00
0C00
0C00
0C00
ENDCHAR
STARTCHAR uni1351
ENCODING 4945
SWIDTH 960 0
DWIDTH 14 0
BBX 10 10 1 1
BITMAP
7F80
CCC0
0C00
0C00
0C00
0FC0
0CC0
0C00
0C00
0C00
ENDCHAR
STARTCHAR uni1352
ENCODING 4946
SWIDTH 960 0
DWIDTH 14 0
BBX 10 10 1 1
BITMAP
7F80
CCC0
0C00
0C00
0C00
0C00
0C00
0C00
0CC0
0FC0
ENDCHAR
STARTCHAR uni1353
ENCODING 4947
SWIDTH 960 0
DWIDTH 14 0
BBX 10 10 1 1
BITMAP
7F80
CCC0
0C00
0C00
0C00
0C00
0C00
1800
3000
6000
ENDCHAR
STARTCHAR uni1354
ENCODING 4948
SWIDTH 960 0
DWIDTH 14 0
BBX 10 10 1 1
BITMAP
7F80
CCC0
0C00
0C00
0C00
0C00
0C00
0F00
0C80
0F00
ENDCHAR
STARTCHAR uni1355
ENCODING 4949
SWIDTH 960 0
DWIDTH 14 0
BBX 10 10 1 1
BITMAP
7F80
CCC0
0C00
0C00
0F00
0300
0300
0300
0300
0300
ENDCHAR
STARTCHAR uni1356
ENCODING 4950
SWIDTH 960 0
DWIDTH 14 0
BBX 10 10 1 1
BITMAP
7F80
CCC0
0C00
0C00
1800
1800
3000
3000
3000
3000
ENDCHAR
STARTCHAR uni1357
ENCODING 4951
SWIDTH 960 0
DWIDTH 14 0
BBX 10 11 1 0
BITMAP
7F80
CCC0
0C00
0C00
0C00
0C00
0C00
0C00
0C00
3F00
2100
ENDCHAR
STARTCHAR uni1358
ENCODING 4952
SWIDTH 960 0
DWIDTH 14 0
BBX 9 10 1 1
BITMAP
7F00
0800
7F00
9480
9480
9480
6380
0080
0080
0080
ENDCHAR
STARTCHAR uni1359
ENCODING 4953
SWIDTH 960 0
DWIDTH 14 0
BBX 9 10 1 1
BITMAP
4200
7E00
1800
1800
3000
6300
C180
E180
7F80
3F00
ENDCHAR
STARTCHAR uni135A
ENCODING 4954
SWIDTH 960 0
DWIDTH 14 0
BBX 9 10 1 1
BITMAP
4200
7E00
1800
1800
3000
7300
C980
E980
7F80
3F00
ENDCHAR
STARTCHAR uni1361
ENCODING 4961
SWIDTH 960 0
DWIDTH 14 0
BBX 2 6 2 2
BITMAP
C0
C0
00
00
C0
C0
ENDCHAR
STARTCHAR uni1362
ENCODING 4962
SWIDTH 960 0
DWIDTH 14 0
BBX 5 6 2 2
BITMAP
D8
D8
00
00
D8
D8
ENDCHAR
STARTCHAR uni1363
ENCODING 4963
SWIDTH 960 0
DWIDTH 14 0
BBX 8 9 2 2
BITMAP
03
FF
C0
18
18
00
00
18
18
ENDCHAR
STARTCHAR uni1364
ENCODING 4964
SWIDTH 960 0
DWIDTH 14 0
BBX 8 11 2 0
BITMAP
03
FF
C0
18
18
00
18
18
03
FF
C0
ENDCHAR
STARTCHAR uni1365
ENCODING 4965
SWIDTH 960 0
DWIDTH 14 0
BBX 8 7 2 2
BITMAP
18
18
03
FF
C0
18
18
ENDCHAR
STARTCHAR uni1366
ENCODING 4966
SWIDTH 960 0
DWIDTH 14 0
BBX 5 7 2 2
BITMAP
C0
C0
00
78
00
C0
C0
ENDCHAR
STARTCHAR uni1367
ENCODING 4967
SWIDTH 960 0
DWIDTH 14 0
BBX 2 8 2 2
BITMAP
C0
C0
00
C0
C0
00
C0
C0
ENDCHAR
STARTCHAR uni1368
ENCODING 4968
SWIDTH 960 0
DWIDTH 14 0
BBX 8 9 2 1
BITMAP
18
18
C3
DB
18
C3
C3
18
18
ENDCHAR
STARTCHAR uni16A0
ENCODING 5792
SWIDTH 960 0
DWIDTH 7 0
BBX 4 10 1 0
BITMAP
90
A0
C0
90
A0
C0
80
80
80
80
ENDCHAR
STARTCHAR uni16A2
ENCODING 5794
SWIDTH 960 0
DWIDTH 7 0
BBX 5 10 1 0
BITMAP
C0
A0
90
90
88
88
88
88
88
88
ENDCHAR
STARTCHAR uni16A3
ENCODING 5795
SWIDTH 960 0
DWIDTH 7 0
BBX 5 10 1 0
BITMAP
20
50
88
88
88
A8
A8
A8
A8
A8
ENDCHAR
STARTCHAR uni16A6
ENCODING 5798
SWIDTH 960 0
DWIDTH 7 0
BBX 4 10 1 0
BITMAP
80
80
C0
A0
90
90
A0
C0
80
80
ENDCHAR
STARTCHAR uni16A9
ENCODING 5801
SWIDTH 960 0
DWIDTH 7 0
BBX 5 10 1 0
BITMAP
88
D0
A0
88
D0
A0
80
80
80
80
ENDCHAR
STARTCHAR uni16AA
ENCODING 5802
SWIDTH 960 0
DWIDTH 7 0
BBX 5 10 1 0
BITMAP
88
D0
A0
80
C0
A0
90
80
80
80
ENDCHAR
STARTCHAR uni16AB
ENCODING 5803
SWIDTH 960 0
DWIDTH 7 0
BBX 4 10 1 0
BITMAP
80
C0
A0
90
C0
A0
90
80
80
80
ENDCHAR
STARTCHAR uni16B1
ENCODING 5809
SWIDTH 960 0
DWIDTH 7 0
BBX 4 10 1 0
BITMAP
C0
A0
90
A0
C0
A0
90
80
80
80
ENDCHAR
STARTCHAR uni16B3
ENCODING 5811
SWIDTH 960 0
DWIDTH 7 0
BBX 5 10 1 0
BITMAP
80
80
C0
A0
90
90
88
88
88
88
ENDCHAR
STARTCHAR uni16B7
ENCODING 5815
SWIDTH 960 0
DWIDTH 7 0
BBX 5 10 1 0
BITMAP
88
88
50
50
20
20
50
50
88
88
ENDCHAR
STARTCHAR uni16B8
ENCODING 5816
SWIDTH 960 0
DWIDTH 7 0
BBX 5 10 1 0
BITMAP
88
88
70
50
A8
A8
50
70
88
88
ENDCHAR
STARTCHAR uni16B9
ENCODING 5817
SWIDTH 960 0
DWIDTH 7 0
BBX 4 10 1 0
BITMAP
C0
A0
90
A0
C0
80
80
80
80
80
ENDCHAR
STARTCHAR uni16BB
ENCODING 5819
SWIDTH 960 0
DWIDTH 7 0
BBX 5 10 1 0
BITMAP
88
88
88
C8
A8
98
C8
A8
98
88
ENDCHAR
STARTCHAR uni16BE
ENCODING 5822
SWIDTH 960 0
DWIDTH 7 0
BBX 5 10 1 0
BITMAP
20
20
A0
60
20
30
28
20
20
20
ENDCHAR
STARTCHAR uni16C1
ENCODING 5825
SWIDTH 960 0
DWIDTH 7 0
BBX 1 10 3 0
BITMAP
80
80
80
80
80
80
80
80
80
80
ENDCHAR
STARTCHAR uni16C4
ENCODING 5828
SWIDTH 960 0
DWIDTH 7 0
BBX 5 10 1 0
BITMAP
20
20
70
A8
A8
A8
70
20
20
20
ENDCHAR
STARTCHAR uni16C7
ENCODING 5831
SWIDTH 960 0
DWIDTH 7 0
BBX 5 10 1 0
BITMAP
20
30
28
20
20
20
20
A0
60
20
ENDCHAR
STARTCHAR uni16C8
ENCODING 5832
SWIDTH 960 0
DWIDTH 7 0
BBX 5 10 1 0
BITMAP
88
D0
A0
80
80
80
80
A0
D0
88
ENDCHAR
STARTCHAR uni16C9
ENCODING 5833
SWIDTH 960 0
DWIDTH 7 0
BBX 5 10 1 0
BITMAP
A8
A8
A8
A8
70
20
20
20
20
20
ENDCHAR
STARTCHAR uni16CB
ENCODING 5835
SWIDTH 960 0
DWIDTH 7 0
BBX 5 10 1 0
BITMAP
80
80
88
98
A8
C8
88
08
08
08
ENDCHAR
STARTCHAR uni16CF
ENCODING 5839
SWIDTH 960 0
DWIDTH 7 0
BBX 5 10 1 0
BITMAP
20
70
A8
20
20
20
20
20
20
20
ENDCHAR
STARTCHAR uni16D2
ENCODING 5842
SWIDTH 960 0
DWIDTH 7 0
BBX 4 10 1 0
BITMAP
C0
A0
90
A0
C0
C0
A0
90
A0
C0
ENDCHAR
STARTCHAR uni16D6
ENCODING 5846
SWIDTH 960 0
DWIDTH 7 0
BBX 5 10 1 0
BITMAP
88
D8
A8
88
88
88
88
88
88
88
ENDCHAR
STARTCHAR uni16D7
ENCODING 5847
SWIDTH 960 0
DWIDTH 7 0
BBX 5 10 1 0
BITMAP
88
D8
A8
D8
88
88
88
88
88
88
ENDCHAR
STARTCHAR uni16DA
ENCODING 5850
SWIDTH 960 0
DWIDTH 7 0
BBX 4 10 1 0
BITMAP
80
C0
A0
90
80
80
80
80
80
80
ENDCHAR
STARTCHAR uni16DD
ENCODING 5853
SWIDTH 960 0
DWIDTH 7 0
BBX 5 10 1 0
BITMAP
88
50
20
50
88
88
50
20
50
88
ENDCHAR
STARTCHAR uni16DE
ENCODING 5854
SWIDTH 960 0
DWIDTH 7 0
BBX 5 10 1 0
BITMAP
88
88
88
D8
A8
D8
88
88
88
88
ENDCHAR
STARTCHAR uni16DF
ENCODING 5855
SWIDTH 960 0
DWIDTH 7 0
BBX 5 10 1 0
BITMAP
20
50
88
88
50
20
50
50
88
88
ENDCHAR
STARTCHAR uni16E0
ENCODING 5856
SWIDTH 960 0
DWIDTH 7 0
BBX 5 10 1 0
BITMAP
A8
A8
70
20
20
20
20
20
20
20
ENDCHAR
STARTCHAR uni16E1
ENCODING 5857
SWIDTH 960 0
DWIDTH 7 0
BBX 5 10 1 0
BITMAP
A8
A8
70
20
70
A8
A8
20
20
20
ENDCHAR
STARTCHAR uni16E2
ENCODING 5858
SWIDTH 960 0
DWIDTH 7 0
BBX 5 10 1 0
BITMAP
20
20
20
20
20
70
A8
A8
A8
A8
ENDCHAR
STARTCHAR uni16E5
ENCODING 5861
SWIDTH 960 0
DWIDTH 7 0
BBX 5 10 1 0
BITMAP
88
D8
A8
88
88
88
88
A8
D8
88
ENDCHAR
STARTCHAR uni16EB
ENCODING 5867
SWIDTH 960 0
DWIDTH 7 0
BBX 1 2 3 4
BITMAP
80
80
ENDCHAR
STARTCHAR uni16EC
ENCODING 5868
SWIDTH 960 0
DWIDTH 7 0
BBX 1 6 3 2
BITMAP
80
80
00
00
80
80
ENDCHAR
STARTCHAR uni16ED
ENCODING 5869
SWIDTH 960 0
DWIDTH 7 0
BBX 4 4 1 3
BITMAP
90
60
60
90
ENDCHAR
STARTCHAR uni1E00
ENCODING 7680
SWIDTH 960 0
DWIDTH 7 0
BBX 6 12 0 -2
BITMAP
30
48
84
84
84
FC
84
84
84
30
48
30
ENDCHAR
STARTCHAR uni1E01
ENCODING 7681
SWIDTH 960 0
DWIDTH 7 0
BBX 6 9 0 -2
BITMAP
78
84
1C
64
84
84
7C
48
30
ENDCHAR
STARTCHAR uni1E02
ENCODING 7682
SWIDTH 960 0
DWIDTH 7 0
BBX 6 11 0 0
BITMAP
10
00
F0
88
84
88
F0
88
84
88
F0
ENDCHAR
STARTCHAR uni1E03
ENCODING 7683
SWIDTH 960 0
DWIDTH 7 0
BBX 6 11 0 0
BITMAP
10
80
80
80
B8
C4
84
84
84
C4
B8
ENDCHAR
STARTCHAR uni1E04
ENCODING 7684
SWIDTH 960 0
DWIDTH 7 0
BBX 6 12 0 -2
BITMAP
F0
88
84
88
F0
88
84
84
88
F0
00
10
ENDCHAR
STARTCHAR uni1E05
ENCODING 7685
SWIDTH 960 0
DWIDTH 7 0
BBX 6 12 0 -2
BITMAP
80
80
80
B8
C4
84
84
84
C4
B8
00
10
ENDCHAR
STARTCHAR uni1E06
ENCODING 7686
SWIDTH 960 0
DWIDTH 7 0
BBX 6 12 0 -2
BITMAP
F0
88
84
88
F0
88
84
84
88
F0
00
78
ENDCHAR
STARTCHAR uni1E07
ENCODING 7687
SWIDTH 960 0
DWIDTH 7 0
BBX 6 12 0 -2
BITMAP
80
80
80
B8
C4
84
84
84
C4
B8
00
78
ENDCHAR
STARTCHAR uni1E08
ENCODING 7688
SWIDTH 960 0
DWIDTH 7 0
BBX 6 14 0 -2
BITMAP
10
20
00
78
84
80
80
80
80
84
84
78
10
20
ENDCHAR
STARTCHAR uni1E09
ENCODING 7689
SWIDTH 960 0
DWIDTH 7 0
BBX 6 12 0 -2
BITMAP
10
20
00
78
84
80
80
80
84
78
10
20
ENDCHAR
STARTCHAR uni1E0A
ENCODING 7690
SWIDTH 960 0
DWIDTH 7 0
BBX 6 11 0 0
BITMAP
10
00
F0
88
84
84
84
84
84
88
F0
ENDCHAR
STARTCHAR uni1E0B
ENCODING 7691
SWIDTH 960 0
DWIDTH 7 0
BBX 6 11 0 0
BITMAP
10
04
04
04
74
8C
84
84
84
8C
74
ENDCHAR
STARTCHAR uni1E0C
ENCODING 7692
SWIDTH 960 0
DWIDTH 7 0
BBX 6 12 0 -2
BITMAP
F0
88
84
84
84
84
84
84
88
F0
00
10
ENDCHAR
STARTCHAR uni1E0D
ENCODING 7693
SWIDTH 960 0
DWIDTH 7 0
BBX 6 12 0 -2
BITMAP
04
04
04
74
8C
84
84
84
8C
74
00
10
ENDCHAR
STARTCHAR uni1E0E
ENCODING 7694
SWIDTH 960 0
DWIDTH 7 0
BBX 6 12 0 -2
BITMAP
F0
88
84
84
84
84
84
84
88
F0
00
78
ENDCHAR
STARTCHAR uni1E0F
ENCODING 7695
SWIDTH 960 0
DWIDTH 7 0
BBX 6 12 0 -2
BITMAP
04
04
04
74
8C
84
84
84
8C
74
00
78
ENDCHAR
STARTCHAR uni1E10
ENCODING 7696
SWIDTH 960 0
DWIDTH 7 0
BBX 6 12 0 -2
BITMAP
F0
88
84
84
84
84
84
84
88
F0
10
20
ENDCHAR
STARTCHAR uni1E11
ENCODING 7697
SWIDTH 960 0
DWIDTH 7 0
BBX 6 12 0 -2
BITMAP
04
04
04
74
8C
84
84
84
8C
74
10
20
ENDCHAR
STARTCHAR uni1E12
ENCODING 7698
SWIDTH 960 0
DWIDTH 7 0
BBX 6 12 0 -2
BITMAP
F0
88
84
84
84
84
84
84
88
F0
10
28
ENDCHAR
STARTCHAR uni1E13
ENCODING 7699
SWIDTH 960 0
DWIDTH 7 0
BBX 6 12 0 -2
BITMAP
04
04
04
74
8C
84
84
84
8C
74
10
28
ENDCHAR
STARTCHAR uni1E14
ENCODING 7700
SWIDTH 960 0
DWIDTH 7 0
BBX 6 12 0 0
BITMAP
20
10
78
00
FC
80
80
80
F0
80
80
FC
ENDCHAR
STARTCHAR uni1E15
ENCODING 7701
SWIDTH 960 0
DWIDTH 7 0
BBX 6 12 0 0
BITMAP
20
10
00
78
00
78
84
84
FC
80
84
78
ENDCHAR
STARTCHAR uni1E16
ENCODING 7702
SWIDTH 960 0
DWIDTH 7 0
BBX 6 12 0 0
BITMAP
10
20
78
00
FC
80
80
80
F0
80
80
FC
ENDCHAR
STARTCHAR uni1E17
ENCODING 7703
SWIDTH 960 0
DWIDTH 7 0
BBX 6 12 0 0
BITMAP
10
20
00
78
00
78
84
84
FC
80
84
78
ENDCHAR
STARTCHAR uni1E18
ENCODING 7704
SWIDTH 960 0
DWIDTH 7 0
BBX 6 12 0 -2
BITMAP
FC
80
80
80
F0
80
80
80
80
FC
20
50
ENDCHAR
STARTCHAR uni1E19
ENCODING 7705
SWIDTH 960 0
DWIDTH 7 0
BBX 6 9 0 -2
BITMAP
78
84
84
FC
80
84
78
20
50
ENDCHAR
STARTCHAR uni1E1A
ENCODING 7706
SWIDTH 960 0
DWIDTH 7 0
BBX 6 12 0 -2
BITMAP
FC
80
80
80
F0
80
80
80
80
FC
28
50
ENDCHAR
STARTCHAR uni1E1B
ENCODING 7707
SWIDTH 960 0
DWIDTH 7 0
BBX 6 9 0 -2
BITMAP
78
84
84
FC
80
84
78
28
50
ENDCHAR
STARTCHAR uni1E1C
ENCODING 7708
SWIDTH 960 0
DWIDTH 7 0
BBX 6 14 0 -2
BITMAP
84
78
00
FC
80
80
80
F0
80
80
80
FC
20
40
ENDCHAR
STARTCHAR uni1E1D
ENCODING 7709
SWIDTH 960 0
DWIDTH 7 0
BBX 6 12 0 -2
BITMAP
84
78
00
78
84
84
FC
80
84
78
20
40
ENDCHAR
STARTCHAR uni1E1E
ENCODING 7710
SWIDTH 960 0
DWIDTH 7 0
BBX 6 11 0 0
BITMAP
10
00
FC
80
80
80
F0
80
80
80
80
ENDCHAR
STARTCHAR uni1E1F
ENCODING 7711
SWIDTH 960 0
DWIDTH 7 0
BBX 6 12 0 0
BITMAP
10
00
18
24
20
20
F8
20
20
20
20
20
ENDCHAR
STARTCHAR uni1E20
ENCODING 7712
SWIDTH 960 0
DWIDTH 7 0
BBX 6 11 0 0
BITMAP
78
00
78
84
84
80
9C
84
84
8C
74
ENDCHAR
STARTCHAR uni1E21
ENCODING 7713
SWIDTH 960 0
DWIDTH 7 0
BBX 6 11 0 -2
BITMAP
78
00
74
88
88
88
70
40
B8
84
78
ENDCHAR
STARTCHAR uni1E22
ENCODING 7714
SWIDTH 960 0
DWIDTH 7 0
BBX 6 12 0 0
BITMAP
10
00
84
84
84
84
FC
84
84
84
84
84
ENDCHAR
STARTCHAR uni1E23
ENCODING 7715
SWIDTH 960 0
DWIDTH 7 0
BBX 6 12 0 0
BITMAP
80
00
80
80
80
B8
C4
84
84
84
84
84
ENDCHAR
STARTCHAR uni1E24
ENCODING 7716
SWIDTH 960 0
DWIDTH 7 0
BBX 6 11 0 -1
BITMAP
84
84
84
84
FC
84
84
84
84
84
10
ENDCHAR
STARTCHAR uni1E25
ENCODING 7717
SWIDTH 960 0
DWIDTH 7 0
BBX 6 11 0 -1
BITMAP
80
80
80
B8
C4
84
84
84
84
84
10
ENDCHAR
STARTCHAR uni1E26
ENCODING 7718
SWIDTH 960 0
DWIDTH 7 0
BBX 6 12 0 0
BITMAP
48
00
84
84
84
84
FC
84
84
84
84
84
ENDCHAR
STARTCHAR uni1E27
ENCODING 7719
SWIDTH 960 0
DWIDTH 7 0
BBX 6 12 0 0
BITMAP
48
00
80
80
80
B8
C4
84
84
84
84
84
ENDCHAR
STARTCHAR uni1E28
ENCODING 7720
SWIDTH 960 0
DWIDTH 7 0
BBX 6 12 0 -2
BITMAP
84
84
84
84
FC
84
84
84
84
A4
10
60
ENDCHAR
STARTCHAR uni1E29
ENCODING 7721
SWIDTH 960 0
DWIDTH 7 0
BBX 6 12 0 -2
BITMAP
80
80
80
B8
C4
84
84
84
84
A4
10
60
ENDCHAR
STARTCHAR uni1E2A
ENCODING 7722
SWIDTH 960 0
DWIDTH 7 0
BBX 6 12 0 -2
BITMAP
84
84
84
84
FC
84
84
84
84
00
48
30
ENDCHAR
STARTCHAR uni1E2B
ENCODING 7723
SWIDTH 960 0
DWIDTH 7 0
BBX 6 12 0 -2
BITMAP
80
80
80
B8
C4
84
84
84
84
00
48
30
ENDCHAR
STARTCHAR uni1E2C
ENCODING 7724
SWIDTH 960 0
DWIDTH 7 0
BBX 5 12 1 -2
BITMAP
F8
20
20
20
20
20
20
20
F8
00
68
B0
ENDCHAR
STARTCHAR uni1E2D
ENCODING 7725
SWIDTH 960 0
DWIDTH 7 0
BBX 5 12 1 -2
BITMAP
20
20
00
60
20
20
20
20
F8
00
68
B0
ENDCHAR
STARTCHAR uni1E2E
ENCODING 7726
SWIDTH 960 0
DWIDTH 7 0
BBX 5 12 1 0
BITMAP
10
20
50
00
F8
20
20
20
20
20
20
F8
ENDCHAR
STARTCHAR uni1E2F
ENCODING 7727
SWIDTH 960 0
DWIDTH 7 0
BBX 5 12 1 0
BITMAP
10
20
00
50
00
60
20
20
20
20
20
F8
ENDCHAR
STARTCHAR uni1E30
ENCODING 7728
SWIDTH 960 0
DWIDTH 7 0
BBX 6 12 0 0
BITMAP
10
20
00
84
88
90
A0
C0
A0
90
88
84
ENDCHAR
STARTCHAR uni1E31
ENCODING 7729
SWIDTH 960 0
DWIDTH 7 0
BBX 6 12 0 0
BITMAP
10
20
80
80
80
88
90
A0
E0
90
88
84
ENDCHAR
STARTCHAR uni1E32
ENCODING 7730
SWIDTH 960 0
DWIDTH 7 0
BBX 6 12 0 -2
BITMAP
84
88
90
A0
C0
A0
90
88
84
84
00
10
ENDCHAR
STARTCHAR uni1E33
ENCODING 7731
SWIDTH 960 0
DWIDTH 7 0
BBX 6 12 0 -2
BITMAP
80
80
80
88
90
A0
E0
90
88
84
00
10
ENDCHAR
STARTCHAR uni1E34
ENCODING 7732
SWIDTH 960 0
DWIDTH 7 0
BBX 6 12 0 -2
BITMAP
84
88
90
A0
C0
A0
90
88
84
84
00
78
ENDCHAR
STARTCHAR uni1E35
ENCODING 7733
SWIDTH 960 0
DWIDTH 7 0
BBX 6 12 0 -2
BITMAP
80
80
80
88
90
A0
E0
90
88
84
00
78
ENDCHAR
STARTCHAR uni1E36
ENCODING 7734
SWIDTH 960 0
DWIDTH 7 0
BBX 6 12 0 -2
BITMAP
80
80
80
80
80
80
80
80
80
FC
00
10
ENDCHAR
STARTCHAR uni1E37
ENCODING 7735
SWIDTH 960 0
DWIDTH 7 0
BBX 5 12 1 -2
BITMAP
60
20
20
20
20
20
20
20
20
F8
00
20
ENDCHAR
STARTCHAR uni1E38
ENCODING 7736
SWIDTH 960 0
DWIDTH 7 0
BBX 7 13 0 -2
BITMAP
F0
00
40
40
40
40
40
40
40
40
7E
00
08
ENDCHAR
STARTCHAR uni1E39
ENCODING 7737
SWIDTH 960 0
DWIDTH 7 0
BBX 5 13 1 -2
BITMAP
F0
00
60
20
20
20
20
20
20
20
F8
00
20
ENDCHAR
STARTCHAR uni1E3A
ENCODING 7738
SWIDTH 960 0
DWIDTH 7 0
BBX 6 12 0 -2
BITMAP
80
80
80
80
80
80
80
80
80
FC
00
78
ENDCHAR
STARTCHAR uni1E3B
ENCODING 7739
SWIDTH 960 0
DWIDTH 7 0
BBX 5 12 1 -2
BITMAP
60
20
20
20
20
20
20
20
20
F8
00
F8
ENDCHAR
STARTCHAR uni1E3C
ENCODING 7740
SWIDTH 960 0
DWIDTH 7 0
BBX 6 12 0 -2
BITMAP
80
80
80
80
80
80
80
80
80
FC
10
28
ENDCHAR
STARTCHAR uni1E3D
ENCODING 7741
SWIDTH 960 0
DWIDTH 7 0
BBX 5 12 1 -2
BITMAP
60
20
20
20
20
20
20
20
20
F8
20
50
ENDCHAR
STARTCHAR uni1E3E
ENCODING 7742
SWIDTH 960 0
DWIDTH 7 0
BBX 6 12 0 0
BITMAP
10
20
00
84
CC
CC
B4
B4
84
84
84
84
ENDCHAR
ENDFONT
